%TF.GenerationSoftware,KiCad,Pcbnew,6.0.11-3.fc37*%
%TF.CreationDate,2023-03-10T11:04:47-06:00*%
%TF.ProjectId,ESP32,45535033-322e-46b6-9963-61645f706362,rev?*%
%TF.SameCoordinates,Original*%
%TF.FileFunction,Soldermask,Bot*%
%TF.FilePolarity,Negative*%
%FSLAX46Y46*%
G04 Gerber Fmt 4.6, Leading zero omitted, Abs format (unit mm)*
G04 Created by KiCad (PCBNEW 6.0.11-3.fc37) date 2023-03-10 11:04:47*
%MOMM*%
%LPD*%
G01*
G04 APERTURE LIST*
G04 Aperture macros list*
%AMRoundRect*
0 Rectangle with rounded corners*
0 $1 Rounding radius*
0 $2 $3 $4 $5 $6 $7 $8 $9 X,Y pos of 4 corners*
0 Add a 4 corners polygon primitive as box body*
4,1,4,$2,$3,$4,$5,$6,$7,$8,$9,$2,$3,0*
0 Add four circle primitives for the rounded corners*
1,1,$1+$1,$2,$3*
1,1,$1+$1,$4,$5*
1,1,$1+$1,$6,$7*
1,1,$1+$1,$8,$9*
0 Add four rect primitives between the rounded corners*
20,1,$1+$1,$2,$3,$4,$5,0*
20,1,$1+$1,$4,$5,$6,$7,0*
20,1,$1+$1,$6,$7,$8,$9,0*
20,1,$1+$1,$8,$9,$2,$3,0*%
%AMFreePoly0*
4,1,22,0.500000,-0.750000,0.000000,-0.750000,0.000000,-0.745033,-0.079941,-0.743568,-0.215256,-0.701293,-0.333266,-0.622738,-0.424486,-0.514219,-0.481581,-0.384460,-0.499164,-0.250000,-0.500000,-0.250000,-0.500000,0.250000,-0.499164,0.250000,-0.499963,0.256109,-0.478152,0.396186,-0.417904,0.524511,-0.324060,0.630769,-0.204165,0.706417,-0.067858,0.745374,0.000000,0.744959,0.000000,0.750000,
0.500000,0.750000,0.500000,-0.750000,0.500000,-0.750000,$1*%
%AMFreePoly1*
4,1,20,0.000000,0.744959,0.073905,0.744508,0.209726,0.703889,0.328688,0.626782,0.421226,0.519385,0.479903,0.390333,0.500000,0.250000,0.500000,-0.250000,0.499851,-0.262216,0.476331,-0.402017,0.414519,-0.529596,0.319384,-0.634700,0.198574,-0.708877,0.061801,-0.746166,0.000000,-0.745033,0.000000,-0.750000,-0.500000,-0.750000,-0.500000,0.750000,0.000000,0.750000,0.000000,0.744959,
0.000000,0.744959,$1*%
G04 Aperture macros list end*
%ADD10R,1.700000X1.700000*%
%ADD11O,1.700000X1.700000*%
%ADD12FreePoly0,0.000000*%
%ADD13FreePoly1,0.000000*%
%ADD14RoundRect,0.250000X0.325000X0.650000X-0.325000X0.650000X-0.325000X-0.650000X0.325000X-0.650000X0*%
%ADD15RoundRect,0.250000X-0.250000X-0.475000X0.250000X-0.475000X0.250000X0.475000X-0.250000X0.475000X0*%
%ADD16RoundRect,0.250000X0.475000X-0.250000X0.475000X0.250000X-0.475000X0.250000X-0.475000X-0.250000X0*%
%ADD17R,0.400000X1.400000*%
%ADD18O,1.050000X1.900000*%
%ADD19R,1.750000X1.900000*%
%ADD20R,1.150000X1.450000*%
%ADD21RoundRect,0.250000X0.250000X0.475000X-0.250000X0.475000X-0.250000X-0.475000X0.250000X-0.475000X0*%
%ADD22RoundRect,0.250000X-0.475000X0.250000X-0.475000X-0.250000X0.475000X-0.250000X0.475000X0.250000X0*%
G04 APERTURE END LIST*
D10*
%TO.C,J1*%
X22400000Y-43000000D03*
D11*
X24940000Y-43000000D03*
X22400000Y-45540000D03*
X24940000Y-45540000D03*
X22400000Y-48080000D03*
X24940000Y-48080000D03*
X22400000Y-50620000D03*
X24940000Y-50620000D03*
X22400000Y-53160000D03*
X24940000Y-53160000D03*
X22400000Y-55700000D03*
X24940000Y-55700000D03*
X22400000Y-58240000D03*
X24940000Y-58240000D03*
X22400000Y-60780000D03*
X24940000Y-60780000D03*
X22400000Y-63320000D03*
X24940000Y-63320000D03*
X22400000Y-65860000D03*
X24940000Y-65860000D03*
X22400000Y-68400000D03*
X24940000Y-68400000D03*
X22400000Y-70940000D03*
X24940000Y-70940000D03*
X22400000Y-73480000D03*
X24940000Y-73480000D03*
X22400000Y-76020000D03*
X24940000Y-76020000D03*
X22400000Y-78560000D03*
X24940000Y-78560000D03*
X22400000Y-81100000D03*
X24940000Y-81100000D03*
X22400000Y-83640000D03*
X24940000Y-83640000D03*
X22400000Y-86180000D03*
X24940000Y-86180000D03*
X22400000Y-88720000D03*
X24940000Y-88720000D03*
X22400000Y-91260000D03*
X24940000Y-91260000D03*
%TD*%
D12*
%TO.C,JP1*%
X87750000Y-63400000D03*
D13*
X89050000Y-63400000D03*
%TD*%
D14*
%TO.C,C16*%
X71175000Y-62000000D03*
X68225000Y-62000000D03*
%TD*%
D15*
%TO.C,C14*%
X75150000Y-72200000D03*
X77050000Y-72200000D03*
%TD*%
D16*
%TO.C,C7*%
X64700000Y-63950000D03*
X64700000Y-62050000D03*
%TD*%
D17*
%TO.C,J2*%
X68700000Y-24050000D03*
X69350000Y-24050000D03*
X70000000Y-24050000D03*
X70650000Y-24050000D03*
X71300000Y-24050000D03*
D18*
X73575000Y-21400000D03*
X66425000Y-21400000D03*
D19*
X68875000Y-21400000D03*
D20*
X67680000Y-23630000D03*
D19*
X71125000Y-21400000D03*
D20*
X72320000Y-23630000D03*
%TD*%
D15*
%TO.C,C2*%
X78050000Y-65600000D03*
X79950000Y-65600000D03*
%TD*%
D21*
%TO.C,C4*%
X64422936Y-70800000D03*
X62522936Y-70800000D03*
%TD*%
D15*
%TO.C,C6*%
X78050000Y-70200000D03*
X79950000Y-70200000D03*
%TD*%
D22*
%TO.C,C13*%
X64500000Y-76850000D03*
X64500000Y-78750000D03*
%TD*%
D15*
%TO.C,C1*%
X78050000Y-67900000D03*
X79950000Y-67900000D03*
%TD*%
M02*
