%TF.GenerationSoftware,KiCad,Pcbnew,6.0.11-3.fc37*%
%TF.CreationDate,2023-03-10T11:04:47-06:00*%
%TF.ProjectId,ESP32,45535033-322e-46b6-9963-61645f706362,rev?*%
%TF.SameCoordinates,Original*%
%TF.FileFunction,Copper,L1,Top*%
%TF.FilePolarity,Positive*%
%FSLAX46Y46*%
G04 Gerber Fmt 4.6, Leading zero omitted, Abs format (unit mm)*
G04 Created by KiCad (PCBNEW 6.0.11-3.fc37) date 2023-03-10 11:04:47*
%MOMM*%
%LPD*%
G01*
G04 APERTURE LIST*
G04 Aperture macros list*
%AMRoundRect*
0 Rectangle with rounded corners*
0 $1 Rounding radius*
0 $2 $3 $4 $5 $6 $7 $8 $9 X,Y pos of 4 corners*
0 Add a 4 corners polygon primitive as box body*
4,1,4,$2,$3,$4,$5,$6,$7,$8,$9,$2,$3,0*
0 Add four circle primitives for the rounded corners*
1,1,$1+$1,$2,$3*
1,1,$1+$1,$4,$5*
1,1,$1+$1,$6,$7*
1,1,$1+$1,$8,$9*
0 Add four rect primitives between the rounded corners*
20,1,$1+$1,$2,$3,$4,$5,0*
20,1,$1+$1,$4,$5,$6,$7,0*
20,1,$1+$1,$6,$7,$8,$9,0*
20,1,$1+$1,$8,$9,$2,$3,0*%
G04 Aperture macros list end*
%TA.AperFunction,SMDPad,CuDef*%
%ADD10RoundRect,0.150000X-0.150000X0.650000X-0.150000X-0.650000X0.150000X-0.650000X0.150000X0.650000X0*%
%TD*%
%TA.AperFunction,SMDPad,CuDef*%
%ADD11R,1.050000X1.000000*%
%TD*%
%TA.AperFunction,SMDPad,CuDef*%
%ADD12R,2.200000X1.050000*%
%TD*%
%TA.AperFunction,SMDPad,CuDef*%
%ADD13R,2.000000X1.500000*%
%TD*%
%TA.AperFunction,SMDPad,CuDef*%
%ADD14R,2.000000X3.800000*%
%TD*%
%TA.AperFunction,SMDPad,CuDef*%
%ADD15RoundRect,0.250000X-0.262500X-0.450000X0.262500X-0.450000X0.262500X0.450000X-0.262500X0.450000X0*%
%TD*%
%TA.AperFunction,SMDPad,CuDef*%
%ADD16R,0.800000X0.900000*%
%TD*%
%TA.AperFunction,SMDPad,CuDef*%
%ADD17RoundRect,0.250000X-0.450000X0.262500X-0.450000X-0.262500X0.450000X-0.262500X0.450000X0.262500X0*%
%TD*%
%TA.AperFunction,SMDPad,CuDef*%
%ADD18RoundRect,0.250000X0.450000X-0.262500X0.450000X0.262500X-0.450000X0.262500X-0.450000X-0.262500X0*%
%TD*%
%TA.AperFunction,SMDPad,CuDef*%
%ADD19RoundRect,0.218750X0.218750X0.256250X-0.218750X0.256250X-0.218750X-0.256250X0.218750X-0.256250X0*%
%TD*%
%TA.AperFunction,SMDPad,CuDef*%
%ADD20RoundRect,0.150000X-0.587500X-0.150000X0.587500X-0.150000X0.587500X0.150000X-0.587500X0.150000X0*%
%TD*%
%TA.AperFunction,ComponentPad*%
%ADD21R,1.700000X1.700000*%
%TD*%
%TA.AperFunction,ComponentPad*%
%ADD22O,1.700000X1.700000*%
%TD*%
%TA.AperFunction,SMDPad,CuDef*%
%ADD23RoundRect,0.250000X0.475000X-0.250000X0.475000X0.250000X-0.475000X0.250000X-0.475000X-0.250000X0*%
%TD*%
%TA.AperFunction,SMDPad,CuDef*%
%ADD24RoundRect,0.225000X-0.250000X0.225000X-0.250000X-0.225000X0.250000X-0.225000X0.250000X0.225000X0*%
%TD*%
%TA.AperFunction,SMDPad,CuDef*%
%ADD25RoundRect,0.250000X-0.475000X0.250000X-0.475000X-0.250000X0.475000X-0.250000X0.475000X0.250000X0*%
%TD*%
%TA.AperFunction,SMDPad,CuDef*%
%ADD26RoundRect,0.062500X-0.062500X0.350000X-0.062500X-0.350000X0.062500X-0.350000X0.062500X0.350000X0*%
%TD*%
%TA.AperFunction,SMDPad,CuDef*%
%ADD27RoundRect,0.062500X-0.350000X0.062500X-0.350000X-0.062500X0.350000X-0.062500X0.350000X0.062500X0*%
%TD*%
%TA.AperFunction,SMDPad,CuDef*%
%ADD28R,2.600000X2.600000*%
%TD*%
%TA.AperFunction,SMDPad,CuDef*%
%ADD29RoundRect,0.250000X-0.650000X0.325000X-0.650000X-0.325000X0.650000X-0.325000X0.650000X0.325000X0*%
%TD*%
%TA.AperFunction,SMDPad,CuDef*%
%ADD30RoundRect,0.050000X0.050000X-0.350000X0.050000X0.350000X-0.050000X0.350000X-0.050000X-0.350000X0*%
%TD*%
%TA.AperFunction,SMDPad,CuDef*%
%ADD31RoundRect,0.050000X0.350000X-0.050000X0.350000X0.050000X-0.350000X0.050000X-0.350000X-0.050000X0*%
%TD*%
%TA.AperFunction,SMDPad,CuDef*%
%ADD32R,3.700000X3.700000*%
%TD*%
%TA.AperFunction,ComponentPad*%
%ADD33O,1.050000X1.900000*%
%TD*%
%TA.AperFunction,ViaPad*%
%ADD34C,0.510000*%
%TD*%
%TA.AperFunction,ViaPad*%
%ADD35C,0.800000*%
%TD*%
%TA.AperFunction,Conductor*%
%ADD36C,0.137000*%
%TD*%
%TA.AperFunction,Conductor*%
%ADD37C,0.200000*%
%TD*%
%TA.AperFunction,Conductor*%
%ADD38C,0.250000*%
%TD*%
G04 APERTURE END LIST*
D10*
%TO.P,U3,1,~{CS}*%
%TO.N,/FLASH_CS*%
X80405000Y-52000000D03*
%TO.P,U3,2,DO(IO1)*%
%TO.N,/FLASH_IO1*%
X79135000Y-52000000D03*
%TO.P,U3,3,IO2*%
%TO.N,/FLASH_IO2*%
X77865000Y-52000000D03*
%TO.P,U3,4,GND*%
%TO.N,GND*%
X76595000Y-52000000D03*
%TO.P,U3,5,DI(IO0)*%
%TO.N,/FLASH_IO0*%
X76595000Y-59200000D03*
%TO.P,U3,6,CLK*%
%TO.N,/FLASH_CLK*%
X77865000Y-59200000D03*
%TO.P,U3,7,IO3*%
%TO.N,/FLASH_IO3*%
X79135000Y-59200000D03*
%TO.P,U3,8,VCC*%
%TO.N,VDD_SDIO*%
X80405000Y-59200000D03*
%TD*%
D11*
%TO.P,AE1,1,A*%
%TO.N,Net-(C3-Pad1)*%
X80350000Y-75600000D03*
D12*
%TO.P,AE1,2*%
%TO.N,N/C*%
X81875000Y-77075000D03*
X81875000Y-74125000D03*
%TD*%
D13*
%TO.P,U1,1,GND*%
%TO.N,GND*%
X49550000Y-28900000D03*
D14*
%TO.P,U1,2,VO*%
%TO.N,+3V3*%
X55850000Y-31200000D03*
D13*
X49550000Y-31200000D03*
%TO.P,U1,3,VI*%
%TO.N,VBUS*%
X49550000Y-33500000D03*
%TD*%
D15*
%TO.P,R9,1*%
%TO.N,Net-(U4-Pad20)*%
X76212500Y-33075000D03*
%TO.P,R9,2*%
%TO.N,/RXD*%
X78037500Y-33075000D03*
%TD*%
D16*
%TO.P,Y1,1,1*%
%TO.N,Net-(C9-Pad2)*%
X59250000Y-72400000D03*
%TO.P,Y1,2,2*%
%TO.N,GND*%
X59250000Y-71000000D03*
%TO.P,Y1,3,3*%
%TO.N,Net-(U2-Pad44)*%
X58150000Y-71000000D03*
%TO.P,Y1,4,4*%
%TO.N,GND*%
X58150000Y-72400000D03*
%TD*%
D17*
%TO.P,R7,1*%
%TO.N,GND*%
X58300000Y-24287500D03*
%TO.P,R7,2*%
%TO.N,Net-(U4-Pad8)*%
X58300000Y-26112500D03*
%TD*%
D18*
%TO.P,R6,1*%
%TO.N,/RTS*%
X82600000Y-32112500D03*
%TO.P,R6,2*%
%TO.N,Net-(Q2-Pad1)*%
X82600000Y-30287500D03*
%TD*%
D17*
%TO.P,R5,1*%
%TO.N,/DTR*%
X90500000Y-30575000D03*
%TO.P,R5,2*%
%TO.N,Net-(Q1-Pad1)*%
X90500000Y-32400000D03*
%TD*%
D19*
%TO.P,L1,1,1*%
%TO.N,Net-(C3-Pad1)*%
X74487500Y-75600000D03*
%TO.P,L1,2,2*%
%TO.N,Net-(C5-Pad1)*%
X72912500Y-75600000D03*
%TD*%
D18*
%TO.P,R4,1*%
%TO.N,/FLASH_CS*%
X83400000Y-51912500D03*
%TO.P,R4,2*%
%TO.N,+3V3*%
X83400000Y-50087500D03*
%TD*%
D20*
%TO.P,Q2,1,B*%
%TO.N,Net-(Q2-Pad1)*%
X86462500Y-28550000D03*
%TO.P,Q2,2,E*%
%TO.N,/DTR*%
X86462500Y-30450000D03*
%TO.P,Q2,3,C*%
%TO.N,/IO0*%
X88337500Y-29500000D03*
%TD*%
D21*
%TO.P,J1,1,Pin_1*%
%TO.N,+3V3*%
X22400000Y-43000000D03*
D22*
%TO.P,J1,2,Pin_2*%
X24940000Y-43000000D03*
%TO.P,J1,3,Pin_3*%
%TO.N,/IO2*%
X22400000Y-45540000D03*
%TO.P,J1,4,Pin_4*%
X24940000Y-45540000D03*
%TO.P,J1,5,Pin_5*%
%TO.N,/IO4*%
X22400000Y-48080000D03*
%TO.P,J1,6,Pin_6*%
X24940000Y-48080000D03*
%TO.P,J1,7,Pin_7*%
%TO.N,/IO5*%
X22400000Y-50620000D03*
%TO.P,J1,8,Pin_8*%
X24940000Y-50620000D03*
%TO.P,J1,9,Pin_9*%
%TO.N,/IO18*%
X22400000Y-53160000D03*
%TO.P,J1,10,Pin_10*%
X24940000Y-53160000D03*
%TO.P,J1,11,Pin_11*%
%TO.N,/IO19*%
X22400000Y-55700000D03*
%TO.P,J1,12,Pin_12*%
X24940000Y-55700000D03*
%TO.P,J1,13,Pin_13*%
%TO.N,/IO21*%
X22400000Y-58240000D03*
%TO.P,J1,14,Pin_14*%
X24940000Y-58240000D03*
%TO.P,J1,15,Pin_15*%
%TO.N,/IO22*%
X22400000Y-60780000D03*
%TO.P,J1,16,Pin_16*%
X24940000Y-60780000D03*
%TO.P,J1,17,Pin_17*%
%TO.N,/IO23*%
X22400000Y-63320000D03*
%TO.P,J1,18,Pin_18*%
X24940000Y-63320000D03*
%TO.P,J1,19,Pin_19*%
%TO.N,/IO25*%
X22400000Y-65860000D03*
%TO.P,J1,20,Pin_20*%
X24940000Y-65860000D03*
%TO.P,J1,21,Pin_21*%
%TO.N,/IO26*%
X22400000Y-68400000D03*
%TO.P,J1,22,Pin_22*%
X24940000Y-68400000D03*
%TO.P,J1,23,Pin_23*%
%TO.N,/IO27*%
X22400000Y-70940000D03*
%TO.P,J1,24,Pin_24*%
X24940000Y-70940000D03*
%TO.P,J1,25,Pin_25*%
%TO.N,/IO14*%
X22400000Y-73480000D03*
%TO.P,J1,26,Pin_26*%
X24940000Y-73480000D03*
%TO.P,J1,27,Pin_27*%
%TO.N,/IO12*%
X22400000Y-76020000D03*
%TO.P,J1,28,Pin_28*%
X24940000Y-76020000D03*
%TO.P,J1,29,Pin_29*%
%TO.N,/IO13*%
X22400000Y-78560000D03*
%TO.P,J1,30,Pin_30*%
X24940000Y-78560000D03*
%TO.P,J1,31,Pin_31*%
%TO.N,/IO15*%
X22400000Y-81100000D03*
%TO.P,J1,32,Pin_32*%
X24940000Y-81100000D03*
%TO.P,J1,33,Pin_33*%
%TO.N,unconnected-(J1-Pad33)*%
X22400000Y-83640000D03*
%TO.P,J1,34,Pin_34*%
%TO.N,unconnected-(J1-Pad34)*%
X24940000Y-83640000D03*
%TO.P,J1,35,Pin_35*%
%TO.N,unconnected-(J1-Pad35)*%
X22400000Y-86180000D03*
%TO.P,J1,36,Pin_36*%
%TO.N,unconnected-(J1-Pad36)*%
X24940000Y-86180000D03*
%TO.P,J1,37,Pin_37*%
%TO.N,unconnected-(J1-Pad37)*%
X22400000Y-88720000D03*
%TO.P,J1,38,Pin_38*%
%TO.N,unconnected-(J1-Pad38)*%
X24940000Y-88720000D03*
%TO.P,J1,39,Pin_39*%
%TO.N,GND*%
X22400000Y-91260000D03*
%TO.P,J1,40,Pin_40*%
X24940000Y-91260000D03*
%TD*%
D23*
%TO.P,C9,1*%
%TO.N,GND*%
X59200000Y-76450000D03*
%TO.P,C9,2*%
%TO.N,Net-(C9-Pad2)*%
X59200000Y-74550000D03*
%TD*%
D15*
%TO.P,R8,1*%
%TO.N,Net-(U4-Pad21)*%
X76287500Y-29400000D03*
%TO.P,R8,2*%
%TO.N,/TXD*%
X78112500Y-29400000D03*
%TD*%
D24*
%TO.P,C3,1*%
%TO.N,Net-(C3-Pad1)*%
X76400000Y-77625000D03*
%TO.P,C3,2*%
%TO.N,GND*%
X76400000Y-79175000D03*
%TD*%
D18*
%TO.P,FB1,1*%
%TO.N,+3V3*%
X66300000Y-76212500D03*
%TO.P,FB1,2*%
%TO.N,Net-(U2-Pad1)*%
X66300000Y-74387500D03*
%TD*%
D25*
%TO.P,C10,1*%
%TO.N,GND*%
X58800000Y-65450000D03*
%TO.P,C10,2*%
%TO.N,Net-(U2-Pad44)*%
X58800000Y-67350000D03*
%TD*%
D26*
%TO.P,U4,1,~{RI}/CLK*%
%TO.N,unconnected-(U4-Pad1)*%
X71650000Y-29662500D03*
%TO.P,U4,2,GND*%
%TO.N,GND*%
X71150000Y-29662500D03*
%TO.P,U4,3,D+*%
%TO.N,Net-(J2-Pad3)*%
X70650000Y-29662500D03*
%TO.P,U4,4,D-*%
%TO.N,Net-(J2-Pad2)*%
X70150000Y-29662500D03*
%TO.P,U4,5,VIO*%
%TO.N,+3V3*%
X69650000Y-29662500D03*
%TO.P,U4,6,VDD*%
X69150000Y-29662500D03*
D27*
%TO.P,U4,7,VREGIN*%
%TO.N,unconnected-(U4-Pad7)*%
X68462500Y-30350000D03*
%TO.P,U4,8,VBUS*%
%TO.N,Net-(U4-Pad8)*%
X68462500Y-30850000D03*
%TO.P,U4,9,~{RST}*%
%TO.N,+3V3*%
X68462500Y-31350000D03*
%TO.P,U4,10,NC*%
%TO.N,unconnected-(U4-Pad10)*%
X68462500Y-31850000D03*
%TO.P,U4,11,~{WAKEUP}/GPIO.3*%
%TO.N,unconnected-(U4-Pad11)*%
X68462500Y-32350000D03*
%TO.P,U4,12,RS485/GPIO.2*%
%TO.N,unconnected-(U4-Pad12)*%
X68462500Y-32850000D03*
D26*
%TO.P,U4,13,~{RXT}/GPIO.1*%
%TO.N,unconnected-(U4-Pad13)*%
X69150000Y-33537500D03*
%TO.P,U4,14,~{TXT}/GPIO.0*%
%TO.N,unconnected-(U4-Pad14)*%
X69650000Y-33537500D03*
%TO.P,U4,15,~{SUSPEND}*%
%TO.N,unconnected-(U4-Pad15)*%
X70150000Y-33537500D03*
%TO.P,U4,16,NC*%
%TO.N,unconnected-(U4-Pad16)*%
X70650000Y-33537500D03*
%TO.P,U4,17,SUSPEND*%
%TO.N,unconnected-(U4-Pad17)*%
X71150000Y-33537500D03*
%TO.P,U4,18,~{CTS}*%
%TO.N,unconnected-(U4-Pad18)*%
X71650000Y-33537500D03*
D27*
%TO.P,U4,19,~{RTS}*%
%TO.N,/RTS*%
X72337500Y-32850000D03*
%TO.P,U4,20,RXD*%
%TO.N,Net-(U4-Pad20)*%
X72337500Y-32350000D03*
%TO.P,U4,21,TXD*%
%TO.N,Net-(U4-Pad21)*%
X72337500Y-31850000D03*
%TO.P,U4,22,~{DSR}*%
%TO.N,/DSR*%
X72337500Y-31350000D03*
%TO.P,U4,23,~{DTR}*%
%TO.N,/DTR*%
X72337500Y-30850000D03*
%TO.P,U4,24,~{DCD}*%
%TO.N,unconnected-(U4-Pad24)*%
X72337500Y-30350000D03*
D28*
%TO.P,U4,25,GND*%
%TO.N,GND*%
X70400000Y-31600000D03*
%TD*%
D23*
%TO.P,C17,1*%
%TO.N,VDD_SDIO*%
X83200000Y-59250000D03*
%TO.P,C17,2*%
%TO.N,GND*%
X83200000Y-57350000D03*
%TD*%
D29*
%TO.P,C15,1*%
%TO.N,Net-(U2-Pad1)*%
X62500000Y-74425000D03*
%TO.P,C15,2*%
%TO.N,GND*%
X62500000Y-77375000D03*
%TD*%
D15*
%TO.P,R3,1*%
%TO.N,Net-(C9-Pad2)*%
X62787500Y-72400000D03*
%TO.P,R3,2*%
%TO.N,Net-(U2-Pad45)*%
X64612500Y-72400000D03*
%TD*%
D30*
%TO.P,U2,1,VDDA*%
%TO.N,Net-(U2-Pad1)*%
X67725000Y-72450000D03*
%TO.P,U2,2,LNA_IN*%
%TO.N,Net-(C5-Pad1)*%
X68075000Y-72450000D03*
%TO.P,U2,3,VDD3P3*%
%TO.N,+3V3*%
X68425000Y-72450000D03*
%TO.P,U2,4,VDD3P3*%
X68775000Y-72450000D03*
%TO.P,U2,5,SENSOR_VP/GPIO36/ADC1_CH0*%
%TO.N,/IO36*%
X69125000Y-72450000D03*
%TO.P,U2,6,SENSOR_CAPP/GPIO37/ADC1_CH1*%
%TO.N,/IO37*%
X69475000Y-72450000D03*
%TO.P,U2,7,SENSOR_CAPN/GPIO38/ADC1_CH2*%
%TO.N,/IO38*%
X69825000Y-72450000D03*
%TO.P,U2,8,SENSOR_VN/GPIO39/ADC1_CH3*%
%TO.N,/IO39*%
X70175000Y-72450000D03*
%TO.P,U2,9,CHIP_PU*%
%TO.N,/EN*%
X70525000Y-72450000D03*
%TO.P,U2,10,VDET_1/GPIO34/ADC1_CH6*%
%TO.N,/IO34*%
X70875000Y-72450000D03*
%TO.P,U2,11,VDET_2/GPIO35/ADC1_CH7*%
%TO.N,/IO35*%
X71225000Y-72450000D03*
%TO.P,U2,12,32K_XP/GPIO32/ADC1_CH4*%
%TO.N,/IO32*%
X71575000Y-72450000D03*
%TO.P,U2,13,32K_XN/GPIO33/ADC1_CH5*%
%TO.N,/IO33*%
X71925000Y-72450000D03*
%TO.P,U2,14,GPIO25/ADC2_CH8/DAC_1*%
%TO.N,/IO25*%
X72275000Y-72450000D03*
D31*
%TO.P,U2,15,GPIO26/ADC2_CH9/DAC_2*%
%TO.N,/IO26*%
X72450000Y-71575000D03*
%TO.P,U2,16,GPIO27/ADC2_CH7*%
%TO.N,/IO27*%
X72450000Y-71225000D03*
%TO.P,U2,17,MTMS/GPIO14/ADC2_CH6*%
%TO.N,/IO14*%
X72450000Y-70875000D03*
%TO.P,U2,18,MTDI/GPIO12/ADC2_CH5*%
%TO.N,/IO12*%
X72450000Y-70525000D03*
%TO.P,U2,19,VDD3P3_RTC*%
%TO.N,+3V3*%
X72450000Y-70175000D03*
%TO.P,U2,20,MTCK/GPIO13/ADC2_CH4*%
%TO.N,/IO13*%
X72450000Y-69825000D03*
%TO.P,U2,21,MTDO/GPIO15/ADC2_CH3*%
%TO.N,/IO15*%
X72450000Y-69475000D03*
%TO.P,U2,22,GPIO2/ADC2_CH2*%
%TO.N,/IO2*%
X72450000Y-69125000D03*
%TO.P,U2,23,GPIO0/BOOT/ADC2_CH1*%
%TO.N,/IO0*%
X72450000Y-68775000D03*
%TO.P,U2,24,GPIO4/ADC2_CH0*%
%TO.N,/IO4*%
X72450000Y-68425000D03*
D30*
%TO.P,U2,25,GPIO16*%
%TO.N,/IO16*%
X72275000Y-67550000D03*
%TO.P,U2,26,VDD_SDIO*%
%TO.N,VDD_SDIO*%
X71925000Y-67550000D03*
%TO.P,U2,27,GPIO17*%
%TO.N,/IO17*%
X71575000Y-67550000D03*
%TO.P,U2,28,SD_DATA_2/GPIO9*%
%TO.N,/FLASH_IO2*%
X71225000Y-67550000D03*
%TO.P,U2,29,SD_DATA_3/GPIO10*%
%TO.N,/FLASH_IO3*%
X70875000Y-67550000D03*
%TO.P,U2,30,SD_CMD/GPIO11*%
%TO.N,/FLASH_CS*%
X70525000Y-67550000D03*
%TO.P,U2,31,SD_CLK/GPIO6*%
%TO.N,/FLASH_CLK*%
X70175000Y-67550000D03*
%TO.P,U2,32,SD_DATA_0/GPIO7*%
%TO.N,/FLASH_IO1*%
X69825000Y-67550000D03*
%TO.P,U2,33,SD_DATA_1/GPIO8*%
%TO.N,/FLASH_IO0*%
X69475000Y-67550000D03*
%TO.P,U2,34,GPIO5*%
%TO.N,/IO5*%
X69125000Y-67550000D03*
%TO.P,U2,35,GPIO18*%
%TO.N,/IO18*%
X68775000Y-67550000D03*
%TO.P,U2,36,GPIO23*%
%TO.N,/IO23*%
X68425000Y-67550000D03*
%TO.P,U2,37,VDD3P3_CPU*%
%TO.N,+3V3*%
X68075000Y-67550000D03*
%TO.P,U2,38,GPIO19*%
%TO.N,/IO19*%
X67725000Y-67550000D03*
D31*
%TO.P,U2,39,GPIO22*%
%TO.N,/IO22*%
X67550000Y-68425000D03*
%TO.P,U2,40,U0RXD/GPIO3*%
%TO.N,/RXD*%
X67550000Y-68775000D03*
%TO.P,U2,41,U0TXD/GPIO1*%
%TO.N,/TXD*%
X67550000Y-69125000D03*
%TO.P,U2,42,GPIO21*%
%TO.N,/IO21*%
X67550000Y-69475000D03*
%TO.P,U2,43,VDDA*%
%TO.N,Net-(U2-Pad1)*%
X67550000Y-69825000D03*
%TO.P,U2,44,XTAL_N*%
%TO.N,Net-(U2-Pad44)*%
X67550000Y-70175000D03*
%TO.P,U2,45,XTAL_P*%
%TO.N,Net-(U2-Pad45)*%
X67550000Y-70525000D03*
%TO.P,U2,46,VDDA*%
%TO.N,Net-(U2-Pad1)*%
X67550000Y-70875000D03*
%TO.P,U2,47,CAP2*%
%TO.N,unconnected-(U2-Pad47)*%
X67550000Y-71225000D03*
%TO.P,U2,48,CAP1*%
%TO.N,unconnected-(U2-Pad48)*%
X67550000Y-71575000D03*
D32*
%TO.P,U2,49,GND*%
%TO.N,GND*%
X70000000Y-70000000D03*
%TD*%
D24*
%TO.P,C5,1*%
%TO.N,Net-(C5-Pad1)*%
X71400000Y-77625000D03*
%TO.P,C5,2*%
%TO.N,GND*%
X71400000Y-79175000D03*
%TD*%
D20*
%TO.P,Q1,1,B*%
%TO.N,Net-(Q1-Pad1)*%
X87662500Y-34050000D03*
%TO.P,Q1,2,E*%
%TO.N,/RTS*%
X87662500Y-35950000D03*
%TO.P,Q1,3,C*%
%TO.N,/EN*%
X89537500Y-35000000D03*
%TD*%
D18*
%TO.P,R1,1*%
%TO.N,Net-(U4-Pad8)*%
X62900000Y-26112500D03*
%TO.P,R1,2*%
%TO.N,VBUS*%
X62900000Y-24287500D03*
%TD*%
D23*
%TO.P,C8,1*%
%TO.N,VDD_SDIO*%
X85600000Y-59250000D03*
%TO.P,C8,2*%
%TO.N,GND*%
X85600000Y-57350000D03*
%TD*%
D33*
%TO.P,J2,6,Shield*%
%TO.N,GND*%
X73575000Y-21400000D03*
X66425000Y-21400000D03*
%TD*%
D34*
%TO.N,+3V3*%
X66300000Y-78200000D03*
X74300000Y-69700000D03*
X67000000Y-65900000D03*
X72900000Y-62000000D03*
X83300000Y-48000000D03*
X65150000Y-31350000D03*
X91100000Y-63400000D03*
X68800000Y-73700000D03*
X69300000Y-28300000D03*
%TO.N,GND*%
X76600000Y-49900000D03*
X61800000Y-69200000D03*
X78900000Y-72000000D03*
X71500000Y-28100000D03*
X58900000Y-63900000D03*
X66600000Y-62000000D03*
X87100000Y-53700000D03*
D35*
X53900000Y-24200000D03*
D34*
X88300000Y-52100000D03*
X61500000Y-62100000D03*
X70100000Y-70000000D03*
X81400000Y-69900000D03*
X59500000Y-69700000D03*
X64500000Y-80800000D03*
X89100000Y-50100000D03*
%TO.N,VDD_SDIO*%
X83200000Y-61300000D03*
%TO.N,Net-(U2-Pad1)*%
X64475000Y-74425000D03*
X63500000Y-69000000D03*
X66100000Y-72800000D03*
%TO.N,/EN*%
X70500000Y-74100000D03*
X75100000Y-67400000D03*
%TO.N,/IO2*%
X101700000Y-39900000D03*
%TO.N,/IO4*%
X81100000Y-63500000D03*
%TO.N,/IO5*%
X69100000Y-58100000D03*
%TO.N,/IO18*%
X68400000Y-59600000D03*
%TO.N,/IO19*%
X66050000Y-59850000D03*
%TO.N,/IO22*%
X66100000Y-67600000D03*
X55600000Y-67600000D03*
%TO.N,/IO23*%
X67000000Y-59700000D03*
%TO.N,/IO25*%
X72200000Y-74000000D03*
%TO.N,/IO26*%
X32800000Y-68500000D03*
%TO.N,/IO27*%
X86700000Y-72500000D03*
%TO.N,/IO12*%
X88900000Y-70500000D03*
%TO.N,/IO15*%
X91900000Y-67800000D03*
%TO.N,VBUS*%
X68000000Y-25900000D03*
D35*
%TO.N,Net-(J2-Pad2)*%
X69600000Y-26600000D03*
%TO.N,Net-(J2-Pad3)*%
X70569659Y-26357585D03*
D34*
%TO.N,/RTS*%
X84800000Y-33600000D03*
X73600000Y-33000000D03*
%TO.N,/DTR*%
X84100000Y-30600000D03*
X73600000Y-30900000D03*
%TO.N,/FLASH_CS*%
X80300000Y-49700000D03*
X70400000Y-65600000D03*
%TO.N,/FLASH_IO3*%
X78600000Y-61100000D03*
X70600000Y-64800000D03*
%TO.N,/FLASH_CLK*%
X71800000Y-64100000D03*
X70100000Y-64300000D03*
%TO.N,/FLASH_IO0*%
X75000000Y-59200000D03*
X69000000Y-63700000D03*
%TO.N,/TXD*%
X79000000Y-43000000D03*
X80500000Y-43000000D03*
%TD*%
D36*
%TO.N,+3V3*%
X68425000Y-73325000D02*
X68425000Y-72450000D01*
X69150000Y-29662500D02*
X69150000Y-28450000D01*
X83400000Y-50087500D02*
X83400000Y-48100000D01*
X68462500Y-31350000D02*
X65150000Y-31350000D01*
X68800000Y-73700000D02*
X68425000Y-73325000D01*
X73825000Y-70175000D02*
X72450000Y-70175000D01*
X68075000Y-66975000D02*
X68075000Y-67550000D01*
X55850000Y-31200000D02*
X49550000Y-31200000D01*
X66300000Y-78200000D02*
X66300000Y-76212500D01*
X65150000Y-31350000D02*
X56000000Y-31350000D01*
X68775000Y-72450000D02*
X68425000Y-72450000D01*
X69150000Y-28450000D02*
X69300000Y-28300000D01*
X69150000Y-29662500D02*
X69650000Y-29662500D01*
X67000000Y-65900000D02*
X68075000Y-66975000D01*
X74300000Y-69700000D02*
X73825000Y-70175000D01*
X83400000Y-48100000D02*
X83300000Y-48000000D01*
X56000000Y-31350000D02*
X55850000Y-31200000D01*
%TO.N,GND*%
X71150000Y-29662500D02*
X71150000Y-28450000D01*
X76595000Y-49905000D02*
X76600000Y-49900000D01*
X58900000Y-65350000D02*
X58900000Y-63900000D01*
X71150000Y-28450000D02*
X71500000Y-28100000D01*
X58800000Y-65450000D02*
X58900000Y-65350000D01*
X76595000Y-52000000D02*
X76595000Y-49905000D01*
X71150000Y-30850000D02*
X70400000Y-31600000D01*
X71150000Y-29662500D02*
X71150000Y-30850000D01*
%TO.N,VDD_SDIO*%
X80405000Y-60400991D02*
X75405991Y-65400000D01*
X83200000Y-59250000D02*
X83200000Y-61300000D01*
X80405000Y-59200000D02*
X80405000Y-60400991D01*
X72700000Y-65400000D02*
X71925000Y-66175000D01*
X80405000Y-59200000D02*
X83150000Y-59200000D01*
X71925000Y-66175000D02*
X71925000Y-67550000D01*
X85600000Y-59250000D02*
X83200000Y-59250000D01*
X75405991Y-65400000D02*
X72700000Y-65400000D01*
X83150000Y-59200000D02*
X83200000Y-59250000D01*
%TO.N,Net-(C9-Pad2)*%
X59200000Y-74550000D02*
X59250000Y-74500000D01*
X59250000Y-74500000D02*
X59250000Y-72400000D01*
X59250000Y-72400000D02*
X62787500Y-72400000D01*
%TO.N,Net-(U2-Pad44)*%
X60000000Y-69000000D02*
X61600000Y-70600000D01*
X58800000Y-67350000D02*
X58800000Y-68800000D01*
X58150000Y-69850000D02*
X59000000Y-69000000D01*
X65725000Y-70175000D02*
X67550000Y-70175000D01*
X61600000Y-70600000D02*
X65300000Y-70600000D01*
X58800000Y-68800000D02*
X59000000Y-69000000D01*
X58150000Y-71000000D02*
X58150000Y-69850000D01*
X65300000Y-70600000D02*
X65725000Y-70175000D01*
X59000000Y-69000000D02*
X60000000Y-69000000D01*
%TO.N,Net-(U2-Pad1)*%
X66600000Y-71100000D02*
X66825000Y-70875000D01*
X66300000Y-74387500D02*
X66300000Y-73875000D01*
X64475000Y-74425000D02*
X66262500Y-74425000D01*
X66262500Y-74425000D02*
X66300000Y-74387500D01*
X66300000Y-73875000D02*
X67187500Y-72987500D01*
X66100000Y-72800000D02*
X67000000Y-72800000D01*
X67725000Y-72450000D02*
X67450000Y-72450000D01*
X64325000Y-69825000D02*
X63500000Y-69000000D01*
X67550000Y-69825000D02*
X64325000Y-69825000D01*
X66825000Y-70875000D02*
X67550000Y-70875000D01*
X67450000Y-72450000D02*
X66600000Y-71600000D01*
X62500000Y-74425000D02*
X64475000Y-74425000D01*
X67000000Y-72800000D02*
X67187500Y-72987500D01*
X66600000Y-71600000D02*
X66600000Y-71100000D01*
X67187500Y-72987500D02*
X67725000Y-72450000D01*
%TO.N,/EN*%
X93100000Y-54000000D02*
X93100000Y-36600000D01*
X79900000Y-67200000D02*
X93100000Y-54000000D01*
X75800000Y-67400000D02*
X76000000Y-67200000D01*
X91500000Y-35000000D02*
X89537500Y-35000000D01*
X75100000Y-67400000D02*
X75800000Y-67400000D01*
X70500000Y-74100000D02*
X70500000Y-72475000D01*
X76000000Y-67200000D02*
X79900000Y-67200000D01*
X93100000Y-36600000D02*
X91500000Y-35000000D01*
X70500000Y-72475000D02*
X70525000Y-72450000D01*
%TO.N,/IO2*%
X74044808Y-68300000D02*
X87800000Y-68300000D01*
X87800000Y-68300000D02*
X101700000Y-54400000D01*
X72450000Y-69125000D02*
X73219808Y-69125000D01*
X73219808Y-69125000D02*
X74044808Y-68300000D01*
X101700000Y-54400000D02*
X101700000Y-39900000D01*
%TO.N,/IO4*%
X81100000Y-63500000D02*
X77700000Y-66900000D01*
X74387500Y-66900000D02*
X72862500Y-68425000D01*
X77700000Y-66900000D02*
X74387500Y-66900000D01*
X72862500Y-68425000D02*
X72450000Y-68425000D01*
%TO.N,/IO5*%
X68500000Y-60800000D02*
X69100000Y-60200000D01*
X69100000Y-60200000D02*
X69100000Y-58100000D01*
X68371500Y-60928500D02*
X68500000Y-60800000D01*
X68371500Y-65710318D02*
X68371500Y-60928500D01*
X69125000Y-66463817D02*
X68730591Y-66069409D01*
X69125000Y-67550000D02*
X69125000Y-66463817D01*
X68730591Y-66069409D02*
X68371500Y-65710318D01*
%TO.N,/IO18*%
X67600000Y-60300000D02*
X68300000Y-59600000D01*
X68300000Y-59600000D02*
X68400000Y-59600000D01*
X68775000Y-66491413D02*
X67600000Y-65316414D01*
X67600000Y-65316414D02*
X67600000Y-60300000D01*
X68775000Y-67550000D02*
X68775000Y-66491413D01*
%TO.N,/IO19*%
X66000000Y-59900000D02*
X66000000Y-65825000D01*
X66050000Y-59850000D02*
X66000000Y-59900000D01*
X66000000Y-65825000D02*
X67725000Y-67550000D01*
%TO.N,/IO21*%
X66175000Y-69475000D02*
X60700000Y-64000000D01*
X55540000Y-58240000D02*
X24940000Y-58240000D01*
X60700000Y-64000000D02*
X60700000Y-63400000D01*
X67550000Y-69475000D02*
X66175000Y-69475000D01*
X60700000Y-63400000D02*
X55540000Y-58240000D01*
X22400000Y-58240000D02*
X24940000Y-58240000D01*
%TO.N,/IO22*%
X48780000Y-60780000D02*
X55600000Y-67600000D01*
X22400000Y-60780000D02*
X24940000Y-60780000D01*
X66925000Y-68425000D02*
X67550000Y-68425000D01*
X66100000Y-67600000D02*
X66925000Y-68425000D01*
X24940000Y-60780000D02*
X48780000Y-60780000D01*
%TO.N,/IO23*%
X67300000Y-65394009D02*
X67300000Y-60000000D01*
X68425000Y-66519009D02*
X67300000Y-65394009D01*
X68425000Y-67550000D02*
X68425000Y-66519009D01*
X67300000Y-60000000D02*
X67000000Y-59700000D01*
%TO.N,/IO25*%
X72275000Y-72450000D02*
X72275000Y-73925000D01*
X72275000Y-73925000D02*
X72200000Y-74000000D01*
%TO.N,/IO26*%
X76700000Y-73100000D02*
X85700000Y-73100000D01*
X48700000Y-84400000D02*
X32800000Y-68500000D01*
X72450000Y-71575000D02*
X75175000Y-71575000D01*
X22400000Y-68400000D02*
X24940000Y-68400000D01*
X85700000Y-73100000D02*
X85700000Y-80900000D01*
X85700000Y-80900000D02*
X82200000Y-84400000D01*
X82200000Y-84400000D02*
X48700000Y-84400000D01*
X76500000Y-72900000D02*
X76700000Y-73100000D01*
X75175000Y-71575000D02*
X76500000Y-72900000D01*
%TO.N,/IO27*%
X86700000Y-72500000D02*
X86571500Y-72628500D01*
X77228500Y-72628500D02*
X75825000Y-71225000D01*
X75825000Y-71225000D02*
X72450000Y-71225000D01*
X86571500Y-72628500D02*
X77228500Y-72628500D01*
%TO.N,/IO14*%
X51500000Y-90900000D02*
X34080000Y-73480000D01*
X88400000Y-71800000D02*
X88400000Y-85300000D01*
X88400000Y-85300000D02*
X82800000Y-90900000D01*
X81000000Y-71800000D02*
X88400000Y-71800000D01*
X34080000Y-73480000D02*
X24940000Y-73480000D01*
X82800000Y-90900000D02*
X51500000Y-90900000D01*
X80075000Y-70875000D02*
X81000000Y-71800000D01*
X72450000Y-70875000D02*
X80075000Y-70875000D01*
%TO.N,/IO12*%
X81022509Y-70628500D02*
X80919009Y-70525000D01*
X80919009Y-70525000D02*
X72450000Y-70525000D01*
X88771500Y-70628500D02*
X81022509Y-70628500D01*
X88900000Y-70500000D02*
X88771500Y-70628500D01*
%TO.N,/IO15*%
X73247404Y-69475000D02*
X74022404Y-68700000D01*
X74022404Y-68700000D02*
X91000000Y-68700000D01*
X91000000Y-68700000D02*
X91900000Y-67800000D01*
X72450000Y-69475000D02*
X73247404Y-69475000D01*
%TO.N,VBUS*%
X49550000Y-33500000D02*
X46600000Y-33500000D01*
X62900000Y-23500000D02*
X62900000Y-24287500D01*
D37*
X66200000Y-25900000D02*
X64587500Y-24287500D01*
D36*
X46600000Y-33500000D02*
X45600000Y-32500000D01*
X61400000Y-22000000D02*
X62900000Y-23500000D01*
X45600000Y-25700000D02*
X49300000Y-22000000D01*
X49300000Y-22000000D02*
X61400000Y-22000000D01*
D37*
X68000000Y-25900000D02*
X66200000Y-25900000D01*
D36*
X45600000Y-32500000D02*
X45600000Y-25700000D01*
D37*
X64587500Y-24287500D02*
X62900000Y-24287500D01*
D38*
%TO.N,Net-(J2-Pad2)*%
X70150000Y-27150000D02*
X70150000Y-29662500D01*
X69600000Y-26600000D02*
X70150000Y-27150000D01*
%TO.N,Net-(J2-Pad3)*%
X70650000Y-29662500D02*
X70650000Y-26437926D01*
X70650000Y-26437926D02*
X70569659Y-26357585D01*
D36*
%TO.N,Net-(Q1-Pad1)*%
X88850000Y-34050000D02*
X87662500Y-34050000D01*
X90500000Y-32400000D02*
X88850000Y-34050000D01*
%TO.N,/RTS*%
X72337500Y-32850000D02*
X73450000Y-32850000D01*
X73450000Y-32850000D02*
X73600000Y-33000000D01*
X83200000Y-33600000D02*
X82600000Y-33000000D01*
X84800000Y-33600000D02*
X83200000Y-33600000D01*
X84800000Y-33600000D02*
X84800000Y-34800000D01*
X85950000Y-35950000D02*
X87662500Y-35950000D01*
X82600000Y-33000000D02*
X82600000Y-32112500D01*
X84800000Y-34800000D02*
X85950000Y-35950000D01*
%TO.N,Net-(Q2-Pad1)*%
X82600000Y-29600000D02*
X83650000Y-28550000D01*
X83650000Y-28550000D02*
X86462500Y-28550000D01*
X82600000Y-30287500D02*
X82600000Y-29600000D01*
%TO.N,/DTR*%
X86462500Y-30450000D02*
X90375000Y-30450000D01*
X90375000Y-30450000D02*
X90500000Y-30575000D01*
X84100000Y-30600000D02*
X86312500Y-30600000D01*
X73550000Y-30850000D02*
X73600000Y-30900000D01*
X86312500Y-30600000D02*
X86462500Y-30450000D01*
X72337500Y-30850000D02*
X73550000Y-30850000D01*
%TO.N,/IO0*%
X73025000Y-68775000D02*
X73800000Y-68000000D01*
X72450000Y-68775000D02*
X73025000Y-68775000D01*
X91400000Y-29500000D02*
X88337500Y-29500000D01*
X73800000Y-68000000D02*
X80200000Y-68000000D01*
X95600000Y-52600000D02*
X95600000Y-33700000D01*
X95600000Y-33700000D02*
X91400000Y-29500000D01*
X80200000Y-68000000D02*
X95600000Y-52600000D01*
%TO.N,Net-(C3-Pad1)*%
X76400000Y-75600000D02*
X80350000Y-75600000D01*
X74487500Y-75600000D02*
X76400000Y-75600000D01*
X76400000Y-77625000D02*
X76400000Y-75600000D01*
%TO.N,Net-(U2-Pad45)*%
X66475000Y-70525000D02*
X66000000Y-71000000D01*
X65600000Y-72400000D02*
X64612500Y-72400000D01*
X67550000Y-70525000D02*
X66475000Y-70525000D01*
X66000000Y-72000000D02*
X65600000Y-72400000D01*
X66000000Y-71000000D02*
X66000000Y-72000000D01*
%TO.N,/FLASH_CS*%
X83312500Y-52000000D02*
X80405000Y-52000000D01*
X70525000Y-67550000D02*
X70500000Y-67525000D01*
X70500000Y-67525000D02*
X70500000Y-65700000D01*
X70500000Y-65700000D02*
X70400000Y-65600000D01*
X80300000Y-51895000D02*
X80405000Y-52000000D01*
X80300000Y-49700000D02*
X80300000Y-51895000D01*
X83400000Y-51912500D02*
X83312500Y-52000000D01*
%TO.N,Net-(C5-Pad1)*%
X71400000Y-77625000D02*
X71400000Y-76200000D01*
X70800000Y-75600000D02*
X72912500Y-75600000D01*
X71400000Y-76200000D02*
X70800000Y-75600000D01*
X68075000Y-72450000D02*
X68075000Y-74975000D01*
X68700000Y-75600000D02*
X70800000Y-75600000D01*
X68075000Y-74975000D02*
X68700000Y-75600000D01*
%TO.N,/FLASH_IO2*%
X71225000Y-61275000D02*
X77865000Y-54635000D01*
X71225000Y-67550000D02*
X71225000Y-61275000D01*
X77865000Y-54635000D02*
X77865000Y-52000000D01*
%TO.N,/FLASH_IO3*%
X78600000Y-61100000D02*
X79135000Y-60565000D01*
X70600000Y-64800000D02*
X70875000Y-65075000D01*
X79135000Y-60565000D02*
X79135000Y-59200000D01*
X70875000Y-65075000D02*
X70875000Y-67550000D01*
%TO.N,/FLASH_CLK*%
X77865000Y-59200000D02*
X77865000Y-59222853D01*
X70175000Y-66375000D02*
X70175000Y-67550000D01*
X70100000Y-64300000D02*
X69900000Y-64500000D01*
X69900000Y-64500000D02*
X69900000Y-66100000D01*
X77865000Y-59222853D02*
X72987853Y-64100000D01*
X69900000Y-66100000D02*
X70175000Y-66375000D01*
X72987853Y-64100000D02*
X71800000Y-64100000D01*
%TO.N,/FLASH_IO1*%
X79200000Y-51912147D02*
X79200000Y-49400000D01*
X69825000Y-66402596D02*
X69825000Y-67550000D01*
X69633000Y-66210596D02*
X69825000Y-66402596D01*
X79135000Y-52000000D02*
X79135000Y-51977147D01*
X79135000Y-51977147D02*
X79200000Y-51912147D01*
X79200000Y-49400000D02*
X77900000Y-48100000D01*
X75900000Y-48100000D02*
X69633000Y-54367000D01*
X77900000Y-48100000D02*
X75900000Y-48100000D01*
X69633000Y-54367000D02*
X69633000Y-66210596D01*
%TO.N,/FLASH_IO0*%
X69000000Y-64500000D02*
X69366000Y-64866000D01*
X69000000Y-63700000D02*
X69000000Y-64500000D01*
X69475000Y-66430192D02*
X69475000Y-67550000D01*
X75000000Y-59200000D02*
X76595000Y-59200000D01*
X69366000Y-66321191D02*
X69475000Y-66430192D01*
X69366000Y-64866000D02*
X69366000Y-66321191D01*
%TO.N,/RXD*%
X79900000Y-43400000D02*
X63100000Y-60200000D01*
X63100000Y-60200000D02*
X63100000Y-65400000D01*
X63100000Y-65400000D02*
X66475000Y-68775000D01*
X66475000Y-68775000D02*
X67550000Y-68775000D01*
X78037500Y-33075000D02*
X78675000Y-33075000D01*
X79900000Y-34300000D02*
X79900000Y-43400000D01*
X78675000Y-33075000D02*
X79900000Y-34300000D01*
%TO.N,/TXD*%
X62500000Y-65200000D02*
X62500000Y-59500000D01*
X62500000Y-59500000D02*
X79000000Y-43000000D01*
X80500000Y-30100000D02*
X79800000Y-29400000D01*
X66425000Y-69125000D02*
X62500000Y-65200000D01*
X80500000Y-43000000D02*
X80500000Y-30100000D01*
X79800000Y-29400000D02*
X78112500Y-29400000D01*
X67550000Y-69125000D02*
X66425000Y-69125000D01*
D37*
%TO.N,Net-(U4-Pad8)*%
X58300000Y-26112500D02*
X62900000Y-26112500D01*
X66050000Y-30850000D02*
X68462500Y-30850000D01*
X62900000Y-27700000D02*
X66050000Y-30850000D01*
X62900000Y-26112500D02*
X62900000Y-27700000D01*
D36*
%TO.N,Net-(U4-Pad21)*%
X72337500Y-31850000D02*
X73950000Y-31850000D01*
X74300000Y-30000000D02*
X74900000Y-29400000D01*
X73950000Y-31850000D02*
X74300000Y-31500000D01*
X74300000Y-31500000D02*
X74300000Y-30000000D01*
X74900000Y-29400000D02*
X76287500Y-29400000D01*
%TO.N,Net-(U4-Pad20)*%
X73725000Y-32350000D02*
X74450000Y-33075000D01*
X72337500Y-32350000D02*
X73725000Y-32350000D01*
X74450000Y-33075000D02*
X76212500Y-33075000D01*
%TO.N,/IO13*%
X72450000Y-69825000D02*
X73275000Y-69825000D01*
X96000000Y-87000000D02*
X85100000Y-97900000D01*
X54400000Y-97900000D02*
X35060000Y-78560000D01*
X91500000Y-69100000D02*
X96000000Y-73600000D01*
X96000000Y-73600000D02*
X96000000Y-87000000D01*
X73275000Y-69825000D02*
X74000000Y-69100000D01*
X85100000Y-97900000D02*
X54400000Y-97900000D01*
X74000000Y-69100000D02*
X91500000Y-69100000D01*
X35060000Y-78560000D02*
X24940000Y-78560000D01*
%TD*%
%TA.AperFunction,Conductor*%
%TO.N,GND*%
G36*
X65385172Y-20528502D02*
G01*
X65431665Y-20582158D01*
X65441769Y-20652432D01*
X65437153Y-20672599D01*
X65411547Y-20753318D01*
X65408998Y-20765309D01*
X65392393Y-20913350D01*
X65392000Y-20920374D01*
X65392000Y-21127885D01*
X65396475Y-21143124D01*
X65397865Y-21144329D01*
X65405548Y-21146000D01*
X67439885Y-21146000D01*
X67455124Y-21141525D01*
X67456329Y-21140135D01*
X67458000Y-21132452D01*
X67458000Y-20927110D01*
X67457700Y-20920965D01*
X67443830Y-20779519D01*
X67441446Y-20767478D01*
X67412293Y-20670917D01*
X67411752Y-20599923D01*
X67449680Y-20539906D01*
X67514035Y-20509923D01*
X67532915Y-20508500D01*
X72467051Y-20508500D01*
X72535172Y-20528502D01*
X72581665Y-20582158D01*
X72591769Y-20652432D01*
X72587153Y-20672599D01*
X72561547Y-20753318D01*
X72558998Y-20765309D01*
X72542393Y-20913350D01*
X72542000Y-20920374D01*
X72542000Y-21127885D01*
X72546475Y-21143124D01*
X72547865Y-21144329D01*
X72555548Y-21146000D01*
X74589885Y-21146000D01*
X74605124Y-21141525D01*
X74606329Y-21140135D01*
X74608000Y-21132452D01*
X74608000Y-20927110D01*
X74607700Y-20920965D01*
X74593830Y-20779519D01*
X74591446Y-20767478D01*
X74562293Y-20670917D01*
X74561752Y-20599923D01*
X74599680Y-20539906D01*
X74664035Y-20509923D01*
X74682915Y-20508500D01*
X119365500Y-20508500D01*
X119433621Y-20528502D01*
X119480114Y-20582158D01*
X119491500Y-20634500D01*
X119491500Y-119365500D01*
X119471498Y-119433621D01*
X119417842Y-119480114D01*
X119365500Y-119491500D01*
X20634500Y-119491500D01*
X20566379Y-119471498D01*
X20519886Y-119417842D01*
X20508500Y-119365500D01*
X20508500Y-91527966D01*
X21068257Y-91527966D01*
X21098565Y-91662446D01*
X21101645Y-91672275D01*
X21181770Y-91869603D01*
X21186413Y-91878794D01*
X21297694Y-92060388D01*
X21303777Y-92068699D01*
X21443213Y-92229667D01*
X21450580Y-92236883D01*
X21614434Y-92372916D01*
X21622881Y-92378831D01*
X21806756Y-92486279D01*
X21816042Y-92490729D01*
X22015001Y-92566703D01*
X22024899Y-92569579D01*
X22128250Y-92590606D01*
X22142299Y-92589410D01*
X22146000Y-92579065D01*
X22146000Y-92578517D01*
X22654000Y-92578517D01*
X22658064Y-92592359D01*
X22671478Y-92594393D01*
X22678184Y-92593534D01*
X22688262Y-92591392D01*
X22892255Y-92530191D01*
X22901842Y-92526433D01*
X23093095Y-92432739D01*
X23101945Y-92427464D01*
X23275328Y-92303792D01*
X23283200Y-92297139D01*
X23434052Y-92146812D01*
X23440730Y-92138965D01*
X23568022Y-91961819D01*
X23569147Y-91962627D01*
X23616669Y-91918876D01*
X23686607Y-91906661D01*
X23752046Y-91934197D01*
X23779870Y-91966028D01*
X23837690Y-92060383D01*
X23843777Y-92068699D01*
X23983213Y-92229667D01*
X23990580Y-92236883D01*
X24154434Y-92372916D01*
X24162881Y-92378831D01*
X24346756Y-92486279D01*
X24356042Y-92490729D01*
X24555001Y-92566703D01*
X24564899Y-92569579D01*
X24668250Y-92590606D01*
X24682299Y-92589410D01*
X24686000Y-92579065D01*
X24686000Y-92578517D01*
X25194000Y-92578517D01*
X25198064Y-92592359D01*
X25211478Y-92594393D01*
X25218184Y-92593534D01*
X25228262Y-92591392D01*
X25432255Y-92530191D01*
X25441842Y-92526433D01*
X25633095Y-92432739D01*
X25641945Y-92427464D01*
X25815328Y-92303792D01*
X25823200Y-92297139D01*
X25974052Y-92146812D01*
X25980730Y-92138965D01*
X26105003Y-91966020D01*
X26110313Y-91957183D01*
X26204670Y-91766267D01*
X26208469Y-91756672D01*
X26270377Y-91552910D01*
X26272555Y-91542837D01*
X26273986Y-91531962D01*
X26271775Y-91517778D01*
X26258617Y-91514000D01*
X25212115Y-91514000D01*
X25196876Y-91518475D01*
X25195671Y-91519865D01*
X25194000Y-91527548D01*
X25194000Y-92578517D01*
X24686000Y-92578517D01*
X24686000Y-91532115D01*
X24681525Y-91516876D01*
X24680135Y-91515671D01*
X24672452Y-91514000D01*
X22672115Y-91514000D01*
X22656876Y-91518475D01*
X22655671Y-91519865D01*
X22654000Y-91527548D01*
X22654000Y-92578517D01*
X22146000Y-92578517D01*
X22146000Y-91532115D01*
X22141525Y-91516876D01*
X22140135Y-91515671D01*
X22132452Y-91514000D01*
X21083225Y-91514000D01*
X21069694Y-91517973D01*
X21068257Y-91527966D01*
X20508500Y-91527966D01*
X20508500Y-88686695D01*
X21037251Y-88686695D01*
X21037548Y-88691848D01*
X21037548Y-88691851D01*
X21043011Y-88786590D01*
X21050110Y-88909715D01*
X21051247Y-88914761D01*
X21051248Y-88914767D01*
X21071119Y-89002939D01*
X21099222Y-89127639D01*
X21183266Y-89334616D01*
X21234019Y-89417438D01*
X21297291Y-89520688D01*
X21299987Y-89525088D01*
X21446250Y-89693938D01*
X21618126Y-89836632D01*
X21691955Y-89879774D01*
X21740679Y-89931412D01*
X21753750Y-90001195D01*
X21727019Y-90066967D01*
X21686562Y-90100327D01*
X21678457Y-90104546D01*
X21669738Y-90110036D01*
X21499433Y-90237905D01*
X21491726Y-90244748D01*
X21344590Y-90398717D01*
X21338104Y-90406727D01*
X21218098Y-90582649D01*
X21213000Y-90591623D01*
X21123338Y-90784783D01*
X21119775Y-90794470D01*
X21064389Y-90994183D01*
X21065912Y-91002607D01*
X21078292Y-91006000D01*
X26258344Y-91006000D01*
X26271875Y-91002027D01*
X26273180Y-90992947D01*
X26231214Y-90825875D01*
X26227894Y-90816124D01*
X26142972Y-90620814D01*
X26138105Y-90611739D01*
X26022426Y-90432926D01*
X26016136Y-90424757D01*
X25872806Y-90267240D01*
X25865273Y-90260215D01*
X25698139Y-90128222D01*
X25689556Y-90122520D01*
X25652602Y-90102120D01*
X25602631Y-90051687D01*
X25587859Y-89982245D01*
X25612975Y-89915839D01*
X25640327Y-89889232D01*
X25663797Y-89872491D01*
X25819860Y-89761173D01*
X25978096Y-89603489D01*
X26037594Y-89520689D01*
X26105435Y-89426277D01*
X26108453Y-89422077D01*
X26129320Y-89379857D01*
X26205136Y-89226453D01*
X26205137Y-89226451D01*
X26207430Y-89221811D01*
X26272370Y-89008069D01*
X26301529Y-88786590D01*
X26303156Y-88720000D01*
X26284852Y-88497361D01*
X26230431Y-88280702D01*
X26141354Y-88075840D01*
X26020014Y-87888277D01*
X25869670Y-87723051D01*
X25865619Y-87719852D01*
X25865615Y-87719848D01*
X25698414Y-87587800D01*
X25698410Y-87587798D01*
X25694359Y-87584598D01*
X25653053Y-87561796D01*
X25603084Y-87511364D01*
X25588312Y-87441921D01*
X25613428Y-87375516D01*
X25640780Y-87348909D01*
X25684603Y-87317650D01*
X25819860Y-87221173D01*
X25978096Y-87063489D01*
X26037594Y-86980689D01*
X26105435Y-86886277D01*
X26108453Y-86882077D01*
X26129320Y-86839857D01*
X26205136Y-86686453D01*
X26205137Y-86686451D01*
X26207430Y-86681811D01*
X26272370Y-86468069D01*
X26301529Y-86246590D01*
X26303156Y-86180000D01*
X26284852Y-85957361D01*
X26230431Y-85740702D01*
X26141354Y-85535840D01*
X26020014Y-85348277D01*
X25869670Y-85183051D01*
X25865619Y-85179852D01*
X25865615Y-85179848D01*
X25698414Y-85047800D01*
X25698410Y-85047798D01*
X25694359Y-85044598D01*
X25653053Y-85021796D01*
X25603084Y-84971364D01*
X25588312Y-84901921D01*
X25613428Y-84835516D01*
X25640780Y-84808909D01*
X25687738Y-84775414D01*
X25819860Y-84681173D01*
X25978096Y-84523489D01*
X26037594Y-84440689D01*
X26105435Y-84346277D01*
X26108453Y-84342077D01*
X26129320Y-84299857D01*
X26205136Y-84146453D01*
X26205137Y-84146451D01*
X26207430Y-84141811D01*
X26272370Y-83928069D01*
X26301529Y-83706590D01*
X26303156Y-83640000D01*
X26284852Y-83417361D01*
X26230431Y-83200702D01*
X26141354Y-82995840D01*
X26020014Y-82808277D01*
X25869670Y-82643051D01*
X25865619Y-82639852D01*
X25865615Y-82639848D01*
X25698414Y-82507800D01*
X25698410Y-82507798D01*
X25694359Y-82504598D01*
X25653053Y-82481796D01*
X25603084Y-82431364D01*
X25588312Y-82361921D01*
X25613428Y-82295516D01*
X25640780Y-82268909D01*
X25684603Y-82237650D01*
X25819860Y-82141173D01*
X25978096Y-81983489D01*
X26037594Y-81900689D01*
X26105435Y-81806277D01*
X26108453Y-81802077D01*
X26129320Y-81759857D01*
X26205136Y-81606453D01*
X26205137Y-81606451D01*
X26207430Y-81601811D01*
X26272370Y-81388069D01*
X26301529Y-81166590D01*
X26303156Y-81100000D01*
X26284852Y-80877361D01*
X26230431Y-80660702D01*
X26141354Y-80455840D01*
X26020014Y-80268277D01*
X25869670Y-80103051D01*
X25865619Y-80099852D01*
X25865615Y-80099848D01*
X25698414Y-79967800D01*
X25698410Y-79967798D01*
X25694359Y-79964598D01*
X25653053Y-79941796D01*
X25603084Y-79891364D01*
X25588312Y-79821921D01*
X25613428Y-79755516D01*
X25640780Y-79728909D01*
X25684603Y-79697650D01*
X25819860Y-79601173D01*
X25865005Y-79556186D01*
X25969602Y-79451953D01*
X25978096Y-79443489D01*
X26037594Y-79360689D01*
X26105435Y-79266277D01*
X26108453Y-79262077D01*
X26135589Y-79207172D01*
X26183701Y-79154966D01*
X26248545Y-79137000D01*
X34768809Y-79137000D01*
X34836930Y-79157002D01*
X34857904Y-79173905D01*
X53959417Y-98275418D01*
X53970280Y-98287804D01*
X53988479Y-98311521D01*
X54018741Y-98334742D01*
X54018742Y-98334743D01*
X54109010Y-98404009D01*
X54167150Y-98428091D01*
X54249373Y-98462149D01*
X54302850Y-98469189D01*
X54362169Y-98476999D01*
X54362178Y-98477000D01*
X54362181Y-98477000D01*
X54362193Y-98477001D01*
X54391810Y-98480900D01*
X54391811Y-98480900D01*
X54400000Y-98481978D01*
X54429626Y-98478078D01*
X54446070Y-98477000D01*
X85053923Y-98477000D01*
X85070370Y-98478078D01*
X85100000Y-98481979D01*
X85137818Y-98477000D01*
X85137823Y-98477000D01*
X85242439Y-98463227D01*
X85250627Y-98462149D01*
X85332850Y-98428091D01*
X85390990Y-98404009D01*
X85481258Y-98334743D01*
X85481259Y-98334742D01*
X85511521Y-98311521D01*
X85529720Y-98287804D01*
X85540587Y-98275414D01*
X96375422Y-87440580D01*
X96387805Y-87429719D01*
X96411521Y-87411521D01*
X96416549Y-87404969D01*
X96434729Y-87381277D01*
X96434744Y-87381258D01*
X96439150Y-87375516D01*
X96504009Y-87290990D01*
X96562149Y-87150628D01*
X96581979Y-87000000D01*
X96578078Y-86970368D01*
X96577000Y-86953922D01*
X96577000Y-73646077D01*
X96578078Y-73629630D01*
X96580901Y-73608188D01*
X96581979Y-73600000D01*
X96575722Y-73552474D01*
X96562149Y-73449373D01*
X96526311Y-73362852D01*
X96524508Y-73358500D01*
X96507169Y-73316638D01*
X96507168Y-73316636D01*
X96504009Y-73309010D01*
X96434743Y-73218742D01*
X96434742Y-73218741D01*
X96411521Y-73188479D01*
X96387804Y-73170280D01*
X96375414Y-73159413D01*
X91982126Y-68766125D01*
X91948100Y-68703813D01*
X91953165Y-68632998D01*
X91995712Y-68576162D01*
X92045884Y-68553604D01*
X92047481Y-68553276D01*
X92054494Y-68552638D01*
X92061189Y-68550463D01*
X92061192Y-68550462D01*
X92210702Y-68501883D01*
X92210705Y-68501882D01*
X92217401Y-68499706D01*
X92223633Y-68495991D01*
X92358480Y-68415607D01*
X92358482Y-68415606D01*
X92364532Y-68411999D01*
X92488576Y-68293874D01*
X92567780Y-68174662D01*
X92579465Y-68157075D01*
X92579466Y-68157073D01*
X92583366Y-68151203D01*
X92644192Y-67991076D01*
X92668031Y-67821453D01*
X92668199Y-67809429D01*
X92668276Y-67803961D01*
X92668276Y-67803955D01*
X92668331Y-67800000D01*
X92649237Y-67629777D01*
X92637497Y-67596063D01*
X92595221Y-67474662D01*
X92595220Y-67474660D01*
X92592906Y-67468015D01*
X92502136Y-67322753D01*
X92381439Y-67201210D01*
X92305224Y-67152843D01*
X92242757Y-67113200D01*
X92242754Y-67113198D01*
X92236814Y-67109429D01*
X92217420Y-67102523D01*
X92082083Y-67054331D01*
X92082081Y-67054330D01*
X92075449Y-67051969D01*
X92068463Y-67051136D01*
X92068459Y-67051135D01*
X91948217Y-67036798D01*
X91905364Y-67031688D01*
X91898361Y-67032424D01*
X91898360Y-67032424D01*
X91856591Y-67036814D01*
X91735012Y-67049592D01*
X91728344Y-67051862D01*
X91579528Y-67102523D01*
X91579525Y-67102524D01*
X91572861Y-67104793D01*
X91426968Y-67194547D01*
X91421937Y-67199473D01*
X91421934Y-67199476D01*
X91415060Y-67206208D01*
X91304586Y-67314392D01*
X91211797Y-67458373D01*
X91209388Y-67464993D01*
X91209387Y-67464994D01*
X91173185Y-67564457D01*
X91153212Y-67619333D01*
X91143394Y-67697054D01*
X91142503Y-67704104D01*
X91114121Y-67769181D01*
X91106592Y-67777407D01*
X90797904Y-68086095D01*
X90735592Y-68120121D01*
X90708809Y-68123000D01*
X89097191Y-68123000D01*
X89029070Y-68102998D01*
X88982577Y-68049342D01*
X88972473Y-67979068D01*
X89001967Y-67914488D01*
X89008096Y-67907905D01*
X102075418Y-54840583D01*
X102087809Y-54829716D01*
X102104971Y-54816547D01*
X102111521Y-54811521D01*
X102136843Y-54778521D01*
X102204009Y-54690990D01*
X102256362Y-54564598D01*
X102258989Y-54558257D01*
X102262149Y-54550628D01*
X102281979Y-54400000D01*
X102278078Y-54370367D01*
X102277000Y-54353922D01*
X102277000Y-40449338D01*
X102298052Y-40379611D01*
X102305240Y-40368793D01*
X102383366Y-40251203D01*
X102444192Y-40091076D01*
X102468031Y-39921453D01*
X102468331Y-39900000D01*
X102449237Y-39729777D01*
X102392906Y-39568015D01*
X102302136Y-39422753D01*
X102181439Y-39301210D01*
X102116049Y-39259712D01*
X102042757Y-39213200D01*
X102042754Y-39213198D01*
X102036814Y-39209429D01*
X102017420Y-39202523D01*
X101882083Y-39154331D01*
X101882081Y-39154330D01*
X101875449Y-39151969D01*
X101868463Y-39151136D01*
X101868459Y-39151135D01*
X101748217Y-39136798D01*
X101705364Y-39131688D01*
X101698361Y-39132424D01*
X101698360Y-39132424D01*
X101656591Y-39136814D01*
X101535012Y-39149592D01*
X101528344Y-39151862D01*
X101379528Y-39202523D01*
X101379525Y-39202524D01*
X101372861Y-39204793D01*
X101226968Y-39294547D01*
X101221937Y-39299473D01*
X101221934Y-39299476D01*
X101215060Y-39306208D01*
X101104586Y-39414392D01*
X101011797Y-39558373D01*
X101009388Y-39564993D01*
X101009387Y-39564994D01*
X101005868Y-39574662D01*
X100953212Y-39719333D01*
X100931744Y-39889272D01*
X100948459Y-40059745D01*
X101002526Y-40222278D01*
X101091259Y-40368793D01*
X101096151Y-40373859D01*
X101096828Y-40374738D01*
X101122545Y-40440914D01*
X101123000Y-40451617D01*
X101123000Y-54108809D01*
X101102998Y-54176930D01*
X101086095Y-54197904D01*
X92044213Y-63239786D01*
X91981901Y-63273812D01*
X91911086Y-63268747D01*
X91854250Y-63226200D01*
X91836126Y-63192128D01*
X91795221Y-63074662D01*
X91795220Y-63074660D01*
X91792906Y-63068015D01*
X91762111Y-63018732D01*
X91705869Y-62928727D01*
X91702136Y-62922753D01*
X91581439Y-62801210D01*
X91493666Y-62745508D01*
X91442757Y-62713200D01*
X91442754Y-62713198D01*
X91436814Y-62709429D01*
X91409509Y-62699706D01*
X91282083Y-62654331D01*
X91282081Y-62654330D01*
X91275449Y-62651969D01*
X91268463Y-62651136D01*
X91268459Y-62651135D01*
X91148217Y-62636798D01*
X91105364Y-62631688D01*
X91098361Y-62632424D01*
X91098360Y-62632424D01*
X91056591Y-62636814D01*
X90935012Y-62649592D01*
X90928344Y-62651862D01*
X90779528Y-62702523D01*
X90779525Y-62702524D01*
X90772861Y-62704793D01*
X90626968Y-62794547D01*
X90621937Y-62799473D01*
X90621934Y-62799476D01*
X90575845Y-62844610D01*
X90504586Y-62914392D01*
X90411797Y-63058373D01*
X90409388Y-63064993D01*
X90409387Y-63064994D01*
X90372990Y-63164994D01*
X90353212Y-63219333D01*
X90331744Y-63389272D01*
X90348459Y-63559745D01*
X90402526Y-63722278D01*
X90491259Y-63868793D01*
X90610247Y-63992009D01*
X90753577Y-64085801D01*
X90893716Y-64137918D01*
X90950590Y-64180410D01*
X90975464Y-64246906D01*
X90960439Y-64316295D01*
X90938889Y-64345110D01*
X87597904Y-67686095D01*
X87535592Y-67720121D01*
X87508809Y-67723000D01*
X81597191Y-67723000D01*
X81529070Y-67702998D01*
X81482577Y-67649342D01*
X81472473Y-67579068D01*
X81501967Y-67514488D01*
X81508096Y-67507905D01*
X95975418Y-53040583D01*
X95987809Y-53029716D01*
X96004971Y-53016547D01*
X96011521Y-53011521D01*
X96061291Y-52946660D01*
X96079810Y-52922526D01*
X96098981Y-52897543D01*
X96098982Y-52897541D01*
X96104009Y-52890990D01*
X96162149Y-52750628D01*
X96181979Y-52600000D01*
X96178078Y-52570368D01*
X96177000Y-52553922D01*
X96177000Y-33746078D01*
X96178078Y-33729632D01*
X96180901Y-33708188D01*
X96181979Y-33700000D01*
X96162149Y-33549372D01*
X96134864Y-33483500D01*
X96107169Y-33416638D01*
X96107168Y-33416636D01*
X96104009Y-33409010D01*
X96034743Y-33318742D01*
X96034742Y-33318741D01*
X96011521Y-33288479D01*
X95987804Y-33270280D01*
X95975414Y-33259413D01*
X91840583Y-29124582D01*
X91829716Y-29112191D01*
X91816550Y-29095032D01*
X91816547Y-29095029D01*
X91811521Y-29088479D01*
X91781258Y-29065257D01*
X91719653Y-29017985D01*
X91697540Y-29001017D01*
X91690990Y-28995991D01*
X91632850Y-28971909D01*
X91550627Y-28937851D01*
X91493878Y-28930380D01*
X91437823Y-28923000D01*
X91437818Y-28923000D01*
X91400000Y-28918021D01*
X91391812Y-28919099D01*
X91370368Y-28921922D01*
X91353922Y-28923000D01*
X89481450Y-28923000D01*
X89413329Y-28902998D01*
X89392355Y-28886095D01*
X89331807Y-28825547D01*
X89324983Y-28821511D01*
X89324980Y-28821509D01*
X89195427Y-28744892D01*
X89195428Y-28744892D01*
X89188601Y-28740855D01*
X89180990Y-28738644D01*
X89180988Y-28738643D01*
X89099083Y-28714848D01*
X89028831Y-28694438D01*
X89022426Y-28693934D01*
X89022421Y-28693933D01*
X88993958Y-28691693D01*
X88993950Y-28691693D01*
X88991502Y-28691500D01*
X87834500Y-28691500D01*
X87766379Y-28671498D01*
X87719886Y-28617842D01*
X87708500Y-28565500D01*
X87708500Y-28333498D01*
X87705562Y-28296169D01*
X87670239Y-28174586D01*
X87661357Y-28144012D01*
X87661356Y-28144010D01*
X87659145Y-28136399D01*
X87608650Y-28051017D01*
X87578491Y-28000020D01*
X87578489Y-28000017D01*
X87574453Y-27993193D01*
X87456807Y-27875547D01*
X87449983Y-27871511D01*
X87449980Y-27871509D01*
X87320427Y-27794892D01*
X87320428Y-27794892D01*
X87313601Y-27790855D01*
X87305990Y-27788644D01*
X87305988Y-27788643D01*
X87253769Y-27773472D01*
X87153831Y-27744438D01*
X87147426Y-27743934D01*
X87147421Y-27743933D01*
X87118958Y-27741693D01*
X87118950Y-27741693D01*
X87116502Y-27741500D01*
X85808498Y-27741500D01*
X85806050Y-27741693D01*
X85806042Y-27741693D01*
X85777579Y-27743933D01*
X85777574Y-27743934D01*
X85771169Y-27744438D01*
X85671231Y-27773472D01*
X85619012Y-27788643D01*
X85619010Y-27788644D01*
X85611399Y-27790855D01*
X85604572Y-27794892D01*
X85604573Y-27794892D01*
X85475020Y-27871509D01*
X85475017Y-27871511D01*
X85468193Y-27875547D01*
X85407645Y-27936095D01*
X85345333Y-27970121D01*
X85318550Y-27973000D01*
X83696070Y-27973000D01*
X83679624Y-27971922D01*
X83665944Y-27970121D01*
X83650000Y-27968022D01*
X83641811Y-27969100D01*
X83641810Y-27969100D01*
X83612193Y-27972999D01*
X83612181Y-27973000D01*
X83612178Y-27973000D01*
X83612169Y-27973001D01*
X83507561Y-27986773D01*
X83499373Y-27987851D01*
X83453443Y-28006876D01*
X83359010Y-28045991D01*
X83329361Y-28068742D01*
X83238479Y-28138479D01*
X83233456Y-28145025D01*
X83220280Y-28162196D01*
X83209413Y-28174586D01*
X82224582Y-29159417D01*
X82212191Y-29170284D01*
X82188479Y-29188479D01*
X82165258Y-29218741D01*
X82165257Y-29218742D01*
X82165250Y-29218751D01*
X82165240Y-29218763D01*
X82164129Y-29220211D01*
X82163875Y-29220397D01*
X82158536Y-29226784D01*
X82158526Y-29226795D01*
X82157005Y-29225412D01*
X82106788Y-29262074D01*
X82077177Y-29268827D01*
X82044769Y-29272189D01*
X82000693Y-29276762D01*
X82000690Y-29276763D01*
X81993834Y-29277474D01*
X81987298Y-29279655D01*
X81987296Y-29279655D01*
X81855194Y-29323728D01*
X81826054Y-29333450D01*
X81675652Y-29426522D01*
X81550695Y-29551697D01*
X81546855Y-29557927D01*
X81546854Y-29557928D01*
X81462342Y-29695032D01*
X81457885Y-29702262D01*
X81434917Y-29771509D01*
X81408230Y-29851969D01*
X81402203Y-29870139D01*
X81401503Y-29876975D01*
X81401502Y-29876978D01*
X81400367Y-29888054D01*
X81391500Y-29974600D01*
X81391500Y-30600400D01*
X81391837Y-30603646D01*
X81391837Y-30603650D01*
X81399045Y-30673115D01*
X81402474Y-30706166D01*
X81404655Y-30712702D01*
X81404655Y-30712704D01*
X81418098Y-30752998D01*
X81458450Y-30873946D01*
X81551522Y-31024348D01*
X81556704Y-31029521D01*
X81638109Y-31110784D01*
X81672188Y-31173066D01*
X81667185Y-31243886D01*
X81638264Y-31288975D01*
X81627552Y-31299706D01*
X81550695Y-31376697D01*
X81546855Y-31382927D01*
X81546854Y-31382928D01*
X81474690Y-31500000D01*
X81457885Y-31527262D01*
X81446509Y-31561561D01*
X81412813Y-31663152D01*
X81402203Y-31695139D01*
X81391500Y-31799600D01*
X81391500Y-32425400D01*
X81391837Y-32428646D01*
X81391837Y-32428650D01*
X81400455Y-32511703D01*
X81402474Y-32531166D01*
X81404655Y-32537702D01*
X81404655Y-32537704D01*
X81414559Y-32567390D01*
X81458450Y-32698946D01*
X81551522Y-32849348D01*
X81556704Y-32854521D01*
X81581294Y-32879068D01*
X81676697Y-32974305D01*
X81682927Y-32978145D01*
X81682928Y-32978146D01*
X81818252Y-33061561D01*
X81827262Y-33067115D01*
X81976599Y-33116647D01*
X82034958Y-33157077D01*
X82053337Y-33188016D01*
X82058491Y-33200457D01*
X82058494Y-33200463D01*
X82095991Y-33290990D01*
X82101017Y-33297540D01*
X82117285Y-33318741D01*
X82160875Y-33375547D01*
X82188479Y-33411521D01*
X82200393Y-33420663D01*
X82212196Y-33429720D01*
X82224586Y-33440587D01*
X82759417Y-33975418D01*
X82770284Y-33987809D01*
X82788479Y-34011521D01*
X82810444Y-34028375D01*
X82818732Y-34034735D01*
X82818742Y-34034743D01*
X82875217Y-34078078D01*
X82909010Y-34104009D01*
X82942406Y-34117842D01*
X82948041Y-34120176D01*
X83041743Y-34158989D01*
X83041746Y-34158990D01*
X83049373Y-34162149D01*
X83057561Y-34163227D01*
X83162169Y-34176999D01*
X83162178Y-34177000D01*
X83162181Y-34177000D01*
X83162193Y-34177001D01*
X83191810Y-34180900D01*
X83191811Y-34180900D01*
X83200000Y-34181978D01*
X83229626Y-34178078D01*
X83246070Y-34177000D01*
X84097000Y-34177000D01*
X84165121Y-34197002D01*
X84211614Y-34250658D01*
X84223000Y-34303000D01*
X84223000Y-34753923D01*
X84221922Y-34770370D01*
X84218021Y-34800000D01*
X84223000Y-34837818D01*
X84223000Y-34837820D01*
X84237851Y-34950627D01*
X84258302Y-35000000D01*
X84295991Y-35090990D01*
X84365257Y-35181258D01*
X84388479Y-35211521D01*
X84395025Y-35216544D01*
X84412196Y-35229720D01*
X84424586Y-35240587D01*
X85509420Y-36325422D01*
X85520281Y-36337805D01*
X85538479Y-36361521D01*
X85545029Y-36366547D01*
X85545031Y-36366549D01*
X85568723Y-36384729D01*
X85568742Y-36384744D01*
X85659010Y-36454009D01*
X85799372Y-36512149D01*
X85950000Y-36531979D01*
X85958188Y-36530901D01*
X85979632Y-36528078D01*
X85996078Y-36527000D01*
X86518550Y-36527000D01*
X86586671Y-36547002D01*
X86607645Y-36563905D01*
X86668193Y-36624453D01*
X86675017Y-36628489D01*
X86675020Y-36628491D01*
X86782589Y-36692107D01*
X86811399Y-36709145D01*
X86819010Y-36711356D01*
X86819012Y-36711357D01*
X86871231Y-36726528D01*
X86971169Y-36755562D01*
X86977574Y-36756066D01*
X86977579Y-36756067D01*
X87006042Y-36758307D01*
X87006050Y-36758307D01*
X87008498Y-36758500D01*
X88316502Y-36758500D01*
X88318950Y-36758307D01*
X88318958Y-36758307D01*
X88347421Y-36756067D01*
X88347426Y-36756066D01*
X88353831Y-36755562D01*
X88453769Y-36726528D01*
X88505988Y-36711357D01*
X88505990Y-36711356D01*
X88513601Y-36709145D01*
X88542411Y-36692107D01*
X88649980Y-36628491D01*
X88649983Y-36628489D01*
X88656807Y-36624453D01*
X88774453Y-36506807D01*
X88778489Y-36499983D01*
X88778491Y-36499980D01*
X88855108Y-36370427D01*
X88859145Y-36363601D01*
X88861652Y-36354974D01*
X88901231Y-36218737D01*
X88905562Y-36203831D01*
X88906255Y-36195034D01*
X88908307Y-36168958D01*
X88908307Y-36168950D01*
X88908500Y-36166502D01*
X88908500Y-35934500D01*
X88928502Y-35866379D01*
X88982158Y-35819886D01*
X89034500Y-35808500D01*
X90191502Y-35808500D01*
X90193950Y-35808307D01*
X90193958Y-35808307D01*
X90222421Y-35806067D01*
X90222426Y-35806066D01*
X90228831Y-35805562D01*
X90328769Y-35776528D01*
X90380988Y-35761357D01*
X90380990Y-35761356D01*
X90388601Y-35759145D01*
X90417411Y-35742107D01*
X90524980Y-35678491D01*
X90524983Y-35678489D01*
X90531807Y-35674453D01*
X90592355Y-35613905D01*
X90654667Y-35579879D01*
X90681450Y-35577000D01*
X91208809Y-35577000D01*
X91276930Y-35597002D01*
X91297904Y-35613905D01*
X92486095Y-36802097D01*
X92520121Y-36864409D01*
X92523000Y-36891192D01*
X92523000Y-53708809D01*
X92502998Y-53776930D01*
X92486095Y-53797904D01*
X87048595Y-59235404D01*
X86986283Y-59269430D01*
X86915468Y-59264365D01*
X86858632Y-59221818D01*
X86833821Y-59155298D01*
X86833500Y-59146309D01*
X86833500Y-58949600D01*
X86832818Y-58943028D01*
X86823238Y-58850692D01*
X86823237Y-58850688D01*
X86822526Y-58843834D01*
X86819568Y-58834966D01*
X86768868Y-58683002D01*
X86766550Y-58676054D01*
X86673478Y-58525652D01*
X86548303Y-58400695D01*
X86543765Y-58397898D01*
X86503176Y-58340647D01*
X86499946Y-58269724D01*
X86535572Y-58208313D01*
X86544068Y-58200938D01*
X86554207Y-58192902D01*
X86668739Y-58078171D01*
X86677751Y-58066760D01*
X86762816Y-57928757D01*
X86768963Y-57915576D01*
X86820138Y-57761290D01*
X86823005Y-57747914D01*
X86832672Y-57653562D01*
X86833000Y-57647146D01*
X86833000Y-57622115D01*
X86828525Y-57606876D01*
X86827135Y-57605671D01*
X86819452Y-57604000D01*
X81985116Y-57604000D01*
X81969877Y-57608475D01*
X81968672Y-57609865D01*
X81967001Y-57617548D01*
X81967001Y-57647095D01*
X81967338Y-57653614D01*
X81977257Y-57749206D01*
X81980149Y-57762600D01*
X82031588Y-57916784D01*
X82037761Y-57929962D01*
X82123063Y-58067807D01*
X82132099Y-58079208D01*
X82246828Y-58193738D01*
X82255762Y-58200794D01*
X82296823Y-58258712D01*
X82300053Y-58329635D01*
X82264426Y-58391046D01*
X82256593Y-58397846D01*
X82250652Y-58401522D01*
X82125695Y-58526697D01*
X82121855Y-58532927D01*
X82121854Y-58532928D01*
X82103246Y-58563116D01*
X82050474Y-58610609D01*
X81995986Y-58623000D01*
X81339500Y-58623000D01*
X81271379Y-58602998D01*
X81224886Y-58549342D01*
X81213500Y-58497000D01*
X81213500Y-58483498D01*
X81213307Y-58481042D01*
X81211067Y-58452579D01*
X81211066Y-58452574D01*
X81210562Y-58446169D01*
X81176706Y-58329635D01*
X81166357Y-58294012D01*
X81166356Y-58294010D01*
X81164145Y-58286399D01*
X81144082Y-58252474D01*
X81083491Y-58150020D01*
X81083489Y-58150017D01*
X81079453Y-58143193D01*
X80961807Y-58025547D01*
X80954983Y-58021511D01*
X80954980Y-58021509D01*
X80825427Y-57944892D01*
X80825428Y-57944892D01*
X80818601Y-57940855D01*
X80810990Y-57938644D01*
X80810988Y-57938643D01*
X80731589Y-57915576D01*
X80658831Y-57894438D01*
X80652426Y-57893934D01*
X80652421Y-57893933D01*
X80623958Y-57891693D01*
X80623950Y-57891693D01*
X80621502Y-57891500D01*
X80188498Y-57891500D01*
X80186050Y-57891693D01*
X80186042Y-57891693D01*
X80157579Y-57893933D01*
X80157574Y-57893934D01*
X80151169Y-57894438D01*
X80078411Y-57915576D01*
X79999012Y-57938643D01*
X79999010Y-57938644D01*
X79991399Y-57940855D01*
X79848193Y-58025547D01*
X79845511Y-58028229D01*
X79781139Y-58053502D01*
X79711516Y-58039600D01*
X79695688Y-58029428D01*
X79691807Y-58025547D01*
X79548601Y-57940855D01*
X79540990Y-57938644D01*
X79540988Y-57938643D01*
X79461589Y-57915576D01*
X79388831Y-57894438D01*
X79382426Y-57893934D01*
X79382421Y-57893933D01*
X79353958Y-57891693D01*
X79353950Y-57891693D01*
X79351502Y-57891500D01*
X78918498Y-57891500D01*
X78916050Y-57891693D01*
X78916042Y-57891693D01*
X78887579Y-57893933D01*
X78887574Y-57893934D01*
X78881169Y-57894438D01*
X78808411Y-57915576D01*
X78729012Y-57938643D01*
X78729010Y-57938644D01*
X78721399Y-57940855D01*
X78578193Y-58025547D01*
X78575511Y-58028229D01*
X78511139Y-58053502D01*
X78441516Y-58039600D01*
X78425688Y-58029428D01*
X78421807Y-58025547D01*
X78278601Y-57940855D01*
X78270990Y-57938644D01*
X78270988Y-57938643D01*
X78191589Y-57915576D01*
X78118831Y-57894438D01*
X78112426Y-57893934D01*
X78112421Y-57893933D01*
X78083958Y-57891693D01*
X78083950Y-57891693D01*
X78081502Y-57891500D01*
X77648498Y-57891500D01*
X77646050Y-57891693D01*
X77646042Y-57891693D01*
X77617579Y-57893933D01*
X77617574Y-57893934D01*
X77611169Y-57894438D01*
X77538411Y-57915576D01*
X77459012Y-57938643D01*
X77459010Y-57938644D01*
X77451399Y-57940855D01*
X77308193Y-58025547D01*
X77305511Y-58028229D01*
X77241139Y-58053502D01*
X77171516Y-58039600D01*
X77155688Y-58029428D01*
X77151807Y-58025547D01*
X77008601Y-57940855D01*
X77000990Y-57938644D01*
X77000988Y-57938643D01*
X76921589Y-57915576D01*
X76848831Y-57894438D01*
X76842426Y-57893934D01*
X76842421Y-57893933D01*
X76813958Y-57891693D01*
X76813950Y-57891693D01*
X76811502Y-57891500D01*
X76378498Y-57891500D01*
X76376050Y-57891693D01*
X76376042Y-57891693D01*
X76347579Y-57893933D01*
X76347574Y-57893934D01*
X76341169Y-57894438D01*
X76268411Y-57915576D01*
X76189012Y-57938643D01*
X76189010Y-57938644D01*
X76181399Y-57940855D01*
X76174572Y-57944892D01*
X76174573Y-57944892D01*
X76045020Y-58021509D01*
X76045017Y-58021511D01*
X76038193Y-58025547D01*
X75920547Y-58143193D01*
X75916511Y-58150017D01*
X75916509Y-58150020D01*
X75855918Y-58252474D01*
X75835855Y-58286399D01*
X75833644Y-58294010D01*
X75833643Y-58294012D01*
X75823294Y-58329635D01*
X75789438Y-58446169D01*
X75788934Y-58452574D01*
X75788933Y-58452579D01*
X75786693Y-58481042D01*
X75786500Y-58483498D01*
X75786500Y-58497000D01*
X75766498Y-58565121D01*
X75712842Y-58611614D01*
X75660500Y-58623000D01*
X75551659Y-58623000D01*
X75483538Y-58602998D01*
X75482402Y-58602180D01*
X75481439Y-58601210D01*
X75411288Y-58556691D01*
X75342757Y-58513200D01*
X75342754Y-58513198D01*
X75336814Y-58509429D01*
X75301910Y-58497000D01*
X75182083Y-58454331D01*
X75182081Y-58454330D01*
X75175449Y-58451969D01*
X75168462Y-58451136D01*
X75168450Y-58451133D01*
X75154870Y-58449514D01*
X75089597Y-58421587D01*
X75049785Y-58362803D01*
X75048073Y-58291827D01*
X75080695Y-58235306D01*
X76238116Y-57077885D01*
X81967000Y-57077885D01*
X81971475Y-57093124D01*
X81972865Y-57094329D01*
X81980548Y-57096000D01*
X82927885Y-57096000D01*
X82943124Y-57091525D01*
X82944329Y-57090135D01*
X82946000Y-57082452D01*
X82946000Y-57077885D01*
X83454000Y-57077885D01*
X83458475Y-57093124D01*
X83459865Y-57094329D01*
X83467548Y-57096000D01*
X85327885Y-57096000D01*
X85343124Y-57091525D01*
X85344329Y-57090135D01*
X85346000Y-57082452D01*
X85346000Y-57077885D01*
X85854000Y-57077885D01*
X85858475Y-57093124D01*
X85859865Y-57094329D01*
X85867548Y-57096000D01*
X86814884Y-57096000D01*
X86830123Y-57091525D01*
X86831328Y-57090135D01*
X86832999Y-57082452D01*
X86832999Y-57052905D01*
X86832662Y-57046386D01*
X86822743Y-56950794D01*
X86819851Y-56937400D01*
X86768412Y-56783216D01*
X86762239Y-56770038D01*
X86676937Y-56632193D01*
X86667901Y-56620792D01*
X86553171Y-56506261D01*
X86541760Y-56497249D01*
X86403757Y-56412184D01*
X86390576Y-56406037D01*
X86236290Y-56354862D01*
X86222914Y-56351995D01*
X86128562Y-56342328D01*
X86122145Y-56342000D01*
X85872115Y-56342000D01*
X85856876Y-56346475D01*
X85855671Y-56347865D01*
X85854000Y-56355548D01*
X85854000Y-57077885D01*
X85346000Y-57077885D01*
X85346000Y-56360116D01*
X85341525Y-56344877D01*
X85340135Y-56343672D01*
X85332452Y-56342001D01*
X85077905Y-56342001D01*
X85071386Y-56342338D01*
X84975794Y-56352257D01*
X84962400Y-56355149D01*
X84808216Y-56406588D01*
X84795038Y-56412761D01*
X84657193Y-56498063D01*
X84645792Y-56507099D01*
X84531261Y-56621829D01*
X84522247Y-56633243D01*
X84507205Y-56657645D01*
X84454433Y-56705138D01*
X84384361Y-56716560D01*
X84319238Y-56688286D01*
X84292801Y-56657830D01*
X84276935Y-56632190D01*
X84267901Y-56620792D01*
X84153171Y-56506261D01*
X84141760Y-56497249D01*
X84003757Y-56412184D01*
X83990576Y-56406037D01*
X83836290Y-56354862D01*
X83822914Y-56351995D01*
X83728562Y-56342328D01*
X83722145Y-56342000D01*
X83472115Y-56342000D01*
X83456876Y-56346475D01*
X83455671Y-56347865D01*
X83454000Y-56355548D01*
X83454000Y-57077885D01*
X82946000Y-57077885D01*
X82946000Y-56360116D01*
X82941525Y-56344877D01*
X82940135Y-56343672D01*
X82932452Y-56342001D01*
X82677905Y-56342001D01*
X82671386Y-56342338D01*
X82575794Y-56352257D01*
X82562400Y-56355149D01*
X82408216Y-56406588D01*
X82395038Y-56412761D01*
X82257193Y-56498063D01*
X82245792Y-56507099D01*
X82131261Y-56621829D01*
X82122249Y-56633240D01*
X82037184Y-56771243D01*
X82031037Y-56784424D01*
X81979862Y-56938710D01*
X81976995Y-56952086D01*
X81967328Y-57046438D01*
X81967000Y-57052855D01*
X81967000Y-57077885D01*
X76238116Y-57077885D01*
X78240418Y-55075583D01*
X78252809Y-55064716D01*
X78269968Y-55051550D01*
X78269971Y-55051547D01*
X78276521Y-55046521D01*
X78318525Y-54991781D01*
X78369009Y-54925990D01*
X78416423Y-54811521D01*
X78427149Y-54785627D01*
X78442000Y-54672820D01*
X78442000Y-54672818D01*
X78446979Y-54635000D01*
X78443078Y-54605368D01*
X78442000Y-54588922D01*
X78442000Y-53314810D01*
X78462002Y-53246689D01*
X78515658Y-53200196D01*
X78585932Y-53190092D01*
X78632136Y-53206355D01*
X78721399Y-53259145D01*
X78729010Y-53261356D01*
X78729012Y-53261357D01*
X78781231Y-53276528D01*
X78881169Y-53305562D01*
X78887574Y-53306066D01*
X78887579Y-53306067D01*
X78916042Y-53308307D01*
X78916050Y-53308307D01*
X78918498Y-53308500D01*
X79351502Y-53308500D01*
X79353950Y-53308307D01*
X79353958Y-53308307D01*
X79382421Y-53306067D01*
X79382426Y-53306066D01*
X79388831Y-53305562D01*
X79488769Y-53276528D01*
X79540988Y-53261357D01*
X79540990Y-53261356D01*
X79548601Y-53259145D01*
X79691807Y-53174453D01*
X79694489Y-53171771D01*
X79758861Y-53146498D01*
X79828484Y-53160400D01*
X79844312Y-53170572D01*
X79848193Y-53174453D01*
X79991399Y-53259145D01*
X79999010Y-53261356D01*
X79999012Y-53261357D01*
X80051231Y-53276528D01*
X80151169Y-53305562D01*
X80157574Y-53306066D01*
X80157579Y-53306067D01*
X80186042Y-53308307D01*
X80186050Y-53308307D01*
X80188498Y-53308500D01*
X80621502Y-53308500D01*
X80623950Y-53308307D01*
X80623958Y-53308307D01*
X80652421Y-53306067D01*
X80652426Y-53306066D01*
X80658831Y-53305562D01*
X80758769Y-53276528D01*
X80810988Y-53261357D01*
X80810990Y-53261356D01*
X80818601Y-53259145D01*
X80868038Y-53229908D01*
X80954980Y-53178491D01*
X80954983Y-53178489D01*
X80961807Y-53174453D01*
X81079453Y-53056807D01*
X81083489Y-53049983D01*
X81083491Y-53049980D01*
X81160108Y-52920427D01*
X81164145Y-52913601D01*
X81166415Y-52905790D01*
X81203734Y-52777332D01*
X81210562Y-52753831D01*
X81211074Y-52747336D01*
X81213307Y-52718958D01*
X81213307Y-52718950D01*
X81213500Y-52716502D01*
X81213500Y-52703000D01*
X81233502Y-52634879D01*
X81287158Y-52588386D01*
X81339500Y-52577000D01*
X82236549Y-52577000D01*
X82304670Y-52597002D01*
X82343694Y-52636699D01*
X82347668Y-52643122D01*
X82347673Y-52643129D01*
X82351522Y-52649348D01*
X82476697Y-52774305D01*
X82482927Y-52778145D01*
X82482928Y-52778146D01*
X82620090Y-52862694D01*
X82627262Y-52867115D01*
X82699243Y-52890990D01*
X82788611Y-52920632D01*
X82788613Y-52920632D01*
X82795139Y-52922797D01*
X82801975Y-52923497D01*
X82801978Y-52923498D01*
X82845031Y-52927909D01*
X82899600Y-52933500D01*
X83900400Y-52933500D01*
X83903646Y-52933163D01*
X83903650Y-52933163D01*
X83999308Y-52923238D01*
X83999312Y-52923237D01*
X84006166Y-52922526D01*
X84012702Y-52920345D01*
X84012704Y-52920345D01*
X84144806Y-52876272D01*
X84173946Y-52866550D01*
X84324348Y-52773478D01*
X84339543Y-52758257D01*
X84444134Y-52653483D01*
X84449305Y-52648303D01*
X84457580Y-52634879D01*
X84538275Y-52503968D01*
X84538276Y-52503966D01*
X84542115Y-52497738D01*
X84597797Y-52329861D01*
X84600201Y-52306403D01*
X84603714Y-52272115D01*
X84608500Y-52225400D01*
X84608500Y-51599600D01*
X84607507Y-51590031D01*
X84598238Y-51500692D01*
X84598237Y-51500688D01*
X84597526Y-51493834D01*
X84574591Y-51425088D01*
X84543868Y-51333002D01*
X84541550Y-51326054D01*
X84448478Y-51175652D01*
X84361891Y-51089216D01*
X84327812Y-51026934D01*
X84332815Y-50956114D01*
X84361736Y-50911025D01*
X84444134Y-50828483D01*
X84449305Y-50823303D01*
X84457681Y-50809715D01*
X84538275Y-50678968D01*
X84538276Y-50678966D01*
X84542115Y-50672738D01*
X84597797Y-50504861D01*
X84608500Y-50400400D01*
X84608500Y-49774600D01*
X84608163Y-49771350D01*
X84598238Y-49675692D01*
X84598237Y-49675688D01*
X84597526Y-49668834D01*
X84541550Y-49501054D01*
X84448478Y-49350652D01*
X84323303Y-49225695D01*
X84317072Y-49221854D01*
X84178968Y-49136725D01*
X84178966Y-49136724D01*
X84172738Y-49132885D01*
X84089828Y-49105385D01*
X84063333Y-49096597D01*
X84004973Y-49056166D01*
X83977736Y-48990602D01*
X83977000Y-48977004D01*
X83977000Y-48391086D01*
X83985212Y-48346343D01*
X84041690Y-48197662D01*
X84044192Y-48191076D01*
X84063759Y-48051851D01*
X84067482Y-48025362D01*
X84067482Y-48025356D01*
X84068031Y-48021453D01*
X84068331Y-48000000D01*
X84049237Y-47829777D01*
X84002314Y-47695032D01*
X83995221Y-47674662D01*
X83995220Y-47674660D01*
X83992906Y-47668015D01*
X83902136Y-47522753D01*
X83781439Y-47401210D01*
X83716049Y-47359712D01*
X83642757Y-47313200D01*
X83642754Y-47313198D01*
X83636814Y-47309429D01*
X83617420Y-47302523D01*
X83482083Y-47254331D01*
X83482081Y-47254330D01*
X83475449Y-47251969D01*
X83468463Y-47251136D01*
X83468459Y-47251135D01*
X83348217Y-47236798D01*
X83305364Y-47231688D01*
X83298361Y-47232424D01*
X83298360Y-47232424D01*
X83256591Y-47236814D01*
X83135012Y-47249592D01*
X83128344Y-47251862D01*
X82979528Y-47302523D01*
X82979525Y-47302524D01*
X82972861Y-47304793D01*
X82826968Y-47394547D01*
X82821937Y-47399473D01*
X82821934Y-47399476D01*
X82796257Y-47424621D01*
X82704586Y-47514392D01*
X82611797Y-47658373D01*
X82609388Y-47664993D01*
X82609387Y-47664994D01*
X82605868Y-47674662D01*
X82553212Y-47819333D01*
X82531744Y-47989272D01*
X82548459Y-48159745D01*
X82602526Y-48322278D01*
X82691259Y-48468793D01*
X82696150Y-48473858D01*
X82696151Y-48473859D01*
X82787637Y-48568596D01*
X82820569Y-48631493D01*
X82823000Y-48656123D01*
X82823000Y-48976953D01*
X82802998Y-49045074D01*
X82749342Y-49091567D01*
X82736880Y-49096475D01*
X82626054Y-49133450D01*
X82475652Y-49226522D01*
X82350695Y-49351697D01*
X82346855Y-49357927D01*
X82346854Y-49357928D01*
X82266800Y-49487800D01*
X82257885Y-49502262D01*
X82255581Y-49509209D01*
X82212531Y-49639002D01*
X82202203Y-49670139D01*
X82191500Y-49774600D01*
X82191500Y-50400400D01*
X82202474Y-50506166D01*
X82258450Y-50673946D01*
X82351522Y-50824348D01*
X82356704Y-50829521D01*
X82438109Y-50910784D01*
X82472188Y-50973066D01*
X82467185Y-51043886D01*
X82438264Y-51088975D01*
X82433236Y-51094012D01*
X82350695Y-51176697D01*
X82346855Y-51182927D01*
X82346854Y-51182928D01*
X82263941Y-51317438D01*
X82257885Y-51327262D01*
X82255582Y-51334206D01*
X82255579Y-51334212D01*
X82254763Y-51336673D01*
X82253750Y-51338134D01*
X82252487Y-51340844D01*
X82252023Y-51340628D01*
X82214330Y-51395031D01*
X82148764Y-51422265D01*
X82135172Y-51423000D01*
X81339500Y-51423000D01*
X81271379Y-51402998D01*
X81224886Y-51349342D01*
X81213500Y-51297000D01*
X81213500Y-51283498D01*
X81213307Y-51281042D01*
X81211067Y-51252579D01*
X81211066Y-51252574D01*
X81210562Y-51246169D01*
X81170328Y-51107680D01*
X81166357Y-51094012D01*
X81166356Y-51094010D01*
X81164145Y-51086399D01*
X81129394Y-51027639D01*
X81083491Y-50950020D01*
X81083489Y-50950017D01*
X81079453Y-50943193D01*
X80961807Y-50825547D01*
X80938861Y-50811976D01*
X80890409Y-50760085D01*
X80877000Y-50703524D01*
X80877000Y-50249338D01*
X80898052Y-50179611D01*
X80979465Y-50057075D01*
X80979466Y-50057073D01*
X80983366Y-50051203D01*
X81044192Y-49891076D01*
X81058030Y-49792617D01*
X81067482Y-49725362D01*
X81067482Y-49725356D01*
X81068031Y-49721453D01*
X81068331Y-49700000D01*
X81049237Y-49529777D01*
X81024948Y-49460027D01*
X80995221Y-49374662D01*
X80995220Y-49374660D01*
X80992906Y-49368015D01*
X80956241Y-49309338D01*
X80905869Y-49228727D01*
X80902136Y-49222753D01*
X80781439Y-49101210D01*
X80692982Y-49045074D01*
X80642757Y-49013200D01*
X80642754Y-49013198D01*
X80636814Y-49009429D01*
X80545612Y-48976953D01*
X80482083Y-48954331D01*
X80482081Y-48954330D01*
X80475449Y-48951969D01*
X80468463Y-48951136D01*
X80468459Y-48951135D01*
X80348217Y-48936798D01*
X80305364Y-48931688D01*
X80298361Y-48932424D01*
X80298360Y-48932424D01*
X80256591Y-48936814D01*
X80135012Y-48949592D01*
X80128344Y-48951862D01*
X79979528Y-49002523D01*
X79979525Y-49002524D01*
X79972861Y-49004793D01*
X79966861Y-49008484D01*
X79966855Y-49008487D01*
X79832700Y-49091020D01*
X79764199Y-49109679D01*
X79696485Y-49088340D01*
X79666716Y-49060407D01*
X79634757Y-49018758D01*
X79634729Y-49018723D01*
X79616551Y-48995034D01*
X79616550Y-48995033D01*
X79611521Y-48988479D01*
X79587808Y-48970283D01*
X79575418Y-48959416D01*
X78340583Y-47724582D01*
X78329716Y-47712191D01*
X78316550Y-47695032D01*
X78316547Y-47695029D01*
X78311521Y-47688479D01*
X78281258Y-47665257D01*
X78190990Y-47595991D01*
X78132850Y-47571909D01*
X78050627Y-47537851D01*
X77993878Y-47530380D01*
X77937823Y-47523000D01*
X77937818Y-47523000D01*
X77900000Y-47518021D01*
X77891812Y-47519099D01*
X77870368Y-47521922D01*
X77853922Y-47523000D01*
X76897191Y-47523000D01*
X76829070Y-47502998D01*
X76782577Y-47449342D01*
X76772473Y-47379068D01*
X76801967Y-47314488D01*
X76808096Y-47307905D01*
X80275418Y-43840583D01*
X80287809Y-43829716D01*
X80304971Y-43816547D01*
X80311521Y-43811521D01*
X80316547Y-43804971D01*
X80322388Y-43799130D01*
X80324362Y-43801104D01*
X80370675Y-43767286D01*
X80429963Y-43760964D01*
X80455775Y-43764408D01*
X80476929Y-43767231D01*
X80476932Y-43767231D01*
X80483909Y-43768162D01*
X80490920Y-43767524D01*
X80490924Y-43767524D01*
X80647473Y-43753277D01*
X80647474Y-43753277D01*
X80654494Y-43752638D01*
X80680079Y-43744325D01*
X80810702Y-43701883D01*
X80810705Y-43701882D01*
X80817401Y-43699706D01*
X80863689Y-43672113D01*
X80958480Y-43615607D01*
X80958482Y-43615606D01*
X80964532Y-43611999D01*
X81088576Y-43493874D01*
X81183366Y-43351203D01*
X81244192Y-43191076D01*
X81261221Y-43069908D01*
X81267482Y-43025362D01*
X81267482Y-43025356D01*
X81268031Y-43021453D01*
X81268331Y-43000000D01*
X81249237Y-42829777D01*
X81192906Y-42668015D01*
X81128985Y-42565720D01*
X81105867Y-42528723D01*
X81105865Y-42528720D01*
X81102136Y-42522753D01*
X81102554Y-42522492D01*
X81077617Y-42460876D01*
X81077000Y-42448425D01*
X81077000Y-30146070D01*
X81078078Y-30129624D01*
X81080900Y-30108188D01*
X81081978Y-30100000D01*
X81077000Y-30062187D01*
X81077000Y-30062180D01*
X81069757Y-30007164D01*
X81063227Y-29957561D01*
X81062149Y-29949373D01*
X81004009Y-29809011D01*
X80933436Y-29717039D01*
X80916550Y-29695032D01*
X80916547Y-29695029D01*
X80911521Y-29688479D01*
X80887804Y-29670280D01*
X80875414Y-29659413D01*
X80240583Y-29024582D01*
X80229716Y-29012191D01*
X80216547Y-28995029D01*
X80211521Y-28988479D01*
X80176389Y-28961521D01*
X80144093Y-28936739D01*
X80097543Y-28901019D01*
X80097540Y-28901017D01*
X80090990Y-28895991D01*
X79978472Y-28849385D01*
X79950627Y-28837851D01*
X79942439Y-28836773D01*
X79837823Y-28823000D01*
X79837818Y-28823000D01*
X79800000Y-28818021D01*
X79791812Y-28819099D01*
X79770368Y-28821922D01*
X79753922Y-28823000D01*
X79223047Y-28823000D01*
X79154926Y-28802998D01*
X79108433Y-28749342D01*
X79103523Y-28736876D01*
X79103454Y-28736667D01*
X79066550Y-28626054D01*
X78973478Y-28475652D01*
X78848303Y-28350695D01*
X78842072Y-28346854D01*
X78703968Y-28261725D01*
X78703966Y-28261724D01*
X78697738Y-28257885D01*
X78537254Y-28204655D01*
X78536389Y-28204368D01*
X78536387Y-28204368D01*
X78529861Y-28202203D01*
X78523025Y-28201503D01*
X78523022Y-28201502D01*
X78479969Y-28197091D01*
X78425400Y-28191500D01*
X77799600Y-28191500D01*
X77796354Y-28191837D01*
X77796350Y-28191837D01*
X77700692Y-28201762D01*
X77700688Y-28201763D01*
X77693834Y-28202474D01*
X77687298Y-28204655D01*
X77687296Y-28204655D01*
X77555194Y-28248728D01*
X77526054Y-28258450D01*
X77375652Y-28351522D01*
X77370479Y-28356704D01*
X77289216Y-28438109D01*
X77226934Y-28472188D01*
X77156114Y-28467185D01*
X77111025Y-28438264D01*
X77028483Y-28355866D01*
X77023303Y-28350695D01*
X77017072Y-28346854D01*
X76878968Y-28261725D01*
X76878966Y-28261724D01*
X76872738Y-28257885D01*
X76712254Y-28204655D01*
X76711389Y-28204368D01*
X76711387Y-28204368D01*
X76704861Y-28202203D01*
X76698025Y-28201503D01*
X76698022Y-28201502D01*
X76654969Y-28197091D01*
X76600400Y-28191500D01*
X75974600Y-28191500D01*
X75971354Y-28191837D01*
X75971350Y-28191837D01*
X75875692Y-28201762D01*
X75875688Y-28201763D01*
X75868834Y-28202474D01*
X75862298Y-28204655D01*
X75862296Y-28204655D01*
X75730194Y-28248728D01*
X75701054Y-28258450D01*
X75550652Y-28351522D01*
X75425695Y-28476697D01*
X75421855Y-28482927D01*
X75421854Y-28482928D01*
X75338692Y-28617842D01*
X75332885Y-28627262D01*
X75305385Y-28710172D01*
X75296597Y-28736667D01*
X75256166Y-28795027D01*
X75190602Y-28822264D01*
X75177004Y-28823000D01*
X74946070Y-28823000D01*
X74929624Y-28821922D01*
X74926487Y-28821509D01*
X74900000Y-28818022D01*
X74891811Y-28819100D01*
X74891810Y-28819100D01*
X74862193Y-28822999D01*
X74862181Y-28823000D01*
X74862178Y-28823000D01*
X74862169Y-28823001D01*
X74757561Y-28836773D01*
X74749373Y-28837851D01*
X74741741Y-28841012D01*
X74741742Y-28841012D01*
X74721527Y-28849385D01*
X74616640Y-28892830D01*
X74616636Y-28892832D01*
X74609010Y-28895991D01*
X74602460Y-28901017D01*
X74575217Y-28921922D01*
X74523611Y-28961521D01*
X74488479Y-28988479D01*
X74483456Y-28995025D01*
X74470280Y-29012196D01*
X74459413Y-29024586D01*
X73924582Y-29559417D01*
X73912191Y-29570284D01*
X73888479Y-29588479D01*
X73883453Y-29595029D01*
X73865265Y-29618732D01*
X73865257Y-29618742D01*
X73805950Y-29696032D01*
X73795991Y-29709010D01*
X73792888Y-29716502D01*
X73751409Y-29816641D01*
X73744872Y-29832424D01*
X73737851Y-29849373D01*
X73736773Y-29857561D01*
X73729945Y-29909429D01*
X73724686Y-29949372D01*
X73718021Y-30000000D01*
X73718935Y-30006943D01*
X73699097Y-30074505D01*
X73645441Y-30120998D01*
X73605147Y-30129623D01*
X73605364Y-30131688D01*
X73435012Y-30149592D01*
X73428342Y-30151863D01*
X73428336Y-30151864D01*
X73383296Y-30167197D01*
X73312364Y-30170216D01*
X73251060Y-30134407D01*
X73226281Y-30096138D01*
X73212215Y-30062180D01*
X73186267Y-29999536D01*
X73106404Y-29895456D01*
X73099769Y-29886809D01*
X73099768Y-29886808D01*
X73094742Y-29880258D01*
X72975463Y-29788733D01*
X72836561Y-29731197D01*
X72828377Y-29730120D01*
X72828375Y-29730119D01*
X72729012Y-29717038D01*
X72729011Y-29717038D01*
X72724925Y-29716500D01*
X72710942Y-29716500D01*
X72409499Y-29716501D01*
X72341380Y-29696499D01*
X72294887Y-29642844D01*
X72283500Y-29590501D01*
X72283499Y-29279199D01*
X72283499Y-29275076D01*
X72282677Y-29268827D01*
X72269881Y-29171626D01*
X72269880Y-29171624D01*
X72268803Y-29163439D01*
X72211267Y-29024536D01*
X72147178Y-28941013D01*
X72124769Y-28911809D01*
X72124768Y-28911808D01*
X72119742Y-28905258D01*
X72000463Y-28813733D01*
X71861561Y-28756197D01*
X71853377Y-28755120D01*
X71853375Y-28755119D01*
X71754012Y-28742038D01*
X71754011Y-28742038D01*
X71749925Y-28741500D01*
X71650013Y-28741500D01*
X71550076Y-28741501D01*
X71545991Y-28742039D01*
X71545987Y-28742039D01*
X71490512Y-28749342D01*
X71438439Y-28756197D01*
X71438337Y-28756239D01*
X71371137Y-28754641D01*
X71312340Y-28714848D01*
X71284391Y-28649584D01*
X71283500Y-28634623D01*
X71283500Y-26968978D01*
X71307119Y-26896283D01*
X71308699Y-26894529D01*
X71404186Y-26729141D01*
X71463201Y-26547513D01*
X71466555Y-26515607D01*
X71482473Y-26364150D01*
X71483163Y-26357585D01*
X71463201Y-26167657D01*
X71404186Y-25986029D01*
X71308699Y-25820641D01*
X71292695Y-25802866D01*
X71185334Y-25683630D01*
X71185333Y-25683629D01*
X71180912Y-25678719D01*
X71081816Y-25606721D01*
X71031753Y-25570348D01*
X71031752Y-25570347D01*
X71026411Y-25566467D01*
X71020383Y-25563783D01*
X71020381Y-25563782D01*
X70857978Y-25491476D01*
X70857977Y-25491476D01*
X70851947Y-25488791D01*
X70758546Y-25468938D01*
X70671603Y-25450457D01*
X70671598Y-25450457D01*
X70665146Y-25449085D01*
X70474172Y-25449085D01*
X70467720Y-25450457D01*
X70467715Y-25450457D01*
X70380771Y-25468938D01*
X70287371Y-25488791D01*
X70281341Y-25491476D01*
X70281340Y-25491476D01*
X70118937Y-25563782D01*
X70118935Y-25563783D01*
X70112907Y-25566467D01*
X70107566Y-25570347D01*
X70107565Y-25570348D01*
X70057502Y-25606721D01*
X69958406Y-25678719D01*
X69953984Y-25683630D01*
X69949082Y-25688044D01*
X69947930Y-25686765D01*
X69894743Y-25719533D01*
X69835355Y-25721230D01*
X69701944Y-25692872D01*
X69701939Y-25692872D01*
X69695487Y-25691500D01*
X69504513Y-25691500D01*
X69498061Y-25692872D01*
X69498056Y-25692872D01*
X69411112Y-25711353D01*
X69317712Y-25731206D01*
X69311682Y-25733891D01*
X69311681Y-25733891D01*
X69149278Y-25806197D01*
X69149276Y-25806198D01*
X69143248Y-25808882D01*
X68988747Y-25921134D01*
X68984326Y-25926044D01*
X68984325Y-25926045D01*
X68982455Y-25928122D01*
X68981072Y-25928974D01*
X68979423Y-25930459D01*
X68979151Y-25930157D01*
X68922009Y-25965362D01*
X68851026Y-25964010D01*
X68792041Y-25924497D01*
X68763604Y-25857858D01*
X68750022Y-25736774D01*
X68750022Y-25736773D01*
X68749237Y-25729777D01*
X68741719Y-25708188D01*
X68695221Y-25574662D01*
X68695220Y-25574660D01*
X68692906Y-25568015D01*
X68602136Y-25422753D01*
X68561548Y-25381880D01*
X68486402Y-25306208D01*
X68481439Y-25301210D01*
X68403143Y-25251522D01*
X68342757Y-25213200D01*
X68342754Y-25213198D01*
X68336814Y-25209429D01*
X68310360Y-25200009D01*
X68182083Y-25154331D01*
X68182081Y-25154330D01*
X68175449Y-25151969D01*
X68168463Y-25151136D01*
X68168459Y-25151135D01*
X68048217Y-25136798D01*
X68005364Y-25131688D01*
X67998361Y-25132424D01*
X67998360Y-25132424D01*
X67956591Y-25136814D01*
X67835012Y-25149592D01*
X67828344Y-25151862D01*
X67679528Y-25202523D01*
X67679525Y-25202524D01*
X67672861Y-25204793D01*
X67596904Y-25251522D01*
X67562288Y-25272818D01*
X67496266Y-25291500D01*
X66504239Y-25291500D01*
X66436118Y-25271498D01*
X66415144Y-25254595D01*
X65051815Y-23891266D01*
X65040948Y-23878875D01*
X65026513Y-23860063D01*
X65021487Y-23853513D01*
X64989575Y-23829026D01*
X64989572Y-23829023D01*
X64894376Y-23755976D01*
X64746351Y-23694662D01*
X64738164Y-23693584D01*
X64738163Y-23693584D01*
X64726958Y-23692109D01*
X64695762Y-23688002D01*
X64627385Y-23679000D01*
X64627382Y-23679000D01*
X64627374Y-23678999D01*
X64595689Y-23674828D01*
X64587500Y-23673750D01*
X64555807Y-23677922D01*
X64539364Y-23679000D01*
X64098105Y-23679000D01*
X64029984Y-23658998D01*
X63990961Y-23619303D01*
X63952332Y-23556880D01*
X63948478Y-23550652D01*
X63823303Y-23425695D01*
X63753011Y-23382366D01*
X63678968Y-23336725D01*
X63678966Y-23336724D01*
X63672738Y-23332885D01*
X63592995Y-23306436D01*
X63511389Y-23279368D01*
X63511387Y-23279368D01*
X63504861Y-23277203D01*
X63498022Y-23276502D01*
X63491290Y-23275059D01*
X63491682Y-23273233D01*
X63434516Y-23249886D01*
X63409005Y-23211910D01*
X63406937Y-23213364D01*
X63404200Y-23209472D01*
X63404009Y-23209011D01*
X63404009Y-23209010D01*
X63334743Y-23118742D01*
X63334742Y-23118741D01*
X63311521Y-23088479D01*
X63287804Y-23070280D01*
X63275414Y-23059413D01*
X62088891Y-21872890D01*
X65392000Y-21872890D01*
X65392300Y-21879035D01*
X65406170Y-22020481D01*
X65408553Y-22032519D01*
X65463542Y-22214651D01*
X65468217Y-22225993D01*
X65557535Y-22393977D01*
X65564322Y-22404193D01*
X65684572Y-22551634D01*
X65693216Y-22560338D01*
X65839809Y-22681610D01*
X65849980Y-22688470D01*
X66017342Y-22778962D01*
X66028647Y-22783714D01*
X66153692Y-22822422D01*
X66167795Y-22822628D01*
X66171000Y-22815873D01*
X66171000Y-22808986D01*
X66679000Y-22808986D01*
X66682973Y-22822517D01*
X66690768Y-22823637D01*
X66807932Y-22789154D01*
X66819300Y-22784561D01*
X66987911Y-22696414D01*
X66998173Y-22689698D01*
X67146443Y-22570485D01*
X67155213Y-22561897D01*
X67277499Y-22416162D01*
X67284437Y-22406031D01*
X67376094Y-22239308D01*
X67380924Y-22228038D01*
X67438452Y-22046685D01*
X67441002Y-22034691D01*
X67457607Y-21886650D01*
X67458000Y-21879626D01*
X67458000Y-21872890D01*
X72542000Y-21872890D01*
X72542300Y-21879035D01*
X72556170Y-22020481D01*
X72558553Y-22032519D01*
X72613542Y-22214651D01*
X72618217Y-22225993D01*
X72707535Y-22393977D01*
X72714322Y-22404193D01*
X72834572Y-22551634D01*
X72843216Y-22560338D01*
X72989809Y-22681610D01*
X72999980Y-22688470D01*
X73167342Y-22778962D01*
X73178647Y-22783714D01*
X73303692Y-22822422D01*
X73317795Y-22822628D01*
X73321000Y-22815873D01*
X73321000Y-22808986D01*
X73829000Y-22808986D01*
X73832973Y-22822517D01*
X73840768Y-22823637D01*
X73957932Y-22789154D01*
X73969300Y-22784561D01*
X74137911Y-22696414D01*
X74148173Y-22689698D01*
X74296443Y-22570485D01*
X74305213Y-22561897D01*
X74427499Y-22416162D01*
X74434437Y-22406031D01*
X74526094Y-22239308D01*
X74530924Y-22228038D01*
X74588452Y-22046685D01*
X74591002Y-22034691D01*
X74607607Y-21886650D01*
X74608000Y-21879626D01*
X74608000Y-21672115D01*
X74603525Y-21656876D01*
X74602135Y-21655671D01*
X74594452Y-21654000D01*
X73847115Y-21654000D01*
X73831876Y-21658475D01*
X73830671Y-21659865D01*
X73829000Y-21667548D01*
X73829000Y-22808986D01*
X73321000Y-22808986D01*
X73321000Y-21672115D01*
X73316525Y-21656876D01*
X73315135Y-21655671D01*
X73307452Y-21654000D01*
X72560115Y-21654000D01*
X72544876Y-21658475D01*
X72543671Y-21659865D01*
X72542000Y-21667548D01*
X72542000Y-21872890D01*
X67458000Y-21872890D01*
X67458000Y-21672115D01*
X67453525Y-21656876D01*
X67452135Y-21655671D01*
X67444452Y-21654000D01*
X66697115Y-21654000D01*
X66681876Y-21658475D01*
X66680671Y-21659865D01*
X66679000Y-21667548D01*
X66679000Y-22808986D01*
X66171000Y-22808986D01*
X66171000Y-21672115D01*
X66166525Y-21656876D01*
X66165135Y-21655671D01*
X66157452Y-21654000D01*
X65410115Y-21654000D01*
X65394876Y-21658475D01*
X65393671Y-21659865D01*
X65392000Y-21667548D01*
X65392000Y-21872890D01*
X62088891Y-21872890D01*
X61840583Y-21624582D01*
X61829716Y-21612191D01*
X61816550Y-21595032D01*
X61816547Y-21595029D01*
X61811521Y-21588479D01*
X61781258Y-21565257D01*
X61690990Y-21495991D01*
X61632850Y-21471909D01*
X61550627Y-21437851D01*
X61493878Y-21430380D01*
X61437823Y-21423000D01*
X61437818Y-21423000D01*
X61400000Y-21418021D01*
X61391812Y-21419099D01*
X61370368Y-21421922D01*
X61353922Y-21423000D01*
X49346070Y-21423000D01*
X49329624Y-21421922D01*
X49300000Y-21418022D01*
X49291811Y-21419100D01*
X49291810Y-21419100D01*
X49262193Y-21422999D01*
X49262181Y-21423000D01*
X49262178Y-21423000D01*
X49262169Y-21423001D01*
X49157561Y-21436773D01*
X49149373Y-21437851D01*
X49067150Y-21471909D01*
X49009010Y-21495991D01*
X48918742Y-21565257D01*
X48888479Y-21588479D01*
X48883456Y-21595025D01*
X48870280Y-21612196D01*
X48859413Y-21624586D01*
X45224582Y-25259417D01*
X45212191Y-25270284D01*
X45188479Y-25288479D01*
X45165258Y-25318741D01*
X45165257Y-25318742D01*
X45095991Y-25409010D01*
X45095991Y-25409011D01*
X45037851Y-25549373D01*
X45024668Y-25649509D01*
X45018021Y-25700000D01*
X45019099Y-25708188D01*
X45021922Y-25729632D01*
X45023000Y-25746078D01*
X45023000Y-32453923D01*
X45021922Y-32470370D01*
X45018021Y-32500000D01*
X45023000Y-32537818D01*
X45023000Y-32537820D01*
X45037851Y-32650627D01*
X45041010Y-32658253D01*
X45071250Y-32731258D01*
X45071249Y-32731258D01*
X45071251Y-32731261D01*
X45095991Y-32790990D01*
X45101017Y-32797540D01*
X45144348Y-32854009D01*
X45181575Y-32902523D01*
X45188479Y-32911521D01*
X45195025Y-32916544D01*
X45212192Y-32929717D01*
X45224583Y-32940584D01*
X46159424Y-33875426D01*
X46170285Y-33887810D01*
X46188479Y-33911521D01*
X46195029Y-33916547D01*
X46195031Y-33916549D01*
X46218723Y-33934729D01*
X46218742Y-33934744D01*
X46309010Y-34004009D01*
X46449372Y-34062149D01*
X46600000Y-34081979D01*
X46608188Y-34080901D01*
X46629632Y-34078078D01*
X46646078Y-34077000D01*
X47915500Y-34077000D01*
X47983621Y-34097002D01*
X48030114Y-34150658D01*
X48041500Y-34203000D01*
X48041500Y-34298134D01*
X48048255Y-34360316D01*
X48099385Y-34496705D01*
X48186739Y-34613261D01*
X48303295Y-34700615D01*
X48439684Y-34751745D01*
X48501866Y-34758500D01*
X50598134Y-34758500D01*
X50660316Y-34751745D01*
X50796705Y-34700615D01*
X50913261Y-34613261D01*
X51000615Y-34496705D01*
X51051745Y-34360316D01*
X51058500Y-34298134D01*
X51058500Y-32701866D01*
X51051745Y-32639684D01*
X51000615Y-32503295D01*
X50969888Y-32462296D01*
X50942360Y-32425565D01*
X50917512Y-32359058D01*
X50932565Y-32289676D01*
X50942360Y-32274435D01*
X50995229Y-32203892D01*
X50995230Y-32203890D01*
X51000615Y-32196705D01*
X51051745Y-32060316D01*
X51058500Y-31998134D01*
X51058500Y-31903000D01*
X51078502Y-31834879D01*
X51132158Y-31788386D01*
X51184500Y-31777000D01*
X54215500Y-31777000D01*
X54283621Y-31797002D01*
X54330114Y-31850658D01*
X54341500Y-31903000D01*
X54341500Y-33148134D01*
X54348255Y-33210316D01*
X54399385Y-33346705D01*
X54486739Y-33463261D01*
X54603295Y-33550615D01*
X54739684Y-33601745D01*
X54801866Y-33608500D01*
X56898134Y-33608500D01*
X56960316Y-33601745D01*
X57096705Y-33550615D01*
X57213261Y-33463261D01*
X57300615Y-33346705D01*
X57351745Y-33210316D01*
X57358500Y-33148134D01*
X57358500Y-32053000D01*
X57378502Y-31984879D01*
X57432158Y-31938386D01*
X57484500Y-31927000D01*
X64599749Y-31927000D01*
X64668739Y-31947566D01*
X64803577Y-32035801D01*
X64964124Y-32095508D01*
X64971105Y-32096439D01*
X64971107Y-32096440D01*
X65126928Y-32117231D01*
X65126932Y-32117231D01*
X65133909Y-32118162D01*
X65140920Y-32117524D01*
X65140924Y-32117524D01*
X65297473Y-32103277D01*
X65297474Y-32103277D01*
X65304494Y-32102638D01*
X65362317Y-32083850D01*
X65460702Y-32051883D01*
X65460705Y-32051882D01*
X65467401Y-32049706D01*
X65548216Y-32001531D01*
X65608480Y-31965607D01*
X65608482Y-31965606D01*
X65614532Y-31961999D01*
X65619633Y-31957142D01*
X65625246Y-31952881D01*
X65627158Y-31955401D01*
X65677848Y-31929275D01*
X65701681Y-31927000D01*
X67427983Y-31927000D01*
X67496104Y-31947002D01*
X67542597Y-32000658D01*
X67552905Y-32036554D01*
X67556197Y-32061561D01*
X67558875Y-32068026D01*
X67558875Y-32131974D01*
X67556197Y-32138439D01*
X67541500Y-32250075D01*
X67541501Y-32449924D01*
X67542039Y-32454009D01*
X67542039Y-32454013D01*
X67544893Y-32475692D01*
X67556197Y-32561561D01*
X67558875Y-32568026D01*
X67558875Y-32631974D01*
X67556197Y-32638439D01*
X67541500Y-32750075D01*
X67541501Y-32949924D01*
X67542039Y-32954009D01*
X67542039Y-32954013D01*
X67551121Y-33023000D01*
X67556197Y-33061561D01*
X67613733Y-33200464D01*
X67618760Y-33207015D01*
X67688599Y-33298031D01*
X67705258Y-33319742D01*
X67824537Y-33411267D01*
X67963439Y-33468803D01*
X67971623Y-33469880D01*
X67971625Y-33469881D01*
X68070988Y-33482962D01*
X68075075Y-33483500D01*
X68089058Y-33483500D01*
X68390501Y-33483499D01*
X68458620Y-33503501D01*
X68505113Y-33557156D01*
X68516500Y-33609499D01*
X68516501Y-33767231D01*
X68516501Y-33924924D01*
X68517039Y-33929008D01*
X68517039Y-33929014D01*
X68528562Y-34016547D01*
X68531197Y-34036561D01*
X68588733Y-34175464D01*
X68593759Y-34182014D01*
X68593760Y-34182015D01*
X68675230Y-34288189D01*
X68680258Y-34294742D01*
X68799537Y-34386267D01*
X68938439Y-34443803D01*
X68946623Y-34444880D01*
X68946625Y-34444881D01*
X69045988Y-34457962D01*
X69050075Y-34458500D01*
X69149987Y-34458500D01*
X69249924Y-34458499D01*
X69254009Y-34457961D01*
X69254013Y-34457961D01*
X69320344Y-34449229D01*
X69361561Y-34443803D01*
X69368026Y-34441125D01*
X69431974Y-34441125D01*
X69438439Y-34443803D01*
X69530994Y-34455988D01*
X69545981Y-34457961D01*
X69550075Y-34458500D01*
X69649987Y-34458500D01*
X69749924Y-34458499D01*
X69754009Y-34457961D01*
X69754013Y-34457961D01*
X69820344Y-34449229D01*
X69861561Y-34443803D01*
X69868026Y-34441125D01*
X69931974Y-34441125D01*
X69938439Y-34443803D01*
X70030994Y-34455988D01*
X70045981Y-34457961D01*
X70050075Y-34458500D01*
X70149987Y-34458500D01*
X70249924Y-34458499D01*
X70254009Y-34457961D01*
X70254013Y-34457961D01*
X70320344Y-34449229D01*
X70361561Y-34443803D01*
X70368026Y-34441125D01*
X70431974Y-34441125D01*
X70438439Y-34443803D01*
X70530994Y-34455988D01*
X70545981Y-34457961D01*
X70550075Y-34458500D01*
X70649987Y-34458500D01*
X70749924Y-34458499D01*
X70754009Y-34457961D01*
X70754013Y-34457961D01*
X70820344Y-34449229D01*
X70861561Y-34443803D01*
X70868026Y-34441125D01*
X70931974Y-34441125D01*
X70938439Y-34443803D01*
X71030994Y-34455988D01*
X71045981Y-34457961D01*
X71050075Y-34458500D01*
X71149987Y-34458500D01*
X71249924Y-34458499D01*
X71254009Y-34457961D01*
X71254013Y-34457961D01*
X71320344Y-34449229D01*
X71361561Y-34443803D01*
X71368026Y-34441125D01*
X71431974Y-34441125D01*
X71438439Y-34443803D01*
X71530994Y-34455988D01*
X71545981Y-34457961D01*
X71550075Y-34458500D01*
X71649987Y-34458500D01*
X71749924Y-34458499D01*
X71754009Y-34457961D01*
X71754013Y-34457961D01*
X71853374Y-34444881D01*
X71853376Y-34444880D01*
X71861561Y-34443803D01*
X72000464Y-34386267D01*
X72079596Y-34325547D01*
X72113191Y-34299769D01*
X72113192Y-34299768D01*
X72119742Y-34294742D01*
X72211267Y-34175463D01*
X72268803Y-34036561D01*
X72272588Y-34007815D01*
X72282962Y-33929012D01*
X72282962Y-33929011D01*
X72283500Y-33924925D01*
X72283499Y-33609499D01*
X72303501Y-33541380D01*
X72357156Y-33494887D01*
X72409499Y-33483500D01*
X72710937Y-33483499D01*
X72724924Y-33483499D01*
X72729008Y-33482961D01*
X72729014Y-33482961D01*
X72828374Y-33469881D01*
X72828376Y-33469880D01*
X72836561Y-33468803D01*
X72867806Y-33455861D01*
X72938396Y-33448272D01*
X73006661Y-33484743D01*
X73073317Y-33553767D01*
X73110247Y-33592009D01*
X73253577Y-33685801D01*
X73414124Y-33745508D01*
X73421105Y-33746439D01*
X73421107Y-33746440D01*
X73576928Y-33767231D01*
X73576932Y-33767231D01*
X73583909Y-33768162D01*
X73590920Y-33767524D01*
X73590924Y-33767524D01*
X73747473Y-33753277D01*
X73747474Y-33753277D01*
X73754494Y-33752638D01*
X73825299Y-33729632D01*
X73910702Y-33701883D01*
X73910705Y-33701882D01*
X73917401Y-33699706D01*
X73930644Y-33691812D01*
X74010829Y-33644012D01*
X74064532Y-33611999D01*
X74068269Y-33608440D01*
X74133928Y-33583453D01*
X74191968Y-33592661D01*
X74291742Y-33633989D01*
X74291745Y-33633990D01*
X74299372Y-33637149D01*
X74450000Y-33656979D01*
X74458188Y-33655901D01*
X74479632Y-33653078D01*
X74496078Y-33652000D01*
X75101953Y-33652000D01*
X75170074Y-33672002D01*
X75216567Y-33725658D01*
X75221475Y-33738120D01*
X75258450Y-33848946D01*
X75351522Y-33999348D01*
X75476697Y-34124305D01*
X75482927Y-34128145D01*
X75482928Y-34128146D01*
X75620090Y-34212694D01*
X75627262Y-34217115D01*
X75692167Y-34238643D01*
X75788611Y-34270632D01*
X75788613Y-34270632D01*
X75795139Y-34272797D01*
X75801975Y-34273497D01*
X75801978Y-34273498D01*
X75845031Y-34277909D01*
X75899600Y-34283500D01*
X76525400Y-34283500D01*
X76528646Y-34283163D01*
X76528650Y-34283163D01*
X76624308Y-34273238D01*
X76624312Y-34273237D01*
X76631166Y-34272526D01*
X76637702Y-34270345D01*
X76637704Y-34270345D01*
X76769806Y-34226272D01*
X76798946Y-34216550D01*
X76949348Y-34123478D01*
X77035784Y-34036891D01*
X77098066Y-34002812D01*
X77168886Y-34007815D01*
X77213975Y-34036736D01*
X77284530Y-34107168D01*
X77301697Y-34124305D01*
X77307927Y-34128145D01*
X77307928Y-34128146D01*
X77445090Y-34212694D01*
X77452262Y-34217115D01*
X77517167Y-34238643D01*
X77613611Y-34270632D01*
X77613613Y-34270632D01*
X77620139Y-34272797D01*
X77626975Y-34273497D01*
X77626978Y-34273498D01*
X77670031Y-34277909D01*
X77724600Y-34283500D01*
X78350400Y-34283500D01*
X78353646Y-34283163D01*
X78353650Y-34283163D01*
X78449308Y-34273238D01*
X78449312Y-34273237D01*
X78456166Y-34272526D01*
X78462702Y-34270345D01*
X78462704Y-34270345D01*
X78594806Y-34226272D01*
X78623946Y-34216550D01*
X78656778Y-34196233D01*
X78771741Y-34125092D01*
X78840193Y-34106254D01*
X78907963Y-34127415D01*
X78927139Y-34143141D01*
X79286095Y-34502097D01*
X79320121Y-34564409D01*
X79323000Y-34591192D01*
X79323000Y-42128411D01*
X79302998Y-42196532D01*
X79249342Y-42243025D01*
X79179068Y-42253129D01*
X79178299Y-42252984D01*
X79175449Y-42251969D01*
X79005364Y-42231688D01*
X78998361Y-42232424D01*
X78998360Y-42232424D01*
X78956591Y-42236814D01*
X78835012Y-42249592D01*
X78828344Y-42251862D01*
X78679528Y-42302523D01*
X78679525Y-42302524D01*
X78672861Y-42304793D01*
X78526968Y-42394547D01*
X78521937Y-42399473D01*
X78521934Y-42399476D01*
X78471949Y-42448425D01*
X78404586Y-42514392D01*
X78311797Y-42658373D01*
X78309388Y-42664993D01*
X78309387Y-42664994D01*
X78305868Y-42674662D01*
X78253212Y-42819333D01*
X78252329Y-42826323D01*
X78242504Y-42904102D01*
X78214122Y-42969179D01*
X78206592Y-42977406D01*
X62124582Y-59059417D01*
X62112191Y-59070284D01*
X62088479Y-59088479D01*
X62065258Y-59118741D01*
X62065257Y-59118742D01*
X61995991Y-59209010D01*
X61974592Y-59260673D01*
X61937851Y-59349373D01*
X61936773Y-59357561D01*
X61935874Y-59364392D01*
X61925749Y-59441298D01*
X61918021Y-59500000D01*
X61919099Y-59508188D01*
X61921922Y-59529632D01*
X61923000Y-59546078D01*
X61923000Y-64102809D01*
X61902998Y-64170930D01*
X61849342Y-64217423D01*
X61779068Y-64227527D01*
X61714488Y-64198033D01*
X61707905Y-64191904D01*
X61313905Y-63797904D01*
X61279879Y-63735592D01*
X61277000Y-63708809D01*
X61277000Y-63446077D01*
X61278078Y-63429630D01*
X61280901Y-63408188D01*
X61281979Y-63400000D01*
X61276499Y-63358373D01*
X61267741Y-63291851D01*
X61263227Y-63257561D01*
X61262149Y-63249373D01*
X61228091Y-63167150D01*
X61204009Y-63109010D01*
X61177653Y-63074662D01*
X61134743Y-63018742D01*
X61134735Y-63018732D01*
X61116549Y-62995032D01*
X61111521Y-62988479D01*
X61087804Y-62970280D01*
X61075414Y-62959413D01*
X55980583Y-57864582D01*
X55969716Y-57852191D01*
X55956550Y-57835032D01*
X55956547Y-57835029D01*
X55951521Y-57828479D01*
X55921258Y-57805257D01*
X55830990Y-57735991D01*
X55772850Y-57711909D01*
X55690627Y-57677851D01*
X55633878Y-57670380D01*
X55577823Y-57663000D01*
X55577818Y-57663000D01*
X55540000Y-57658021D01*
X55531812Y-57659099D01*
X55510368Y-57661922D01*
X55493922Y-57663000D01*
X26252294Y-57663000D01*
X26184173Y-57642998D01*
X26142025Y-57597382D01*
X26141354Y-57595840D01*
X26020014Y-57408277D01*
X25869670Y-57243051D01*
X25865619Y-57239852D01*
X25865615Y-57239848D01*
X25698414Y-57107800D01*
X25698410Y-57107798D01*
X25694359Y-57104598D01*
X25653053Y-57081796D01*
X25603084Y-57031364D01*
X25588312Y-56961921D01*
X25613428Y-56895516D01*
X25640780Y-56868909D01*
X25684603Y-56837650D01*
X25819860Y-56741173D01*
X25978096Y-56583489D01*
X26032988Y-56507099D01*
X26105435Y-56406277D01*
X26108453Y-56402077D01*
X26129192Y-56360116D01*
X26205136Y-56206453D01*
X26205137Y-56206451D01*
X26207430Y-56201811D01*
X26272370Y-55988069D01*
X26301529Y-55766590D01*
X26303156Y-55700000D01*
X26284852Y-55477361D01*
X26230431Y-55260702D01*
X26141354Y-55055840D01*
X26057350Y-54925990D01*
X26022822Y-54872617D01*
X26022820Y-54872614D01*
X26020014Y-54868277D01*
X25869670Y-54703051D01*
X25865619Y-54699852D01*
X25865615Y-54699848D01*
X25698414Y-54567800D01*
X25698410Y-54567798D01*
X25694359Y-54564598D01*
X25653053Y-54541796D01*
X25603084Y-54491364D01*
X25588312Y-54421921D01*
X25613428Y-54355516D01*
X25640780Y-54328909D01*
X25684603Y-54297650D01*
X25819860Y-54201173D01*
X25978096Y-54043489D01*
X26037594Y-53960689D01*
X26105435Y-53866277D01*
X26108453Y-53862077D01*
X26129320Y-53819857D01*
X26205136Y-53666453D01*
X26205137Y-53666451D01*
X26207430Y-53661811D01*
X26272370Y-53448069D01*
X26301529Y-53226590D01*
X26301914Y-53210833D01*
X26303074Y-53163365D01*
X26303074Y-53163361D01*
X26303156Y-53160000D01*
X26284852Y-52937361D01*
X26230431Y-52720702D01*
X26141354Y-52515840D01*
X26020014Y-52328277D01*
X25869670Y-52163051D01*
X25865619Y-52159852D01*
X25865615Y-52159848D01*
X25698414Y-52027800D01*
X25698410Y-52027798D01*
X25694359Y-52024598D01*
X25653053Y-52001796D01*
X25603084Y-51951364D01*
X25588312Y-51881921D01*
X25613428Y-51815516D01*
X25640780Y-51788909D01*
X25709159Y-51740135D01*
X25819860Y-51661173D01*
X25978096Y-51503489D01*
X26037594Y-51420689D01*
X26105435Y-51326277D01*
X26108453Y-51322077D01*
X26126277Y-51286014D01*
X26205136Y-51126453D01*
X26205137Y-51126451D01*
X26207430Y-51121811D01*
X26260093Y-50948478D01*
X26270865Y-50913023D01*
X26270865Y-50913021D01*
X26272370Y-50908069D01*
X26301529Y-50686590D01*
X26301838Y-50673946D01*
X26303074Y-50623365D01*
X26303074Y-50623361D01*
X26303156Y-50620000D01*
X26284852Y-50397361D01*
X26230431Y-50180702D01*
X26141354Y-49975840D01*
X26020014Y-49788277D01*
X25869670Y-49623051D01*
X25865619Y-49619852D01*
X25865615Y-49619848D01*
X25698414Y-49487800D01*
X25698410Y-49487798D01*
X25694359Y-49484598D01*
X25653053Y-49461796D01*
X25603084Y-49411364D01*
X25588312Y-49341921D01*
X25613428Y-49275516D01*
X25640780Y-49248909D01*
X25684603Y-49217650D01*
X25819860Y-49121173D01*
X25834878Y-49106208D01*
X25901209Y-49040107D01*
X25978096Y-48963489D01*
X26037594Y-48880689D01*
X26105435Y-48786277D01*
X26108453Y-48782077D01*
X26129320Y-48739857D01*
X26205136Y-48586453D01*
X26205137Y-48586451D01*
X26207430Y-48581811D01*
X26272370Y-48368069D01*
X26301529Y-48146590D01*
X26303156Y-48080000D01*
X26284852Y-47857361D01*
X26230431Y-47640702D01*
X26141354Y-47435840D01*
X26056576Y-47304793D01*
X26022822Y-47252617D01*
X26022820Y-47252614D01*
X26020014Y-47248277D01*
X25869670Y-47083051D01*
X25865619Y-47079852D01*
X25865615Y-47079848D01*
X25698414Y-46947800D01*
X25698410Y-46947798D01*
X25694359Y-46944598D01*
X25653053Y-46921796D01*
X25603084Y-46871364D01*
X25588312Y-46801921D01*
X25613428Y-46735516D01*
X25640780Y-46708909D01*
X25684603Y-46677650D01*
X25819860Y-46581173D01*
X25978096Y-46423489D01*
X26037594Y-46340689D01*
X26105435Y-46246277D01*
X26108453Y-46242077D01*
X26129320Y-46199857D01*
X26205136Y-46046453D01*
X26205137Y-46046451D01*
X26207430Y-46041811D01*
X26272370Y-45828069D01*
X26301529Y-45606590D01*
X26303156Y-45540000D01*
X26284852Y-45317361D01*
X26230431Y-45100702D01*
X26141354Y-44895840D01*
X26020014Y-44708277D01*
X25869670Y-44543051D01*
X25865619Y-44539852D01*
X25865615Y-44539848D01*
X25698414Y-44407800D01*
X25698410Y-44407798D01*
X25694359Y-44404598D01*
X25653053Y-44381796D01*
X25603084Y-44331364D01*
X25588312Y-44261921D01*
X25613428Y-44195516D01*
X25640780Y-44168909D01*
X25684603Y-44137650D01*
X25819860Y-44041173D01*
X25978096Y-43883489D01*
X26026199Y-43816547D01*
X26105435Y-43706277D01*
X26108453Y-43702077D01*
X26111408Y-43696099D01*
X26205136Y-43506453D01*
X26205137Y-43506451D01*
X26207430Y-43501811D01*
X26272370Y-43288069D01*
X26301529Y-43066590D01*
X26301611Y-43063240D01*
X26303074Y-43003365D01*
X26303074Y-43003361D01*
X26303156Y-43000000D01*
X26284852Y-42777361D01*
X26230431Y-42560702D01*
X26141354Y-42355840D01*
X26061513Y-42232424D01*
X26022822Y-42172617D01*
X26022820Y-42172614D01*
X26020014Y-42168277D01*
X25869670Y-42003051D01*
X25865619Y-41999852D01*
X25865615Y-41999848D01*
X25698414Y-41867800D01*
X25698410Y-41867798D01*
X25694359Y-41864598D01*
X25498789Y-41756638D01*
X25493920Y-41754914D01*
X25493916Y-41754912D01*
X25293087Y-41683795D01*
X25293083Y-41683794D01*
X25288212Y-41682069D01*
X25283119Y-41681162D01*
X25283116Y-41681161D01*
X25073373Y-41643800D01*
X25073367Y-41643799D01*
X25068284Y-41642894D01*
X24994452Y-41641992D01*
X24850081Y-41640228D01*
X24850079Y-41640228D01*
X24844911Y-41640165D01*
X24624091Y-41673955D01*
X24411756Y-41743357D01*
X24213607Y-41846507D01*
X24209474Y-41849610D01*
X24209471Y-41849612D01*
X24039100Y-41977530D01*
X24034965Y-41980635D01*
X23978537Y-42039684D01*
X23954283Y-42065064D01*
X23892759Y-42100494D01*
X23821846Y-42097037D01*
X23764060Y-42055791D01*
X23745207Y-42022243D01*
X23703767Y-41911703D01*
X23700615Y-41903295D01*
X23613261Y-41786739D01*
X23496705Y-41699385D01*
X23360316Y-41648255D01*
X23298134Y-41641500D01*
X21501866Y-41641500D01*
X21439684Y-41648255D01*
X21303295Y-41699385D01*
X21186739Y-41786739D01*
X21099385Y-41903295D01*
X21048255Y-42039684D01*
X21041500Y-42101866D01*
X21041500Y-43898134D01*
X21048255Y-43960316D01*
X21099385Y-44096705D01*
X21186739Y-44213261D01*
X21303295Y-44300615D01*
X21311704Y-44303767D01*
X21311705Y-44303768D01*
X21420451Y-44344535D01*
X21477216Y-44387176D01*
X21501916Y-44453738D01*
X21486709Y-44523087D01*
X21467316Y-44549568D01*
X21340629Y-44682138D01*
X21214743Y-44866680D01*
X21120688Y-45069305D01*
X21060989Y-45284570D01*
X21037251Y-45506695D01*
X21037548Y-45511848D01*
X21037548Y-45511851D01*
X21043011Y-45606590D01*
X21050110Y-45729715D01*
X21051247Y-45734761D01*
X21051248Y-45734767D01*
X21071119Y-45822939D01*
X21099222Y-45947639D01*
X21183266Y-46154616D01*
X21234019Y-46237438D01*
X21297291Y-46340688D01*
X21299987Y-46345088D01*
X21446250Y-46513938D01*
X21618126Y-46656632D01*
X21688595Y-46697811D01*
X21691445Y-46699476D01*
X21740169Y-46751114D01*
X21753240Y-46820897D01*
X21726509Y-46886669D01*
X21686055Y-46920027D01*
X21673607Y-46926507D01*
X21669474Y-46929610D01*
X21669471Y-46929612D01*
X21645247Y-46947800D01*
X21494965Y-47060635D01*
X21340629Y-47222138D01*
X21337720Y-47226403D01*
X21337714Y-47226411D01*
X21320353Y-47251862D01*
X21214743Y-47406680D01*
X21199003Y-47440590D01*
X21138047Y-47571909D01*
X21120688Y-47609305D01*
X21060989Y-47824570D01*
X21037251Y-48046695D01*
X21037548Y-48051848D01*
X21037548Y-48051851D01*
X21049812Y-48264547D01*
X21050110Y-48269715D01*
X21051247Y-48274761D01*
X21051248Y-48274767D01*
X21063314Y-48328304D01*
X21099222Y-48487639D01*
X21183266Y-48694616D01*
X21234019Y-48777438D01*
X21297291Y-48880688D01*
X21299987Y-48885088D01*
X21446250Y-49053938D01*
X21618126Y-49196632D01*
X21662827Y-49222753D01*
X21691445Y-49239476D01*
X21740169Y-49291114D01*
X21753240Y-49360897D01*
X21726509Y-49426669D01*
X21686055Y-49460027D01*
X21673607Y-49466507D01*
X21669474Y-49469610D01*
X21669471Y-49469612D01*
X21499100Y-49597530D01*
X21494965Y-49600635D01*
X21491393Y-49604373D01*
X21379509Y-49721453D01*
X21340629Y-49762138D01*
X21337720Y-49766403D01*
X21337714Y-49766411D01*
X21329900Y-49777866D01*
X21214743Y-49946680D01*
X21120688Y-50149305D01*
X21060989Y-50364570D01*
X21037251Y-50586695D01*
X21037548Y-50591848D01*
X21037548Y-50591851D01*
X21045264Y-50725668D01*
X21050110Y-50809715D01*
X21051247Y-50814761D01*
X21051248Y-50814767D01*
X21073392Y-50913023D01*
X21099222Y-51027639D01*
X21183266Y-51234616D01*
X21221495Y-51297000D01*
X21297291Y-51420688D01*
X21299987Y-51425088D01*
X21446250Y-51593938D01*
X21618126Y-51736632D01*
X21688595Y-51777811D01*
X21691445Y-51779476D01*
X21740169Y-51831114D01*
X21753240Y-51900897D01*
X21726509Y-51966669D01*
X21686055Y-52000027D01*
X21673607Y-52006507D01*
X21669474Y-52009610D01*
X21669471Y-52009612D01*
X21645247Y-52027800D01*
X21494965Y-52140635D01*
X21491393Y-52144373D01*
X21410906Y-52228598D01*
X21340629Y-52302138D01*
X21337720Y-52306403D01*
X21337714Y-52306411D01*
X21300477Y-52360999D01*
X21214743Y-52486680D01*
X21172818Y-52577000D01*
X21136836Y-52654518D01*
X21120688Y-52689305D01*
X21060989Y-52904570D01*
X21037251Y-53126695D01*
X21037548Y-53131848D01*
X21037548Y-53131851D01*
X21047461Y-53303767D01*
X21050110Y-53349715D01*
X21051247Y-53354761D01*
X21051248Y-53354767D01*
X21062075Y-53402809D01*
X21099222Y-53567639D01*
X21183266Y-53774616D01*
X21234019Y-53857438D01*
X21297291Y-53960688D01*
X21299987Y-53965088D01*
X21446250Y-54133938D01*
X21618126Y-54276632D01*
X21688595Y-54317811D01*
X21691445Y-54319476D01*
X21740169Y-54371114D01*
X21753240Y-54440897D01*
X21726509Y-54506669D01*
X21686055Y-54540027D01*
X21673607Y-54546507D01*
X21669474Y-54549610D01*
X21669471Y-54549612D01*
X21499100Y-54677530D01*
X21494965Y-54680635D01*
X21340629Y-54842138D01*
X21337720Y-54846403D01*
X21337714Y-54846411D01*
X21283429Y-54925990D01*
X21214743Y-55026680D01*
X21120688Y-55229305D01*
X21060989Y-55444570D01*
X21037251Y-55666695D01*
X21037548Y-55671848D01*
X21037548Y-55671851D01*
X21043011Y-55766590D01*
X21050110Y-55889715D01*
X21051247Y-55894761D01*
X21051248Y-55894767D01*
X21071119Y-55982939D01*
X21099222Y-56107639D01*
X21183266Y-56314616D01*
X21234019Y-56397438D01*
X21297291Y-56500688D01*
X21299987Y-56505088D01*
X21446250Y-56673938D01*
X21618126Y-56816632D01*
X21688595Y-56857811D01*
X21691445Y-56859476D01*
X21740169Y-56911114D01*
X21753240Y-56980897D01*
X21726509Y-57046669D01*
X21686055Y-57080027D01*
X21681397Y-57082452D01*
X21673607Y-57086507D01*
X21669474Y-57089610D01*
X21669471Y-57089612D01*
X21645247Y-57107800D01*
X21494965Y-57220635D01*
X21340629Y-57382138D01*
X21214743Y-57566680D01*
X21194884Y-57609463D01*
X21130018Y-57749206D01*
X21120688Y-57769305D01*
X21060989Y-57984570D01*
X21037251Y-58206695D01*
X21037548Y-58211848D01*
X21037548Y-58211851D01*
X21049641Y-58421587D01*
X21050110Y-58429715D01*
X21051247Y-58434761D01*
X21051248Y-58434767D01*
X21068924Y-58513200D01*
X21099222Y-58647639D01*
X21123087Y-58706412D01*
X21173457Y-58830458D01*
X21183266Y-58854616D01*
X21230496Y-58931688D01*
X21297291Y-59040688D01*
X21299987Y-59045088D01*
X21446250Y-59213938D01*
X21502543Y-59260673D01*
X21606238Y-59346762D01*
X21618126Y-59356632D01*
X21641537Y-59370312D01*
X21691445Y-59399476D01*
X21740169Y-59451114D01*
X21753240Y-59520897D01*
X21726509Y-59586669D01*
X21686055Y-59620027D01*
X21673607Y-59626507D01*
X21669474Y-59629610D01*
X21669471Y-59629612D01*
X21499100Y-59757530D01*
X21494965Y-59760635D01*
X21434464Y-59823946D01*
X21349682Y-59912665D01*
X21340629Y-59922138D01*
X21337720Y-59926403D01*
X21337714Y-59926411D01*
X21305727Y-59973303D01*
X21214743Y-60106680D01*
X21184294Y-60172278D01*
X21145057Y-60256807D01*
X21120688Y-60309305D01*
X21060989Y-60524570D01*
X21037251Y-60746695D01*
X21037548Y-60751848D01*
X21037548Y-60751851D01*
X21046823Y-60912714D01*
X21050110Y-60969715D01*
X21051247Y-60974761D01*
X21051248Y-60974767D01*
X21070457Y-61060001D01*
X21099222Y-61187639D01*
X21183266Y-61394616D01*
X21223177Y-61459745D01*
X21297291Y-61580688D01*
X21299987Y-61585088D01*
X21446250Y-61753938D01*
X21522846Y-61817529D01*
X21612558Y-61892009D01*
X21618126Y-61896632D01*
X21636110Y-61907141D01*
X21691445Y-61939476D01*
X21740169Y-61991114D01*
X21753240Y-62060897D01*
X21726509Y-62126669D01*
X21686055Y-62160027D01*
X21673607Y-62166507D01*
X21669474Y-62169610D01*
X21669471Y-62169612D01*
X21645247Y-62187800D01*
X21494965Y-62300635D01*
X21340629Y-62462138D01*
X21337720Y-62466403D01*
X21337714Y-62466411D01*
X21255494Y-62586941D01*
X21214743Y-62646680D01*
X21186055Y-62708484D01*
X21141350Y-62804793D01*
X21120688Y-62849305D01*
X21060989Y-63064570D01*
X21037251Y-63286695D01*
X21037548Y-63291848D01*
X21037548Y-63291851D01*
X21046078Y-63439781D01*
X21050110Y-63509715D01*
X21051247Y-63514761D01*
X21051248Y-63514767D01*
X21072275Y-63608069D01*
X21099222Y-63727639D01*
X21183266Y-63934616D01*
X21220801Y-63995867D01*
X21297291Y-64120688D01*
X21299987Y-64125088D01*
X21446250Y-64293938D01*
X21618126Y-64436632D01*
X21637349Y-64447865D01*
X21691445Y-64479476D01*
X21740169Y-64531114D01*
X21753240Y-64600897D01*
X21726509Y-64666669D01*
X21686055Y-64700027D01*
X21673607Y-64706507D01*
X21669474Y-64709610D01*
X21669471Y-64709612D01*
X21499100Y-64837530D01*
X21494965Y-64840635D01*
X21340629Y-65002138D01*
X21337720Y-65006403D01*
X21337714Y-65006411D01*
X21325404Y-65024457D01*
X21214743Y-65186680D01*
X21120688Y-65389305D01*
X21060989Y-65604570D01*
X21037251Y-65826695D01*
X21037548Y-65831848D01*
X21037548Y-65831851D01*
X21046083Y-65979879D01*
X21050110Y-66049715D01*
X21051247Y-66054761D01*
X21051248Y-66054767D01*
X21065046Y-66115990D01*
X21099222Y-66267639D01*
X21183266Y-66474616D01*
X21229058Y-66549342D01*
X21297291Y-66660688D01*
X21299987Y-66665088D01*
X21446250Y-66833938D01*
X21618126Y-66976632D01*
X21688595Y-67017811D01*
X21691445Y-67019476D01*
X21740169Y-67071114D01*
X21753240Y-67140897D01*
X21726509Y-67206669D01*
X21686055Y-67240027D01*
X21673607Y-67246507D01*
X21669474Y-67249610D01*
X21669471Y-67249612D01*
X21499100Y-67377530D01*
X21494965Y-67380635D01*
X21340629Y-67542138D01*
X21214743Y-67726680D01*
X21182537Y-67796063D01*
X21123176Y-67923946D01*
X21120688Y-67929305D01*
X21060989Y-68144570D01*
X21037251Y-68366695D01*
X21037548Y-68371848D01*
X21037548Y-68371851D01*
X21044524Y-68492832D01*
X21050110Y-68589715D01*
X21051247Y-68594761D01*
X21051248Y-68594767D01*
X21064312Y-68652734D01*
X21099222Y-68807639D01*
X21155529Y-68946307D01*
X21175823Y-68996285D01*
X21183266Y-69014616D01*
X21227587Y-69086941D01*
X21297291Y-69200688D01*
X21299987Y-69205088D01*
X21446250Y-69373938D01*
X21618126Y-69516632D01*
X21679439Y-69552460D01*
X21691445Y-69559476D01*
X21740169Y-69611114D01*
X21753240Y-69680897D01*
X21726509Y-69746669D01*
X21686055Y-69780027D01*
X21673607Y-69786507D01*
X21669474Y-69789610D01*
X21669471Y-69789612D01*
X21499100Y-69917530D01*
X21494965Y-69920635D01*
X21340629Y-70082138D01*
X21337720Y-70086403D01*
X21337714Y-70086411D01*
X21322798Y-70108277D01*
X21214743Y-70266680D01*
X21182206Y-70336775D01*
X21134438Y-70439684D01*
X21120688Y-70469305D01*
X21060989Y-70684570D01*
X21037251Y-70906695D01*
X21037548Y-70911848D01*
X21037548Y-70911851D01*
X21049297Y-71115607D01*
X21050110Y-71129715D01*
X21051247Y-71134761D01*
X21051248Y-71134767D01*
X21074480Y-71237851D01*
X21099222Y-71347639D01*
X21183266Y-71554616D01*
X21223966Y-71621032D01*
X21297291Y-71740688D01*
X21299987Y-71745088D01*
X21446250Y-71913938D01*
X21618126Y-72056632D01*
X21688595Y-72097811D01*
X21691445Y-72099476D01*
X21740169Y-72151114D01*
X21753240Y-72220897D01*
X21726509Y-72286669D01*
X21686055Y-72320027D01*
X21673607Y-72326507D01*
X21669474Y-72329610D01*
X21669471Y-72329612D01*
X21592152Y-72387665D01*
X21494965Y-72460635D01*
X21340629Y-72622138D01*
X21337720Y-72626403D01*
X21337714Y-72626411D01*
X21314893Y-72659865D01*
X21214743Y-72806680D01*
X21200880Y-72836546D01*
X21137619Y-72972831D01*
X21120688Y-73009305D01*
X21060989Y-73224570D01*
X21037251Y-73446695D01*
X21037548Y-73451848D01*
X21037548Y-73451851D01*
X21047569Y-73625652D01*
X21050110Y-73669715D01*
X21051247Y-73674761D01*
X21051248Y-73674767D01*
X21070989Y-73762362D01*
X21099222Y-73887639D01*
X21183266Y-74094616D01*
X21223177Y-74159745D01*
X21297291Y-74280688D01*
X21299987Y-74285088D01*
X21446250Y-74453938D01*
X21542229Y-74533621D01*
X21612558Y-74592009D01*
X21618126Y-74596632D01*
X21673394Y-74628928D01*
X21691445Y-74639476D01*
X21740169Y-74691114D01*
X21753240Y-74760897D01*
X21726509Y-74826669D01*
X21686055Y-74860027D01*
X21682832Y-74861705D01*
X21673607Y-74866507D01*
X21669474Y-74869610D01*
X21669471Y-74869612D01*
X21514330Y-74986095D01*
X21494965Y-75000635D01*
X21466520Y-75030401D01*
X21349746Y-75152598D01*
X21340629Y-75162138D01*
X21337720Y-75166403D01*
X21337714Y-75166411D01*
X21294663Y-75229521D01*
X21214743Y-75346680D01*
X21185470Y-75409743D01*
X21147235Y-75492115D01*
X21120688Y-75549305D01*
X21060989Y-75764570D01*
X21037251Y-75986695D01*
X21037548Y-75991848D01*
X21037548Y-75991851D01*
X21048224Y-76176999D01*
X21050110Y-76209715D01*
X21051247Y-76214761D01*
X21051248Y-76214767D01*
X21071119Y-76302939D01*
X21099222Y-76427639D01*
X21139346Y-76526453D01*
X21169919Y-76601745D01*
X21183266Y-76634616D01*
X21234019Y-76717438D01*
X21297291Y-76820688D01*
X21299987Y-76825088D01*
X21446250Y-76993938D01*
X21618126Y-77136632D01*
X21688595Y-77177811D01*
X21691445Y-77179476D01*
X21740169Y-77231114D01*
X21753240Y-77300897D01*
X21726509Y-77366669D01*
X21686055Y-77400027D01*
X21673607Y-77406507D01*
X21669474Y-77409610D01*
X21669471Y-77409612D01*
X21499100Y-77537530D01*
X21494965Y-77540635D01*
X21491393Y-77544373D01*
X21345118Y-77697441D01*
X21340629Y-77702138D01*
X21214743Y-77886680D01*
X21176698Y-77968642D01*
X21145072Y-78036775D01*
X21120688Y-78089305D01*
X21060989Y-78304570D01*
X21037251Y-78526695D01*
X21037548Y-78531848D01*
X21037548Y-78531851D01*
X21043316Y-78631880D01*
X21050110Y-78749715D01*
X21051247Y-78754761D01*
X21051248Y-78754767D01*
X21075304Y-78861508D01*
X21099222Y-78967639D01*
X21183266Y-79174616D01*
X21234019Y-79257438D01*
X21297291Y-79360688D01*
X21299987Y-79365088D01*
X21446250Y-79533938D01*
X21618126Y-79676632D01*
X21666568Y-79704939D01*
X21691445Y-79719476D01*
X21740169Y-79771114D01*
X21753240Y-79840897D01*
X21726509Y-79906669D01*
X21686055Y-79940027D01*
X21673607Y-79946507D01*
X21669474Y-79949610D01*
X21669471Y-79949612D01*
X21499100Y-80077530D01*
X21494965Y-80080635D01*
X21340629Y-80242138D01*
X21214743Y-80426680D01*
X21120688Y-80629305D01*
X21060989Y-80844570D01*
X21037251Y-81066695D01*
X21037548Y-81071848D01*
X21037548Y-81071851D01*
X21044795Y-81197542D01*
X21050110Y-81289715D01*
X21051247Y-81294761D01*
X21051248Y-81294767D01*
X21071119Y-81382939D01*
X21099222Y-81507639D01*
X21183266Y-81714616D01*
X21234019Y-81797438D01*
X21297291Y-81900688D01*
X21299987Y-81905088D01*
X21446250Y-82073938D01*
X21618126Y-82216632D01*
X21688595Y-82257811D01*
X21691445Y-82259476D01*
X21740169Y-82311114D01*
X21753240Y-82380897D01*
X21726509Y-82446669D01*
X21686055Y-82480027D01*
X21673607Y-82486507D01*
X21669474Y-82489610D01*
X21669471Y-82489612D01*
X21645247Y-82507800D01*
X21494965Y-82620635D01*
X21340629Y-82782138D01*
X21214743Y-82966680D01*
X21120688Y-83169305D01*
X21060989Y-83384570D01*
X21037251Y-83606695D01*
X21037548Y-83611848D01*
X21037548Y-83611851D01*
X21049557Y-83820121D01*
X21050110Y-83829715D01*
X21051247Y-83834761D01*
X21051248Y-83834767D01*
X21071119Y-83922939D01*
X21099222Y-84047639D01*
X21183266Y-84254616D01*
X21234019Y-84337438D01*
X21297291Y-84440688D01*
X21299987Y-84445088D01*
X21446250Y-84613938D01*
X21618126Y-84756632D01*
X21688595Y-84797811D01*
X21691445Y-84799476D01*
X21740169Y-84851114D01*
X21753240Y-84920897D01*
X21726509Y-84986669D01*
X21686055Y-85020027D01*
X21673607Y-85026507D01*
X21669474Y-85029610D01*
X21669471Y-85029612D01*
X21499100Y-85157530D01*
X21494965Y-85160635D01*
X21491393Y-85164373D01*
X21361785Y-85300000D01*
X21340629Y-85322138D01*
X21214743Y-85506680D01*
X21120688Y-85709305D01*
X21060989Y-85924570D01*
X21037251Y-86146695D01*
X21037548Y-86151848D01*
X21037548Y-86151851D01*
X21043011Y-86246590D01*
X21050110Y-86369715D01*
X21051247Y-86374761D01*
X21051248Y-86374767D01*
X21071119Y-86462939D01*
X21099222Y-86587639D01*
X21183266Y-86794616D01*
X21234019Y-86877438D01*
X21297291Y-86980688D01*
X21299987Y-86985088D01*
X21446250Y-87153938D01*
X21618126Y-87296632D01*
X21688595Y-87337811D01*
X21691445Y-87339476D01*
X21740169Y-87391114D01*
X21753240Y-87460897D01*
X21726509Y-87526669D01*
X21686055Y-87560027D01*
X21673607Y-87566507D01*
X21669474Y-87569610D01*
X21669471Y-87569612D01*
X21645247Y-87587800D01*
X21494965Y-87700635D01*
X21340629Y-87862138D01*
X21214743Y-88046680D01*
X21120688Y-88249305D01*
X21060989Y-88464570D01*
X21037251Y-88686695D01*
X20508500Y-88686695D01*
X20508500Y-20634500D01*
X20528502Y-20566379D01*
X20582158Y-20519886D01*
X20634500Y-20508500D01*
X65317051Y-20508500D01*
X65385172Y-20528502D01*
G37*
%TD.AperFunction*%
%TA.AperFunction,Conductor*%
G36*
X55316930Y-58837002D02*
G01*
X55337904Y-58853905D01*
X60086095Y-63602096D01*
X60120121Y-63664408D01*
X60123000Y-63691191D01*
X60123000Y-63953923D01*
X60121922Y-63970370D01*
X60118021Y-64000000D01*
X60119099Y-64008188D01*
X60123000Y-64037818D01*
X60123000Y-64037820D01*
X60133910Y-64120688D01*
X60137851Y-64150627D01*
X60141011Y-64158256D01*
X60162034Y-64209010D01*
X60183150Y-64259988D01*
X60195991Y-64290990D01*
X60249845Y-64361173D01*
X60288479Y-64411521D01*
X60295025Y-64416544D01*
X60312196Y-64429720D01*
X60324586Y-64440587D01*
X64005804Y-68121805D01*
X64039830Y-68184117D01*
X64034765Y-68254932D01*
X63992218Y-68311768D01*
X63925698Y-68336579D01*
X63856324Y-68321488D01*
X63849196Y-68317286D01*
X63842761Y-68313203D01*
X63836814Y-68309429D01*
X63809509Y-68299706D01*
X63682083Y-68254331D01*
X63682081Y-68254330D01*
X63675449Y-68251969D01*
X63668463Y-68251136D01*
X63668459Y-68251135D01*
X63548217Y-68236798D01*
X63505364Y-68231688D01*
X63498361Y-68232424D01*
X63498360Y-68232424D01*
X63456591Y-68236814D01*
X63335012Y-68249592D01*
X63328344Y-68251862D01*
X63179528Y-68302523D01*
X63179525Y-68302524D01*
X63172861Y-68304793D01*
X63026968Y-68394547D01*
X63021937Y-68399473D01*
X63021934Y-68399476D01*
X62983848Y-68436773D01*
X62904586Y-68514392D01*
X62811797Y-68658373D01*
X62809388Y-68664993D01*
X62809387Y-68664994D01*
X62805868Y-68674662D01*
X62753212Y-68819333D01*
X62731744Y-68989272D01*
X62748459Y-69159745D01*
X62802526Y-69322278D01*
X62838458Y-69381608D01*
X62874532Y-69441173D01*
X62891259Y-69468793D01*
X63010247Y-69592009D01*
X63153577Y-69685801D01*
X63314124Y-69745508D01*
X63321105Y-69746439D01*
X63321107Y-69746440D01*
X63352721Y-69750658D01*
X63405000Y-69757634D01*
X63469876Y-69786468D01*
X63477430Y-69793431D01*
X63491904Y-69807905D01*
X63525930Y-69870217D01*
X63520865Y-69941032D01*
X63478318Y-69997868D01*
X63411798Y-70022679D01*
X63402809Y-70023000D01*
X61891192Y-70023000D01*
X61823071Y-70002998D01*
X61802097Y-69986095D01*
X60440583Y-68624582D01*
X60429716Y-68612191D01*
X60416550Y-68595032D01*
X60416547Y-68595029D01*
X60411521Y-68588479D01*
X60400735Y-68580202D01*
X60381258Y-68565257D01*
X60297540Y-68501017D01*
X60290990Y-68495991D01*
X60220009Y-68466590D01*
X60150627Y-68437851D01*
X60142439Y-68436773D01*
X60037823Y-68423000D01*
X60037818Y-68423000D01*
X60000000Y-68418021D01*
X59991812Y-68419099D01*
X59970368Y-68421922D01*
X59953922Y-68423000D01*
X59826530Y-68423000D01*
X59758409Y-68402998D01*
X59711916Y-68349342D01*
X59701812Y-68279068D01*
X59731306Y-68214488D01*
X59745625Y-68200782D01*
X59749348Y-68198478D01*
X59874305Y-68073303D01*
X59908546Y-68017754D01*
X59963275Y-67928968D01*
X59963276Y-67928966D01*
X59967115Y-67922738D01*
X60015319Y-67777407D01*
X60020632Y-67761389D01*
X60020632Y-67761387D01*
X60022797Y-67754861D01*
X60023613Y-67746903D01*
X60030005Y-67684512D01*
X60033500Y-67650400D01*
X60033500Y-67049600D01*
X60031718Y-67032424D01*
X60023238Y-66950692D01*
X60023237Y-66950688D01*
X60022526Y-66943834D01*
X60009294Y-66904171D01*
X59968868Y-66783002D01*
X59966550Y-66776054D01*
X59873478Y-66625652D01*
X59748303Y-66500695D01*
X59743765Y-66497898D01*
X59703176Y-66440647D01*
X59699946Y-66369724D01*
X59735572Y-66308313D01*
X59744068Y-66300938D01*
X59754207Y-66292902D01*
X59868739Y-66178171D01*
X59877751Y-66166760D01*
X59962816Y-66028757D01*
X59968963Y-66015576D01*
X60020138Y-65861290D01*
X60023005Y-65847914D01*
X60032672Y-65753562D01*
X60033000Y-65747146D01*
X60033000Y-65722115D01*
X60028525Y-65706876D01*
X60027135Y-65705671D01*
X60019452Y-65704000D01*
X57585116Y-65704000D01*
X57569877Y-65708475D01*
X57568672Y-65709865D01*
X57567001Y-65717548D01*
X57567001Y-65747095D01*
X57567338Y-65753614D01*
X57577257Y-65849206D01*
X57580149Y-65862600D01*
X57631588Y-66016784D01*
X57637761Y-66029962D01*
X57723063Y-66167807D01*
X57732099Y-66179208D01*
X57846828Y-66293738D01*
X57855762Y-66300794D01*
X57896823Y-66358712D01*
X57900053Y-66429635D01*
X57864426Y-66491046D01*
X57856593Y-66497846D01*
X57850652Y-66501522D01*
X57725695Y-66626697D01*
X57721855Y-66632927D01*
X57721854Y-66632928D01*
X57679967Y-66700882D01*
X57632885Y-66777262D01*
X57606436Y-66857005D01*
X57587797Y-66913200D01*
X57577203Y-66945139D01*
X57566500Y-67049600D01*
X57566500Y-67650400D01*
X57566837Y-67653646D01*
X57566837Y-67653650D01*
X57576716Y-67748856D01*
X57577474Y-67756166D01*
X57579655Y-67762702D01*
X57579655Y-67762704D01*
X57599772Y-67823000D01*
X57633450Y-67923946D01*
X57726522Y-68074348D01*
X57851697Y-68199305D01*
X57857927Y-68203145D01*
X57857928Y-68203146D01*
X57992019Y-68285801D01*
X58002262Y-68292115D01*
X58095767Y-68323129D01*
X58136667Y-68336695D01*
X58195027Y-68377126D01*
X58222264Y-68442690D01*
X58223000Y-68456288D01*
X58223000Y-68753923D01*
X58221922Y-68770370D01*
X58218021Y-68800000D01*
X58219099Y-68808188D01*
X58223000Y-68837818D01*
X58223000Y-68837819D01*
X58229220Y-68885064D01*
X58218281Y-68955213D01*
X58193393Y-68990606D01*
X57774582Y-69409417D01*
X57762191Y-69420284D01*
X57738479Y-69438479D01*
X57715258Y-69468741D01*
X57715257Y-69468742D01*
X57645991Y-69559010D01*
X57642832Y-69566636D01*
X57642831Y-69566638D01*
X57631771Y-69593340D01*
X57593473Y-69685801D01*
X57587851Y-69699373D01*
X57573362Y-69809429D01*
X57568021Y-69850000D01*
X57569099Y-69858188D01*
X57571922Y-69879632D01*
X57573000Y-69896078D01*
X57573000Y-69988009D01*
X57552998Y-70056130D01*
X57508806Y-70097319D01*
X57503295Y-70099385D01*
X57496116Y-70104765D01*
X57496113Y-70104767D01*
X57419689Y-70162044D01*
X57386739Y-70186739D01*
X57299385Y-70303295D01*
X57248255Y-70439684D01*
X57241500Y-70501866D01*
X57241500Y-71498134D01*
X57248255Y-71560316D01*
X57251027Y-71567712D01*
X57251029Y-71567718D01*
X57284306Y-71656483D01*
X57289489Y-71727290D01*
X57284306Y-71744941D01*
X57251522Y-71832391D01*
X57247895Y-71847649D01*
X57242369Y-71898514D01*
X57242000Y-71905328D01*
X57242000Y-72127885D01*
X57246475Y-72143124D01*
X57247865Y-72144329D01*
X57255548Y-72146000D01*
X58215500Y-72146000D01*
X58283621Y-72166002D01*
X58330114Y-72219658D01*
X58341500Y-72272000D01*
X58341500Y-72898134D01*
X58341869Y-72901531D01*
X58342029Y-72903000D01*
X58348255Y-72960316D01*
X58351027Y-72967712D01*
X58351029Y-72967718D01*
X58395982Y-73087629D01*
X58404000Y-73131858D01*
X58404000Y-73339884D01*
X58408475Y-73355123D01*
X58409865Y-73356328D01*
X58413801Y-73357184D01*
X58476113Y-73391209D01*
X58510138Y-73453521D01*
X58505074Y-73524337D01*
X58462527Y-73581173D01*
X58426895Y-73599828D01*
X58408007Y-73606130D01*
X58408005Y-73606131D01*
X58401054Y-73608450D01*
X58250652Y-73701522D01*
X58125695Y-73826697D01*
X58121855Y-73832927D01*
X58121854Y-73832928D01*
X58085180Y-73892425D01*
X58032885Y-73977262D01*
X57977203Y-74145139D01*
X57966500Y-74249600D01*
X57966500Y-74850400D01*
X57966837Y-74853646D01*
X57966837Y-74853650D01*
X57975115Y-74933428D01*
X57977474Y-74956166D01*
X57979655Y-74962702D01*
X57979655Y-74962704D01*
X57999772Y-75023000D01*
X58033450Y-75123946D01*
X58126522Y-75274348D01*
X58131704Y-75279521D01*
X58171871Y-75319618D01*
X58251697Y-75399305D01*
X58256235Y-75402102D01*
X58296824Y-75459353D01*
X58300054Y-75530276D01*
X58264428Y-75591687D01*
X58255932Y-75599062D01*
X58245793Y-75607098D01*
X58131261Y-75721829D01*
X58122249Y-75733240D01*
X58037184Y-75871243D01*
X58031037Y-75884424D01*
X57979862Y-76038710D01*
X57976995Y-76052086D01*
X57967328Y-76146438D01*
X57967000Y-76152855D01*
X57967000Y-76177885D01*
X57971475Y-76193124D01*
X57972865Y-76194329D01*
X57980548Y-76196000D01*
X60414884Y-76196000D01*
X60430123Y-76191525D01*
X60431328Y-76190135D01*
X60432999Y-76182452D01*
X60432999Y-76152905D01*
X60432662Y-76146386D01*
X60422743Y-76050794D01*
X60419851Y-76037400D01*
X60368412Y-75883216D01*
X60362239Y-75870038D01*
X60276937Y-75732193D01*
X60267901Y-75720792D01*
X60153172Y-75606262D01*
X60144238Y-75599206D01*
X60103177Y-75541288D01*
X60099947Y-75470365D01*
X60135574Y-75408954D01*
X60143407Y-75402154D01*
X60149348Y-75398478D01*
X60274305Y-75273303D01*
X60283514Y-75258363D01*
X60363275Y-75128968D01*
X60363276Y-75128966D01*
X60367115Y-75122738D01*
X60398208Y-75028994D01*
X60420632Y-74961389D01*
X60420632Y-74961387D01*
X60422797Y-74954861D01*
X60424609Y-74937182D01*
X60429996Y-74884598D01*
X60433500Y-74850400D01*
X60433500Y-74249600D01*
X60428222Y-74198733D01*
X60423238Y-74150692D01*
X60423237Y-74150688D01*
X60422526Y-74143834D01*
X60416968Y-74127173D01*
X60368868Y-73983002D01*
X60366550Y-73976054D01*
X60273478Y-73825652D01*
X60148303Y-73700695D01*
X60117940Y-73681979D01*
X60003968Y-73611725D01*
X60003966Y-73611724D01*
X59997738Y-73607885D01*
X59939273Y-73588493D01*
X59913333Y-73579889D01*
X59854973Y-73539458D01*
X59827736Y-73473894D01*
X59827000Y-73460296D01*
X59827000Y-73411991D01*
X59847002Y-73343870D01*
X59891194Y-73302681D01*
X59896705Y-73300615D01*
X59903884Y-73295235D01*
X59903887Y-73295233D01*
X60006081Y-73218642D01*
X60013261Y-73213261D01*
X60042726Y-73173946D01*
X60095233Y-73103887D01*
X60095235Y-73103884D01*
X60100615Y-73096705D01*
X60114836Y-73058770D01*
X60157478Y-73002006D01*
X60224040Y-72977306D01*
X60232818Y-72977000D01*
X61676953Y-72977000D01*
X61745074Y-72997002D01*
X61791567Y-73050658D01*
X61796475Y-73063120D01*
X61800449Y-73075029D01*
X61813987Y-73115607D01*
X61832767Y-73171898D01*
X61832767Y-73171900D01*
X61833450Y-73173946D01*
X61833100Y-73174063D01*
X61843231Y-73239976D01*
X61814365Y-73304840D01*
X61755014Y-73343801D01*
X61731350Y-73348581D01*
X61718111Y-73349955D01*
X61700693Y-73351762D01*
X61700690Y-73351763D01*
X61693834Y-73352474D01*
X61687298Y-73354655D01*
X61687296Y-73354655D01*
X61555194Y-73398728D01*
X61526054Y-73408450D01*
X61375652Y-73501522D01*
X61250695Y-73626697D01*
X61246855Y-73632927D01*
X61246854Y-73632928D01*
X61167070Y-73762362D01*
X61157885Y-73777262D01*
X61102203Y-73945139D01*
X61091500Y-74049600D01*
X61091500Y-74800400D01*
X61091837Y-74803646D01*
X61091837Y-74803650D01*
X61100172Y-74883978D01*
X61102474Y-74906166D01*
X61104655Y-74912702D01*
X61104655Y-74912704D01*
X61140401Y-75019848D01*
X61158450Y-75073946D01*
X61251522Y-75224348D01*
X61376697Y-75349305D01*
X61382927Y-75353145D01*
X61382928Y-75353146D01*
X61520090Y-75437694D01*
X61527262Y-75442115D01*
X61579233Y-75459353D01*
X61688611Y-75495632D01*
X61688613Y-75495632D01*
X61695139Y-75497797D01*
X61701975Y-75498497D01*
X61701978Y-75498498D01*
X61745031Y-75502909D01*
X61799600Y-75508500D01*
X63200400Y-75508500D01*
X63203646Y-75508163D01*
X63203650Y-75508163D01*
X63299308Y-75498238D01*
X63299312Y-75498237D01*
X63306166Y-75497526D01*
X63312702Y-75495345D01*
X63312704Y-75495345D01*
X63444806Y-75451272D01*
X63473946Y-75441550D01*
X63624348Y-75348478D01*
X63749305Y-75223303D01*
X63770896Y-75188277D01*
X63839804Y-75076487D01*
X63892576Y-75028994D01*
X63962648Y-75017570D01*
X64016056Y-75037170D01*
X64043130Y-75054886D01*
X64128577Y-75110801D01*
X64289124Y-75170508D01*
X64296105Y-75171439D01*
X64296107Y-75171440D01*
X64451928Y-75192231D01*
X64451932Y-75192231D01*
X64458909Y-75193162D01*
X64465920Y-75192524D01*
X64465924Y-75192524D01*
X64622473Y-75178277D01*
X64622474Y-75178277D01*
X64629494Y-75177638D01*
X64677198Y-75162138D01*
X64785702Y-75126883D01*
X64785705Y-75126882D01*
X64792401Y-75124706D01*
X64803449Y-75118120D01*
X64933480Y-75040607D01*
X64933482Y-75040606D01*
X64939532Y-75036999D01*
X64944633Y-75032142D01*
X64950246Y-75027881D01*
X64952158Y-75030401D01*
X65002848Y-75004275D01*
X65026681Y-75002000D01*
X65105608Y-75002000D01*
X65173729Y-75022002D01*
X65212752Y-75061697D01*
X65251522Y-75124348D01*
X65319524Y-75192231D01*
X65338109Y-75210784D01*
X65372188Y-75273066D01*
X65367185Y-75343886D01*
X65338264Y-75388975D01*
X65289630Y-75437694D01*
X65250695Y-75476697D01*
X65246855Y-75482927D01*
X65246854Y-75482928D01*
X65170830Y-75606262D01*
X65157885Y-75627262D01*
X65102203Y-75795139D01*
X65101503Y-75801975D01*
X65101502Y-75801978D01*
X65097091Y-75845031D01*
X65091500Y-75899600D01*
X65091500Y-76525400D01*
X65091837Y-76528646D01*
X65091837Y-76528650D01*
X65099510Y-76602598D01*
X65102474Y-76631166D01*
X65104655Y-76637702D01*
X65104655Y-76637704D01*
X65119486Y-76682158D01*
X65158450Y-76798946D01*
X65251522Y-76949348D01*
X65376697Y-77074305D01*
X65382927Y-77078145D01*
X65382928Y-77078146D01*
X65520090Y-77162694D01*
X65527262Y-77167115D01*
X65598960Y-77190896D01*
X65636667Y-77203403D01*
X65695027Y-77243834D01*
X65722264Y-77309398D01*
X65723000Y-77322996D01*
X65723000Y-77648735D01*
X65702911Y-77716990D01*
X65615616Y-77852445D01*
X65615612Y-77852454D01*
X65611797Y-77858373D01*
X65609388Y-77864993D01*
X65609387Y-77864994D01*
X65566436Y-77983000D01*
X65553212Y-78019333D01*
X65531744Y-78189272D01*
X65548459Y-78359745D01*
X65602526Y-78522278D01*
X65608324Y-78531851D01*
X65668904Y-78631880D01*
X65691259Y-78668793D01*
X65810247Y-78792009D01*
X65953577Y-78885801D01*
X66114124Y-78945508D01*
X66121105Y-78946439D01*
X66121107Y-78946440D01*
X66276928Y-78967231D01*
X66276932Y-78967231D01*
X66283909Y-78968162D01*
X66290920Y-78967524D01*
X66290924Y-78967524D01*
X66447473Y-78953277D01*
X66447474Y-78953277D01*
X66454494Y-78952638D01*
X66483993Y-78943053D01*
X66610702Y-78901883D01*
X66610705Y-78901882D01*
X66617401Y-78899706D01*
X66640727Y-78885801D01*
X66758480Y-78815607D01*
X66758482Y-78815606D01*
X66764532Y-78811999D01*
X66888576Y-78693874D01*
X66983366Y-78551203D01*
X67044192Y-78391076D01*
X67055767Y-78308713D01*
X67067482Y-78225362D01*
X67067482Y-78225356D01*
X67068031Y-78221453D01*
X67068331Y-78200000D01*
X67049237Y-78029777D01*
X67041056Y-78006284D01*
X66995221Y-77874662D01*
X66995220Y-77874660D01*
X66992906Y-77868015D01*
X66981153Y-77849206D01*
X66905867Y-77728723D01*
X66905865Y-77728720D01*
X66902136Y-77722753D01*
X66902554Y-77722492D01*
X66877617Y-77660876D01*
X66877000Y-77648425D01*
X66877000Y-77323047D01*
X66897002Y-77254926D01*
X66950658Y-77208433D01*
X66963120Y-77203525D01*
X67073946Y-77166550D01*
X67224348Y-77073478D01*
X67349305Y-76948303D01*
X67356200Y-76937118D01*
X67438275Y-76803968D01*
X67438276Y-76803966D01*
X67442115Y-76797738D01*
X67497797Y-76629861D01*
X67500024Y-76608131D01*
X67503849Y-76570792D01*
X67508500Y-76525400D01*
X67508500Y-75899600D01*
X67508163Y-75896350D01*
X67498238Y-75800692D01*
X67498237Y-75800688D01*
X67497526Y-75793834D01*
X67441550Y-75626054D01*
X67348478Y-75475652D01*
X67261891Y-75389216D01*
X67227812Y-75326934D01*
X67232815Y-75256114D01*
X67261736Y-75211025D01*
X67314538Y-75158131D01*
X67330860Y-75141780D01*
X67393142Y-75107701D01*
X67463962Y-75112704D01*
X67520835Y-75155201D01*
X67536442Y-75182580D01*
X67570991Y-75265990D01*
X67576017Y-75272540D01*
X67577404Y-75274348D01*
X67636623Y-75351522D01*
X67663479Y-75386521D01*
X67670025Y-75391544D01*
X67687196Y-75404720D01*
X67699586Y-75415587D01*
X68259413Y-75975414D01*
X68270280Y-75987804D01*
X68288479Y-76011521D01*
X68295029Y-76016547D01*
X68295032Y-76016550D01*
X68341344Y-76052086D01*
X68409011Y-76104009D01*
X68549373Y-76162149D01*
X68557561Y-76163227D01*
X68662169Y-76176999D01*
X68662178Y-76177000D01*
X68662181Y-76177000D01*
X68662193Y-76177001D01*
X68691810Y-76180900D01*
X68691811Y-76180900D01*
X68700000Y-76181978D01*
X68729626Y-76178078D01*
X68746070Y-76177000D01*
X70508809Y-76177000D01*
X70576930Y-76197002D01*
X70597904Y-76213905D01*
X70786095Y-76402096D01*
X70820121Y-76464408D01*
X70823000Y-76491191D01*
X70823000Y-76669538D01*
X70802998Y-76737659D01*
X70763303Y-76776682D01*
X70697513Y-76817394D01*
X70697506Y-76817400D01*
X70691287Y-76821248D01*
X70570448Y-76942298D01*
X70566608Y-76948528D01*
X70566607Y-76948529D01*
X70485255Y-77080507D01*
X70480698Y-77087899D01*
X70426851Y-77250243D01*
X70416500Y-77351268D01*
X70416500Y-77898732D01*
X70416837Y-77901978D01*
X70416837Y-77901982D01*
X70417959Y-77912792D01*
X70427113Y-78001019D01*
X70429295Y-78007559D01*
X70478537Y-78155153D01*
X70481244Y-78163268D01*
X70485096Y-78169492D01*
X70485096Y-78169493D01*
X70514808Y-78217507D01*
X70571248Y-78308713D01*
X70576430Y-78313886D01*
X70580977Y-78319623D01*
X70579170Y-78321055D01*
X70607902Y-78373575D01*
X70602892Y-78444395D01*
X70579501Y-78480853D01*
X70580552Y-78481683D01*
X70567002Y-78498840D01*
X70484996Y-78631880D01*
X70478849Y-78645061D01*
X70429509Y-78793814D01*
X70426642Y-78807190D01*
X70417328Y-78898097D01*
X70417071Y-78903126D01*
X70421475Y-78918124D01*
X70422865Y-78919329D01*
X70430548Y-78921000D01*
X72364885Y-78921000D01*
X72380124Y-78916525D01*
X72381329Y-78915135D01*
X72383000Y-78907452D01*
X72383000Y-78904562D01*
X72382663Y-78898047D01*
X72373106Y-78805943D01*
X72370212Y-78792544D01*
X72320619Y-78643893D01*
X72314445Y-78630714D01*
X72232212Y-78497827D01*
X72218629Y-78480689D01*
X72220559Y-78479159D01*
X72192097Y-78427120D01*
X72197113Y-78356301D01*
X72220799Y-78319383D01*
X72219843Y-78318628D01*
X72224381Y-78312882D01*
X72229552Y-78307702D01*
X72238159Y-78293739D01*
X72315462Y-78168331D01*
X72315463Y-78168329D01*
X72319302Y-78162101D01*
X72373149Y-77999757D01*
X72374977Y-77981922D01*
X72382192Y-77911498D01*
X72383500Y-77898732D01*
X72383500Y-77351268D01*
X72372887Y-77248981D01*
X72335404Y-77136632D01*
X72321073Y-77093676D01*
X72321072Y-77093674D01*
X72318756Y-77086732D01*
X72307348Y-77068296D01*
X72232606Y-76947515D01*
X72228752Y-76941287D01*
X72107702Y-76820448D01*
X72072820Y-76798946D01*
X72036884Y-76776795D01*
X71989391Y-76724023D01*
X71977000Y-76669535D01*
X71977000Y-76472191D01*
X71997002Y-76404070D01*
X72050658Y-76357577D01*
X72120932Y-76347473D01*
X72185512Y-76376967D01*
X72192011Y-76383012D01*
X72239947Y-76430864D01*
X72246177Y-76434704D01*
X72246178Y-76434705D01*
X72267849Y-76448063D01*
X72384308Y-76519849D01*
X72391256Y-76522154D01*
X72391257Y-76522154D01*
X72538738Y-76571072D01*
X72538740Y-76571072D01*
X72545269Y-76573238D01*
X72645428Y-76583500D01*
X73179572Y-76583500D01*
X73182818Y-76583163D01*
X73182822Y-76583163D01*
X73216603Y-76579658D01*
X73280982Y-76572978D01*
X73441849Y-76519308D01*
X73586055Y-76430071D01*
X73610887Y-76405195D01*
X73673168Y-76371116D01*
X73743988Y-76376118D01*
X73789078Y-76405040D01*
X73814947Y-76430864D01*
X73821177Y-76434704D01*
X73821178Y-76434705D01*
X73842849Y-76448063D01*
X73959308Y-76519849D01*
X73966256Y-76522154D01*
X73966257Y-76522154D01*
X74113738Y-76571072D01*
X74113740Y-76571072D01*
X74120269Y-76573238D01*
X74220428Y-76583500D01*
X74754572Y-76583500D01*
X74757818Y-76583163D01*
X74757822Y-76583163D01*
X74791603Y-76579658D01*
X74855982Y-76572978D01*
X75016849Y-76519308D01*
X75161055Y-76430071D01*
X75280864Y-76310053D01*
X75290962Y-76293672D01*
X75325966Y-76236884D01*
X75378738Y-76189391D01*
X75433226Y-76177000D01*
X75697000Y-76177000D01*
X75765121Y-76197002D01*
X75811614Y-76250658D01*
X75823000Y-76303000D01*
X75823000Y-76669538D01*
X75802998Y-76737659D01*
X75763303Y-76776682D01*
X75697513Y-76817394D01*
X75697506Y-76817400D01*
X75691287Y-76821248D01*
X75570448Y-76942298D01*
X75566608Y-76948528D01*
X75566607Y-76948529D01*
X75485255Y-77080507D01*
X75480698Y-77087899D01*
X75426851Y-77250243D01*
X75416500Y-77351268D01*
X75416500Y-77898732D01*
X75416837Y-77901978D01*
X75416837Y-77901982D01*
X75417959Y-77912792D01*
X75427113Y-78001019D01*
X75429295Y-78007559D01*
X75478537Y-78155153D01*
X75481244Y-78163268D01*
X75485096Y-78169492D01*
X75485096Y-78169493D01*
X75514808Y-78217507D01*
X75571248Y-78308713D01*
X75576430Y-78313886D01*
X75580977Y-78319623D01*
X75579170Y-78321055D01*
X75607902Y-78373575D01*
X75602892Y-78444395D01*
X75579501Y-78480853D01*
X75580552Y-78481683D01*
X75567002Y-78498840D01*
X75484996Y-78631880D01*
X75478849Y-78645061D01*
X75429509Y-78793814D01*
X75426642Y-78807190D01*
X75417328Y-78898097D01*
X75417071Y-78903126D01*
X75421475Y-78918124D01*
X75422865Y-78919329D01*
X75430548Y-78921000D01*
X77364885Y-78921000D01*
X77380124Y-78916525D01*
X77381329Y-78915135D01*
X77383000Y-78907452D01*
X77383000Y-78904562D01*
X77382663Y-78898047D01*
X77373106Y-78805943D01*
X77370212Y-78792544D01*
X77320619Y-78643893D01*
X77314445Y-78630714D01*
X77232212Y-78497827D01*
X77218629Y-78480689D01*
X77220559Y-78479159D01*
X77192097Y-78427120D01*
X77197113Y-78356301D01*
X77220799Y-78319383D01*
X77219843Y-78318628D01*
X77224381Y-78312882D01*
X77229552Y-78307702D01*
X77238159Y-78293739D01*
X77315462Y-78168331D01*
X77315463Y-78168329D01*
X77319302Y-78162101D01*
X77373149Y-77999757D01*
X77374977Y-77981922D01*
X77382192Y-77911498D01*
X77383500Y-77898732D01*
X77383500Y-77351268D01*
X77372887Y-77248981D01*
X77335404Y-77136632D01*
X77321073Y-77093676D01*
X77321072Y-77093674D01*
X77318756Y-77086732D01*
X77307348Y-77068296D01*
X77232606Y-76947515D01*
X77228752Y-76941287D01*
X77107702Y-76820448D01*
X77072820Y-76798946D01*
X77036884Y-76776795D01*
X76989391Y-76724023D01*
X76977000Y-76669535D01*
X76977000Y-76303000D01*
X76997002Y-76234879D01*
X77050658Y-76188386D01*
X77103000Y-76177000D01*
X79223438Y-76177000D01*
X79291559Y-76197002D01*
X79338052Y-76250658D01*
X79341420Y-76258771D01*
X79355555Y-76296475D01*
X79374385Y-76346705D01*
X79461739Y-76463261D01*
X79578295Y-76550615D01*
X79714684Y-76601745D01*
X79776866Y-76608500D01*
X80140500Y-76608500D01*
X80208621Y-76628502D01*
X80255114Y-76682158D01*
X80266500Y-76734500D01*
X80266500Y-77648134D01*
X80273255Y-77710316D01*
X80324385Y-77846705D01*
X80411739Y-77963261D01*
X80528295Y-78050615D01*
X80664684Y-78101745D01*
X80726866Y-78108500D01*
X83023134Y-78108500D01*
X83085316Y-78101745D01*
X83221705Y-78050615D01*
X83338261Y-77963261D01*
X83425615Y-77846705D01*
X83476745Y-77710316D01*
X83483500Y-77648134D01*
X83483500Y-76501866D01*
X83476745Y-76439684D01*
X83425615Y-76303295D01*
X83338261Y-76186739D01*
X83221705Y-76099385D01*
X83085316Y-76048255D01*
X83023134Y-76041500D01*
X81509500Y-76041500D01*
X81441379Y-76021498D01*
X81394886Y-75967842D01*
X81383500Y-75915500D01*
X81383500Y-75284500D01*
X81403502Y-75216379D01*
X81457158Y-75169886D01*
X81509500Y-75158500D01*
X83023134Y-75158500D01*
X83085316Y-75151745D01*
X83221705Y-75100615D01*
X83338261Y-75013261D01*
X83425615Y-74896705D01*
X83476745Y-74760316D01*
X83483500Y-74698134D01*
X83483500Y-73803000D01*
X83503502Y-73734879D01*
X83557158Y-73688386D01*
X83609500Y-73677000D01*
X84997000Y-73677000D01*
X85065121Y-73697002D01*
X85111614Y-73750658D01*
X85123000Y-73803000D01*
X85123000Y-80608809D01*
X85102998Y-80676930D01*
X85086095Y-80697904D01*
X81997904Y-83786095D01*
X81935592Y-83820121D01*
X81908809Y-83823000D01*
X48991192Y-83823000D01*
X48923071Y-83802998D01*
X48902097Y-83786095D01*
X44561439Y-79445438D01*
X70417000Y-79445438D01*
X70417337Y-79451953D01*
X70426894Y-79544057D01*
X70429788Y-79557456D01*
X70479381Y-79706107D01*
X70485555Y-79719286D01*
X70567788Y-79852173D01*
X70576824Y-79863574D01*
X70687429Y-79973986D01*
X70698840Y-79982998D01*
X70831880Y-80065004D01*
X70845061Y-80071151D01*
X70993814Y-80120491D01*
X71007190Y-80123358D01*
X71098097Y-80132672D01*
X71104513Y-80133000D01*
X71127885Y-80133000D01*
X71143124Y-80128525D01*
X71144329Y-80127135D01*
X71146000Y-80119452D01*
X71146000Y-80114885D01*
X71654000Y-80114885D01*
X71658475Y-80130124D01*
X71659865Y-80131329D01*
X71667548Y-80133000D01*
X71695438Y-80133000D01*
X71701953Y-80132663D01*
X71794057Y-80123106D01*
X71807456Y-80120212D01*
X71956107Y-80070619D01*
X71969286Y-80064445D01*
X72102173Y-79982212D01*
X72113574Y-79973176D01*
X72223986Y-79862571D01*
X72232998Y-79851160D01*
X72315004Y-79718120D01*
X72321151Y-79704939D01*
X72370491Y-79556186D01*
X72373358Y-79542810D01*
X72382672Y-79451903D01*
X72382929Y-79446874D01*
X72382507Y-79445438D01*
X75417000Y-79445438D01*
X75417337Y-79451953D01*
X75426894Y-79544057D01*
X75429788Y-79557456D01*
X75479381Y-79706107D01*
X75485555Y-79719286D01*
X75567788Y-79852173D01*
X75576824Y-79863574D01*
X75687429Y-79973986D01*
X75698840Y-79982998D01*
X75831880Y-80065004D01*
X75845061Y-80071151D01*
X75993814Y-80120491D01*
X76007190Y-80123358D01*
X76098097Y-80132672D01*
X76104513Y-80133000D01*
X76127885Y-80133000D01*
X76143124Y-80128525D01*
X76144329Y-80127135D01*
X76146000Y-80119452D01*
X76146000Y-80114885D01*
X76654000Y-80114885D01*
X76658475Y-80130124D01*
X76659865Y-80131329D01*
X76667548Y-80133000D01*
X76695438Y-80133000D01*
X76701953Y-80132663D01*
X76794057Y-80123106D01*
X76807456Y-80120212D01*
X76956107Y-80070619D01*
X76969286Y-80064445D01*
X77102173Y-79982212D01*
X77113574Y-79973176D01*
X77223986Y-79862571D01*
X77232998Y-79851160D01*
X77315004Y-79718120D01*
X77321151Y-79704939D01*
X77370491Y-79556186D01*
X77373358Y-79542810D01*
X77382672Y-79451903D01*
X77382929Y-79446874D01*
X77378525Y-79431876D01*
X77377135Y-79430671D01*
X77369452Y-79429000D01*
X76672115Y-79429000D01*
X76656876Y-79433475D01*
X76655671Y-79434865D01*
X76654000Y-79442548D01*
X76654000Y-80114885D01*
X76146000Y-80114885D01*
X76146000Y-79447115D01*
X76141525Y-79431876D01*
X76140135Y-79430671D01*
X76132452Y-79429000D01*
X75435115Y-79429000D01*
X75419876Y-79433475D01*
X75418671Y-79434865D01*
X75417000Y-79442548D01*
X75417000Y-79445438D01*
X72382507Y-79445438D01*
X72378525Y-79431876D01*
X72377135Y-79430671D01*
X72369452Y-79429000D01*
X71672115Y-79429000D01*
X71656876Y-79433475D01*
X71655671Y-79434865D01*
X71654000Y-79442548D01*
X71654000Y-80114885D01*
X71146000Y-80114885D01*
X71146000Y-79447115D01*
X71141525Y-79431876D01*
X71140135Y-79430671D01*
X71132452Y-79429000D01*
X70435115Y-79429000D01*
X70419876Y-79433475D01*
X70418671Y-79434865D01*
X70417000Y-79442548D01*
X70417000Y-79445438D01*
X44561439Y-79445438D01*
X42863096Y-77747095D01*
X61092001Y-77747095D01*
X61092338Y-77753614D01*
X61102257Y-77849206D01*
X61105149Y-77862600D01*
X61156588Y-78016784D01*
X61162761Y-78029962D01*
X61248063Y-78167807D01*
X61257099Y-78179208D01*
X61371829Y-78293739D01*
X61383240Y-78302751D01*
X61521243Y-78387816D01*
X61534424Y-78393963D01*
X61688710Y-78445138D01*
X61702086Y-78448005D01*
X61796438Y-78457672D01*
X61802854Y-78458000D01*
X62227885Y-78458000D01*
X62243124Y-78453525D01*
X62244329Y-78452135D01*
X62246000Y-78444452D01*
X62246000Y-78439884D01*
X62754000Y-78439884D01*
X62758475Y-78455123D01*
X62759865Y-78456328D01*
X62767548Y-78457999D01*
X63197095Y-78457999D01*
X63203614Y-78457662D01*
X63299206Y-78447743D01*
X63312600Y-78444851D01*
X63466784Y-78393412D01*
X63479962Y-78387239D01*
X63617807Y-78301937D01*
X63629208Y-78292901D01*
X63743739Y-78178171D01*
X63752751Y-78166760D01*
X63837816Y-78028757D01*
X63843963Y-78015576D01*
X63895138Y-77861290D01*
X63898005Y-77847914D01*
X63907672Y-77753562D01*
X63908000Y-77747146D01*
X63908000Y-77647115D01*
X63903525Y-77631876D01*
X63902135Y-77630671D01*
X63894452Y-77629000D01*
X62772115Y-77629000D01*
X62756876Y-77633475D01*
X62755671Y-77634865D01*
X62754000Y-77642548D01*
X62754000Y-78439884D01*
X62246000Y-78439884D01*
X62246000Y-77647115D01*
X62241525Y-77631876D01*
X62240135Y-77630671D01*
X62232452Y-77629000D01*
X61110116Y-77629000D01*
X61094877Y-77633475D01*
X61093672Y-77634865D01*
X61092001Y-77642548D01*
X61092001Y-77747095D01*
X42863096Y-77747095D01*
X41863096Y-76747095D01*
X57967001Y-76747095D01*
X57967338Y-76753614D01*
X57977257Y-76849206D01*
X57980149Y-76862600D01*
X58031588Y-77016784D01*
X58037761Y-77029962D01*
X58123063Y-77167807D01*
X58132099Y-77179208D01*
X58246829Y-77293739D01*
X58258240Y-77302751D01*
X58396243Y-77387816D01*
X58409424Y-77393963D01*
X58563710Y-77445138D01*
X58577086Y-77448005D01*
X58671438Y-77457672D01*
X58677854Y-77458000D01*
X58927885Y-77458000D01*
X58943124Y-77453525D01*
X58944329Y-77452135D01*
X58946000Y-77444452D01*
X58946000Y-77439884D01*
X59454000Y-77439884D01*
X59458475Y-77455123D01*
X59459865Y-77456328D01*
X59467548Y-77457999D01*
X59722095Y-77457999D01*
X59728614Y-77457662D01*
X59824206Y-77447743D01*
X59837600Y-77444851D01*
X59991784Y-77393412D01*
X60004962Y-77387239D01*
X60142807Y-77301937D01*
X60154208Y-77292901D01*
X60268739Y-77178171D01*
X60277751Y-77166760D01*
X60317124Y-77102885D01*
X61092000Y-77102885D01*
X61096475Y-77118124D01*
X61097865Y-77119329D01*
X61105548Y-77121000D01*
X62227885Y-77121000D01*
X62243124Y-77116525D01*
X62244329Y-77115135D01*
X62246000Y-77107452D01*
X62246000Y-77102885D01*
X62754000Y-77102885D01*
X62758475Y-77118124D01*
X62759865Y-77119329D01*
X62767548Y-77121000D01*
X63889884Y-77121000D01*
X63905123Y-77116525D01*
X63906328Y-77115135D01*
X63907999Y-77107452D01*
X63907999Y-77002905D01*
X63907662Y-76996386D01*
X63897743Y-76900794D01*
X63894851Y-76887400D01*
X63843412Y-76733216D01*
X63837239Y-76720038D01*
X63751937Y-76582193D01*
X63742901Y-76570792D01*
X63628171Y-76456261D01*
X63616760Y-76447249D01*
X63478757Y-76362184D01*
X63465576Y-76356037D01*
X63311290Y-76304862D01*
X63297914Y-76301995D01*
X63203562Y-76292328D01*
X63197145Y-76292000D01*
X62772115Y-76292000D01*
X62756876Y-76296475D01*
X62755671Y-76297865D01*
X62754000Y-76305548D01*
X62754000Y-77102885D01*
X62246000Y-77102885D01*
X62246000Y-76310116D01*
X62241525Y-76294877D01*
X62240135Y-76293672D01*
X62232452Y-76292001D01*
X61802905Y-76292001D01*
X61796386Y-76292338D01*
X61700794Y-76302257D01*
X61687400Y-76305149D01*
X61533216Y-76356588D01*
X61520038Y-76362761D01*
X61382193Y-76448063D01*
X61370792Y-76457099D01*
X61256261Y-76571829D01*
X61247249Y-76583240D01*
X61162184Y-76721243D01*
X61156037Y-76734424D01*
X61104862Y-76888710D01*
X61101995Y-76902086D01*
X61092328Y-76996438D01*
X61092000Y-77002855D01*
X61092000Y-77102885D01*
X60317124Y-77102885D01*
X60362816Y-77028757D01*
X60368963Y-77015576D01*
X60420138Y-76861290D01*
X60423005Y-76847914D01*
X60432672Y-76753562D01*
X60433000Y-76747146D01*
X60433000Y-76722115D01*
X60428525Y-76706876D01*
X60427135Y-76705671D01*
X60419452Y-76704000D01*
X59472115Y-76704000D01*
X59456876Y-76708475D01*
X59455671Y-76709865D01*
X59454000Y-76717548D01*
X59454000Y-77439884D01*
X58946000Y-77439884D01*
X58946000Y-76722115D01*
X58941525Y-76706876D01*
X58940135Y-76705671D01*
X58932452Y-76704000D01*
X57985116Y-76704000D01*
X57969877Y-76708475D01*
X57968672Y-76709865D01*
X57967001Y-76717548D01*
X57967001Y-76747095D01*
X41863096Y-76747095D01*
X38010670Y-72894669D01*
X57242001Y-72894669D01*
X57242371Y-72901490D01*
X57247895Y-72952352D01*
X57251521Y-72967604D01*
X57296676Y-73088054D01*
X57305214Y-73103649D01*
X57381715Y-73205724D01*
X57394276Y-73218285D01*
X57496351Y-73294786D01*
X57511946Y-73303324D01*
X57632394Y-73348478D01*
X57647649Y-73352105D01*
X57698514Y-73357631D01*
X57705328Y-73358000D01*
X57877885Y-73358000D01*
X57893124Y-73353525D01*
X57894329Y-73352135D01*
X57896000Y-73344452D01*
X57896000Y-72672115D01*
X57891525Y-72656876D01*
X57890135Y-72655671D01*
X57882452Y-72654000D01*
X57260116Y-72654000D01*
X57244877Y-72658475D01*
X57243672Y-72659865D01*
X57242001Y-72667548D01*
X57242001Y-72894669D01*
X38010670Y-72894669D01*
X33593510Y-68477509D01*
X33559484Y-68415197D01*
X33557390Y-68402460D01*
X33550022Y-68336774D01*
X33550022Y-68336773D01*
X33549237Y-68329777D01*
X33546922Y-68323129D01*
X33495221Y-68174662D01*
X33495220Y-68174660D01*
X33492906Y-68168015D01*
X33464778Y-68123000D01*
X33405869Y-68028727D01*
X33402136Y-68022753D01*
X33370680Y-67991076D01*
X33297117Y-67916998D01*
X33281439Y-67901210D01*
X33158199Y-67823000D01*
X33142757Y-67813200D01*
X33142754Y-67813198D01*
X33136814Y-67809429D01*
X33103769Y-67797662D01*
X32982083Y-67754331D01*
X32982081Y-67754330D01*
X32975449Y-67751969D01*
X32968463Y-67751136D01*
X32968459Y-67751135D01*
X32848217Y-67736798D01*
X32805364Y-67731688D01*
X32798361Y-67732424D01*
X32798360Y-67732424D01*
X32756591Y-67736814D01*
X32635012Y-67749592D01*
X32625612Y-67752792D01*
X32479528Y-67802523D01*
X32479525Y-67802524D01*
X32472861Y-67804793D01*
X32326968Y-67894547D01*
X32321937Y-67899473D01*
X32321934Y-67899476D01*
X32275842Y-67944613D01*
X32204586Y-68014392D01*
X32111797Y-68158373D01*
X32109388Y-68164993D01*
X32109387Y-68164994D01*
X32060710Y-68298733D01*
X32053212Y-68319333D01*
X32052329Y-68326321D01*
X32052329Y-68326322D01*
X32049905Y-68345508D01*
X32031744Y-68489272D01*
X32048459Y-68659745D01*
X32102526Y-68822278D01*
X32111938Y-68837819D01*
X32183035Y-68955213D01*
X32191259Y-68968793D01*
X32196150Y-68973858D01*
X32196151Y-68973859D01*
X32251919Y-69031608D01*
X32310247Y-69092009D01*
X32453577Y-69185801D01*
X32614124Y-69245508D01*
X32621105Y-69246439D01*
X32621107Y-69246440D01*
X32654175Y-69250852D01*
X32705000Y-69257634D01*
X32769876Y-69286468D01*
X32777430Y-69293431D01*
X40541527Y-77057529D01*
X48259420Y-84775422D01*
X48270280Y-84787804D01*
X48288479Y-84811521D01*
X48295029Y-84816547D01*
X48295031Y-84816549D01*
X48318723Y-84834729D01*
X48318741Y-84834743D01*
X48318742Y-84834744D01*
X48409010Y-84904009D01*
X48549372Y-84962149D01*
X48700000Y-84981979D01*
X48708188Y-84980901D01*
X48729632Y-84978078D01*
X48746078Y-84977000D01*
X82153923Y-84977000D01*
X82170370Y-84978078D01*
X82200000Y-84981979D01*
X82237818Y-84977000D01*
X82237823Y-84977000D01*
X82342439Y-84963227D01*
X82350627Y-84962149D01*
X82358254Y-84958990D01*
X82358257Y-84958989D01*
X82478518Y-84909175D01*
X82478520Y-84909174D01*
X82478592Y-84909144D01*
X82490990Y-84904009D01*
X82581258Y-84834743D01*
X82581259Y-84834742D01*
X82611521Y-84811521D01*
X82629720Y-84787804D01*
X82640587Y-84775414D01*
X86075418Y-81340583D01*
X86087809Y-81329716D01*
X86104971Y-81316547D01*
X86111521Y-81311521D01*
X86204009Y-81190989D01*
X86262149Y-81050627D01*
X86277000Y-80937820D01*
X86277000Y-80937813D01*
X86281978Y-80900000D01*
X86278078Y-80870374D01*
X86277000Y-80853930D01*
X86277000Y-73338612D01*
X86297002Y-73270491D01*
X86350658Y-73223998D01*
X86420932Y-73213894D01*
X86446920Y-73220515D01*
X86514124Y-73245508D01*
X86521109Y-73246440D01*
X86676928Y-73267231D01*
X86676932Y-73267231D01*
X86683909Y-73268162D01*
X86690920Y-73267524D01*
X86690924Y-73267524D01*
X86847473Y-73253277D01*
X86847474Y-73253277D01*
X86854494Y-73252638D01*
X86890081Y-73241075D01*
X87010702Y-73201883D01*
X87010705Y-73201882D01*
X87017401Y-73199706D01*
X87060614Y-73173946D01*
X87158480Y-73115607D01*
X87158482Y-73115606D01*
X87164532Y-73111999D01*
X87288576Y-72993874D01*
X87352260Y-72898021D01*
X87379465Y-72857075D01*
X87379466Y-72857073D01*
X87383366Y-72851203D01*
X87444192Y-72691076D01*
X87468031Y-72521453D01*
X87468314Y-72501236D01*
X87489268Y-72433402D01*
X87543569Y-72387665D01*
X87594302Y-72377000D01*
X87697000Y-72377000D01*
X87765121Y-72397002D01*
X87811614Y-72450658D01*
X87823000Y-72503000D01*
X87823000Y-85008809D01*
X87802998Y-85076930D01*
X87786095Y-85097904D01*
X82597904Y-90286095D01*
X82535592Y-90320121D01*
X82508809Y-90323000D01*
X51791191Y-90323000D01*
X51723070Y-90302998D01*
X51702096Y-90286095D01*
X34520583Y-73104582D01*
X34509716Y-73092191D01*
X34496547Y-73075029D01*
X34491521Y-73068479D01*
X34450690Y-73037148D01*
X34420911Y-73014297D01*
X34377543Y-72981019D01*
X34377541Y-72981018D01*
X34370990Y-72975991D01*
X34297916Y-72945723D01*
X34230627Y-72917851D01*
X34222439Y-72916773D01*
X34117823Y-72903000D01*
X34117818Y-72903000D01*
X34080000Y-72898021D01*
X34071812Y-72899099D01*
X34050368Y-72901922D01*
X34033922Y-72903000D01*
X26252294Y-72903000D01*
X26184173Y-72882998D01*
X26142025Y-72837382D01*
X26141354Y-72835840D01*
X26027511Y-72659865D01*
X26022822Y-72652617D01*
X26022820Y-72652614D01*
X26020014Y-72648277D01*
X25869670Y-72483051D01*
X25865619Y-72479852D01*
X25865615Y-72479848D01*
X25698414Y-72347800D01*
X25698410Y-72347798D01*
X25694359Y-72344598D01*
X25653053Y-72321796D01*
X25603084Y-72271364D01*
X25588312Y-72201921D01*
X25613428Y-72135516D01*
X25640780Y-72108909D01*
X25684603Y-72077650D01*
X25819860Y-71981173D01*
X25842613Y-71958500D01*
X25974435Y-71827137D01*
X25978096Y-71823489D01*
X25994975Y-71800000D01*
X26105435Y-71646277D01*
X26108453Y-71642077D01*
X26129320Y-71599857D01*
X26205136Y-71446453D01*
X26205137Y-71446451D01*
X26207430Y-71441811D01*
X26272370Y-71228069D01*
X26301529Y-71006590D01*
X26303156Y-70940000D01*
X26284852Y-70717361D01*
X26230431Y-70500702D01*
X26141354Y-70295840D01*
X26067292Y-70181358D01*
X26022822Y-70112617D01*
X26022820Y-70112614D01*
X26020014Y-70108277D01*
X25869670Y-69943051D01*
X25865619Y-69939852D01*
X25865615Y-69939848D01*
X25698414Y-69807800D01*
X25698410Y-69807798D01*
X25694359Y-69804598D01*
X25653053Y-69781796D01*
X25603084Y-69731364D01*
X25588312Y-69661921D01*
X25613428Y-69595516D01*
X25640780Y-69568909D01*
X25684603Y-69537650D01*
X25819860Y-69441173D01*
X25978096Y-69283489D01*
X26037594Y-69200689D01*
X26105435Y-69106277D01*
X26108453Y-69102077D01*
X26111844Y-69095217D01*
X26205136Y-68906453D01*
X26205137Y-68906451D01*
X26207430Y-68901811D01*
X26272370Y-68688069D01*
X26301529Y-68466590D01*
X26301727Y-68458500D01*
X26303074Y-68403365D01*
X26303074Y-68403361D01*
X26303156Y-68400000D01*
X26284852Y-68177361D01*
X26230431Y-67960702D01*
X26141354Y-67755840D01*
X26071029Y-67647134D01*
X26022822Y-67572617D01*
X26022820Y-67572614D01*
X26020014Y-67568277D01*
X25869670Y-67403051D01*
X25865619Y-67399852D01*
X25865615Y-67399848D01*
X25698414Y-67267800D01*
X25698410Y-67267798D01*
X25694359Y-67264598D01*
X25653053Y-67241796D01*
X25603084Y-67191364D01*
X25588312Y-67121921D01*
X25613428Y-67055516D01*
X25640780Y-67028909D01*
X25688954Y-66994547D01*
X25819860Y-66901173D01*
X25978096Y-66743489D01*
X26005257Y-66705691D01*
X26105435Y-66566277D01*
X26108453Y-66562077D01*
X26129320Y-66519857D01*
X26205136Y-66366453D01*
X26205137Y-66366451D01*
X26207430Y-66361811D01*
X26272370Y-66148069D01*
X26301529Y-65926590D01*
X26303156Y-65860000D01*
X26284852Y-65637361D01*
X26230431Y-65420702D01*
X26141354Y-65215840D01*
X26034581Y-65050794D01*
X26022822Y-65032617D01*
X26022820Y-65032614D01*
X26020014Y-65028277D01*
X25869670Y-64863051D01*
X25865619Y-64859852D01*
X25865615Y-64859848D01*
X25698414Y-64727800D01*
X25698410Y-64727798D01*
X25694359Y-64724598D01*
X25653053Y-64701796D01*
X25603084Y-64651364D01*
X25588312Y-64581921D01*
X25613428Y-64515516D01*
X25640780Y-64488909D01*
X25692164Y-64452257D01*
X25819860Y-64361173D01*
X25978096Y-64203489D01*
X26005778Y-64164966D01*
X26105435Y-64026277D01*
X26108453Y-64022077D01*
X26115318Y-64008188D01*
X26205136Y-63826453D01*
X26205137Y-63826451D01*
X26207430Y-63821811D01*
X26272370Y-63608069D01*
X26301529Y-63386590D01*
X26301611Y-63383240D01*
X26303074Y-63323365D01*
X26303074Y-63323361D01*
X26303156Y-63320000D01*
X26284852Y-63097361D01*
X26230431Y-62880702D01*
X26141354Y-62675840D01*
X26083843Y-62586941D01*
X26022822Y-62492617D01*
X26022820Y-62492614D01*
X26020014Y-62488277D01*
X25869670Y-62323051D01*
X25865619Y-62319852D01*
X25865615Y-62319848D01*
X25698414Y-62187800D01*
X25698410Y-62187798D01*
X25694359Y-62184598D01*
X25653053Y-62161796D01*
X25603084Y-62111364D01*
X25588312Y-62041921D01*
X25613428Y-61975516D01*
X25640780Y-61948909D01*
X25699337Y-61907141D01*
X25819860Y-61821173D01*
X25878468Y-61762770D01*
X25901209Y-61740107D01*
X25978096Y-61663489D01*
X26012516Y-61615589D01*
X26105435Y-61486277D01*
X26108453Y-61482077D01*
X26135589Y-61427172D01*
X26183701Y-61374966D01*
X26248545Y-61357000D01*
X48488809Y-61357000D01*
X48556930Y-61377002D01*
X48577904Y-61393905D01*
X54806199Y-67622200D01*
X54840225Y-67684512D01*
X54842503Y-67699000D01*
X54843722Y-67711429D01*
X54848459Y-67759745D01*
X54902526Y-67922278D01*
X54991259Y-68068793D01*
X55110247Y-68192009D01*
X55253577Y-68285801D01*
X55414124Y-68345508D01*
X55421105Y-68346439D01*
X55421107Y-68346440D01*
X55576928Y-68367231D01*
X55576932Y-68367231D01*
X55583909Y-68368162D01*
X55590920Y-68367524D01*
X55590924Y-68367524D01*
X55747473Y-68353277D01*
X55747474Y-68353277D01*
X55754494Y-68352638D01*
X55845313Y-68323129D01*
X55910702Y-68301883D01*
X55910705Y-68301882D01*
X55917401Y-68299706D01*
X55926270Y-68294419D01*
X56058480Y-68215607D01*
X56058482Y-68215606D01*
X56064532Y-68211999D01*
X56188576Y-68093874D01*
X56283366Y-67951203D01*
X56344192Y-67791076D01*
X56357046Y-67699618D01*
X56367482Y-67625362D01*
X56367482Y-67625356D01*
X56368031Y-67621453D01*
X56368331Y-67600000D01*
X56349237Y-67429777D01*
X56307340Y-67309463D01*
X56295221Y-67274662D01*
X56295220Y-67274660D01*
X56292906Y-67268015D01*
X56277974Y-67244118D01*
X56205869Y-67128727D01*
X56202136Y-67122753D01*
X56192650Y-67113200D01*
X56086402Y-67006208D01*
X56081439Y-67001210D01*
X56001835Y-66950692D01*
X55942757Y-66913200D01*
X55942754Y-66913198D01*
X55936814Y-66909429D01*
X55913629Y-66901173D01*
X55782083Y-66854331D01*
X55782081Y-66854330D01*
X55775449Y-66851969D01*
X55768463Y-66851136D01*
X55768459Y-66851135D01*
X55710041Y-66844170D01*
X55696742Y-66842584D01*
X55631469Y-66814657D01*
X55622566Y-66806565D01*
X53993886Y-65177885D01*
X57567000Y-65177885D01*
X57571475Y-65193124D01*
X57572865Y-65194329D01*
X57580548Y-65196000D01*
X58527885Y-65196000D01*
X58543124Y-65191525D01*
X58544329Y-65190135D01*
X58546000Y-65182452D01*
X58546000Y-65177885D01*
X59054000Y-65177885D01*
X59058475Y-65193124D01*
X59059865Y-65194329D01*
X59067548Y-65196000D01*
X60014884Y-65196000D01*
X60030123Y-65191525D01*
X60031328Y-65190135D01*
X60032999Y-65182452D01*
X60032999Y-65152905D01*
X60032662Y-65146386D01*
X60022743Y-65050794D01*
X60019851Y-65037400D01*
X59968412Y-64883216D01*
X59962239Y-64870038D01*
X59876937Y-64732193D01*
X59867901Y-64720792D01*
X59753171Y-64606261D01*
X59741760Y-64597249D01*
X59603757Y-64512184D01*
X59590576Y-64506037D01*
X59436290Y-64454862D01*
X59422914Y-64451995D01*
X59328562Y-64442328D01*
X59322145Y-64442000D01*
X59072115Y-64442000D01*
X59056876Y-64446475D01*
X59055671Y-64447865D01*
X59054000Y-64455548D01*
X59054000Y-65177885D01*
X58546000Y-65177885D01*
X58546000Y-64460116D01*
X58541525Y-64444877D01*
X58540135Y-64443672D01*
X58532452Y-64442001D01*
X58277905Y-64442001D01*
X58271386Y-64442338D01*
X58175794Y-64452257D01*
X58162400Y-64455149D01*
X58008216Y-64506588D01*
X57995038Y-64512761D01*
X57857193Y-64598063D01*
X57845792Y-64607099D01*
X57731261Y-64721829D01*
X57722249Y-64733240D01*
X57637184Y-64871243D01*
X57631037Y-64884424D01*
X57579862Y-65038710D01*
X57576995Y-65052086D01*
X57567328Y-65146438D01*
X57567000Y-65152855D01*
X57567000Y-65177885D01*
X53993886Y-65177885D01*
X49220583Y-60404582D01*
X49209716Y-60392191D01*
X49196550Y-60375032D01*
X49196547Y-60375029D01*
X49191521Y-60368479D01*
X49184612Y-60363177D01*
X49161258Y-60345257D01*
X49077540Y-60281017D01*
X49070990Y-60275991D01*
X49002923Y-60247797D01*
X48930627Y-60217851D01*
X48922439Y-60216773D01*
X48817823Y-60203000D01*
X48817818Y-60203000D01*
X48780000Y-60198021D01*
X48771812Y-60199099D01*
X48750368Y-60201922D01*
X48733922Y-60203000D01*
X26252294Y-60203000D01*
X26184173Y-60182998D01*
X26142025Y-60137382D01*
X26141354Y-60135840D01*
X26064106Y-60016433D01*
X26022822Y-59952617D01*
X26022820Y-59952614D01*
X26020014Y-59948277D01*
X25869670Y-59783051D01*
X25865619Y-59779852D01*
X25865615Y-59779848D01*
X25698414Y-59647800D01*
X25698410Y-59647798D01*
X25694359Y-59644598D01*
X25653053Y-59621796D01*
X25603084Y-59571364D01*
X25588312Y-59501921D01*
X25613428Y-59435516D01*
X25640780Y-59408909D01*
X25700329Y-59366433D01*
X25819860Y-59281173D01*
X25978096Y-59123489D01*
X25993637Y-59101862D01*
X26105435Y-58946277D01*
X26108453Y-58942077D01*
X26113176Y-58932522D01*
X26135588Y-58887173D01*
X26183701Y-58834966D01*
X26248545Y-58817000D01*
X55248809Y-58817000D01*
X55316930Y-58837002D01*
G37*
%TD.AperFunction*%
%TA.AperFunction,Conductor*%
G36*
X79851929Y-71472002D02*
G01*
X79872904Y-71488905D01*
X80220403Y-71836405D01*
X80254428Y-71898717D01*
X80249363Y-71969533D01*
X80206816Y-72026368D01*
X80140296Y-72051179D01*
X80131307Y-72051500D01*
X77519693Y-72051500D01*
X77451572Y-72031498D01*
X77430598Y-72014596D01*
X77083097Y-71667095D01*
X77049072Y-71604783D01*
X77054136Y-71533968D01*
X77096683Y-71477132D01*
X77163203Y-71452321D01*
X77172192Y-71452000D01*
X79783808Y-71452000D01*
X79851929Y-71472002D01*
G37*
%TD.AperFunction*%
%TA.AperFunction,Conductor*%
G36*
X59776930Y-69597002D02*
G01*
X59797904Y-69613905D01*
X60479838Y-70295840D01*
X61159420Y-70975422D01*
X61170281Y-70987805D01*
X61188479Y-71011521D01*
X61195029Y-71016547D01*
X61195031Y-71016549D01*
X61218723Y-71034729D01*
X61218742Y-71034744D01*
X61309010Y-71104009D01*
X61449372Y-71162149D01*
X61457560Y-71163227D01*
X61524686Y-71172064D01*
X61600000Y-71181979D01*
X61608188Y-71180901D01*
X61629632Y-71178078D01*
X61646078Y-71177000D01*
X61921054Y-71177000D01*
X61989175Y-71197002D01*
X62035668Y-71250658D01*
X62045772Y-71320932D01*
X62016278Y-71385512D01*
X62010233Y-71392011D01*
X61925695Y-71476697D01*
X61921855Y-71482927D01*
X61921854Y-71482928D01*
X61840355Y-71615144D01*
X61832885Y-71627262D01*
X61819673Y-71667096D01*
X61796597Y-71736667D01*
X61756166Y-71795027D01*
X61690602Y-71822264D01*
X61677004Y-71823000D01*
X60234533Y-71823000D01*
X60166412Y-71802998D01*
X60119919Y-71749342D01*
X60109815Y-71679068D01*
X60116551Y-71652770D01*
X60148478Y-71567605D01*
X60152105Y-71552351D01*
X60157631Y-71501486D01*
X60158000Y-71494672D01*
X60158000Y-71272115D01*
X60153525Y-71256876D01*
X60152135Y-71255671D01*
X60144452Y-71254000D01*
X59184500Y-71254000D01*
X59116379Y-71233998D01*
X59069886Y-71180342D01*
X59058500Y-71128000D01*
X59058500Y-70727885D01*
X59504000Y-70727885D01*
X59508475Y-70743124D01*
X59509865Y-70744329D01*
X59517548Y-70746000D01*
X60139884Y-70746000D01*
X60155123Y-70741525D01*
X60156328Y-70740135D01*
X60157999Y-70732452D01*
X60157999Y-70505331D01*
X60157629Y-70498510D01*
X60152105Y-70447648D01*
X60148479Y-70432396D01*
X60103324Y-70311946D01*
X60094786Y-70296351D01*
X60018285Y-70194276D01*
X60005724Y-70181715D01*
X59903649Y-70105214D01*
X59888054Y-70096676D01*
X59767606Y-70051522D01*
X59752351Y-70047895D01*
X59701486Y-70042369D01*
X59694672Y-70042000D01*
X59522115Y-70042000D01*
X59506876Y-70046475D01*
X59505671Y-70047865D01*
X59504000Y-70055548D01*
X59504000Y-70727885D01*
X59058500Y-70727885D01*
X59058500Y-70501866D01*
X59051745Y-70439684D01*
X59048973Y-70432288D01*
X59048971Y-70432282D01*
X59004018Y-70312371D01*
X58996000Y-70268142D01*
X58996000Y-70060116D01*
X58991525Y-70044877D01*
X58975721Y-70031182D01*
X58937338Y-69971456D01*
X58937338Y-69900459D01*
X58969139Y-69846863D01*
X59202097Y-69613905D01*
X59264409Y-69579879D01*
X59291192Y-69577000D01*
X59708809Y-69577000D01*
X59776930Y-69597002D01*
G37*
%TD.AperFunction*%
%TA.AperFunction,Conductor*%
G36*
X88408881Y-69697002D02*
G01*
X88455374Y-69750658D01*
X88465478Y-69820932D01*
X88435984Y-69885512D01*
X88426733Y-69894307D01*
X88426968Y-69894547D01*
X88304586Y-70014392D01*
X88302601Y-70012364D01*
X88254609Y-70045279D01*
X88215506Y-70051500D01*
X81292530Y-70051500D01*
X81224409Y-70031498D01*
X81216920Y-70026232D01*
X81216553Y-70026020D01*
X81209999Y-70020991D01*
X81137569Y-69990990D01*
X81069636Y-69962851D01*
X81061448Y-69961773D01*
X80956832Y-69948000D01*
X80956827Y-69948000D01*
X80919009Y-69943021D01*
X80910821Y-69944099D01*
X80889377Y-69946922D01*
X80872931Y-69948000D01*
X75181139Y-69948000D01*
X75113018Y-69927998D01*
X75066525Y-69874342D01*
X75056365Y-69804466D01*
X75059035Y-69785466D01*
X75088322Y-69720792D01*
X75147926Y-69682218D01*
X75183809Y-69677000D01*
X88340760Y-69677000D01*
X88408881Y-69697002D01*
G37*
%TD.AperFunction*%
%TA.AperFunction,Conductor*%
G36*
X77676929Y-48697002D02*
G01*
X77697904Y-48713905D01*
X78586096Y-49602098D01*
X78620121Y-49664410D01*
X78623000Y-49691193D01*
X78623000Y-50725668D01*
X78602998Y-50793789D01*
X78549342Y-50840282D01*
X78479068Y-50850386D01*
X78422751Y-50826491D01*
X78421807Y-50825547D01*
X78398864Y-50811978D01*
X78285427Y-50744892D01*
X78285428Y-50744892D01*
X78278601Y-50740855D01*
X78270990Y-50738644D01*
X78270988Y-50738643D01*
X78183142Y-50713122D01*
X78118831Y-50694438D01*
X78112426Y-50693934D01*
X78112421Y-50693933D01*
X78083958Y-50691693D01*
X78083950Y-50691693D01*
X78081502Y-50691500D01*
X77648498Y-50691500D01*
X77646050Y-50691693D01*
X77646042Y-50691693D01*
X77617579Y-50693933D01*
X77617574Y-50693934D01*
X77611169Y-50694438D01*
X77546858Y-50713122D01*
X77459012Y-50738643D01*
X77459010Y-50738644D01*
X77451399Y-50740855D01*
X77308193Y-50825547D01*
X77305253Y-50828487D01*
X77240729Y-50853821D01*
X77171106Y-50839920D01*
X77152360Y-50827871D01*
X77144677Y-50821911D01*
X77015221Y-50745352D01*
X77000790Y-50739107D01*
X76866395Y-50700061D01*
X76852294Y-50700101D01*
X76849000Y-50707370D01*
X76849000Y-53286878D01*
X76852973Y-53300409D01*
X76860871Y-53301544D01*
X77000790Y-53260893D01*
X77015221Y-53254648D01*
X77097861Y-53205775D01*
X77166677Y-53188316D01*
X77234008Y-53210833D01*
X77278478Y-53266177D01*
X77288000Y-53314229D01*
X77288000Y-54343809D01*
X77267998Y-54411930D01*
X77251095Y-54432904D01*
X70849582Y-60834417D01*
X70837191Y-60845284D01*
X70813479Y-60863479D01*
X70790258Y-60893741D01*
X70790257Y-60893742D01*
X70720991Y-60984010D01*
X70715014Y-60998440D01*
X70662851Y-61124373D01*
X70648321Y-61234743D01*
X70643021Y-61275000D01*
X70644099Y-61283188D01*
X70646922Y-61304632D01*
X70648000Y-61321078D01*
X70648000Y-63514258D01*
X70627998Y-63582379D01*
X70574342Y-63628872D01*
X70504068Y-63638976D01*
X70454486Y-63620643D01*
X70442763Y-63613203D01*
X70442754Y-63613199D01*
X70436814Y-63609429D01*
X70293732Y-63558479D01*
X70236269Y-63516786D01*
X70210469Y-63450643D01*
X70210000Y-63439781D01*
X70210000Y-54658191D01*
X70230002Y-54590070D01*
X70246905Y-54569096D01*
X72102017Y-52713984D01*
X75787001Y-52713984D01*
X75787195Y-52718920D01*
X75789430Y-52747336D01*
X75791730Y-52759931D01*
X75834107Y-52905790D01*
X75840352Y-52920221D01*
X75916911Y-53049678D01*
X75926551Y-53062104D01*
X76032896Y-53168449D01*
X76045322Y-53178089D01*
X76174779Y-53254648D01*
X76189210Y-53260893D01*
X76323605Y-53299939D01*
X76337706Y-53299899D01*
X76341000Y-53292630D01*
X76341000Y-52272115D01*
X76336525Y-52256876D01*
X76335135Y-52255671D01*
X76327452Y-52254000D01*
X75805116Y-52254000D01*
X75789877Y-52258475D01*
X75788672Y-52259865D01*
X75787001Y-52267548D01*
X75787001Y-52713984D01*
X72102017Y-52713984D01*
X73088116Y-51727885D01*
X75787000Y-51727885D01*
X75791475Y-51743124D01*
X75792865Y-51744329D01*
X75800548Y-51746000D01*
X76322885Y-51746000D01*
X76338124Y-51741525D01*
X76339329Y-51740135D01*
X76341000Y-51732452D01*
X76341000Y-50713122D01*
X76337027Y-50699591D01*
X76329129Y-50698456D01*
X76189210Y-50739107D01*
X76174779Y-50745352D01*
X76045322Y-50821911D01*
X76032896Y-50831551D01*
X75926551Y-50937896D01*
X75916911Y-50950322D01*
X75840352Y-51079779D01*
X75834107Y-51094210D01*
X75791731Y-51240065D01*
X75789430Y-51252667D01*
X75787193Y-51281084D01*
X75787000Y-51286014D01*
X75787000Y-51727885D01*
X73088116Y-51727885D01*
X76102096Y-48713905D01*
X76164408Y-48679879D01*
X76191191Y-48677000D01*
X77608808Y-48677000D01*
X77676929Y-48697002D01*
G37*
%TD.AperFunction*%
%TA.AperFunction,Conductor*%
G36*
X61176930Y-22597002D02*
G01*
X61197904Y-22613905D01*
X61904053Y-23320054D01*
X61938079Y-23382366D01*
X61933014Y-23453181D01*
X61904132Y-23498166D01*
X61857264Y-23545116D01*
X61850695Y-23551697D01*
X61846855Y-23557927D01*
X61846854Y-23557928D01*
X61762570Y-23694662D01*
X61757885Y-23702262D01*
X61741117Y-23752816D01*
X61707718Y-23853513D01*
X61702203Y-23870139D01*
X61691500Y-23974600D01*
X61691500Y-24600400D01*
X61691837Y-24603646D01*
X61691837Y-24603650D01*
X61701752Y-24699206D01*
X61702474Y-24706166D01*
X61758450Y-24873946D01*
X61851522Y-25024348D01*
X61856704Y-25029521D01*
X61938109Y-25110784D01*
X61972188Y-25173066D01*
X61967185Y-25243886D01*
X61938264Y-25288975D01*
X61921061Y-25306208D01*
X61850695Y-25376697D01*
X61846855Y-25382927D01*
X61846854Y-25382928D01*
X61809137Y-25444116D01*
X61756364Y-25491610D01*
X61701877Y-25504000D01*
X59498105Y-25504000D01*
X59429984Y-25483998D01*
X59390961Y-25444303D01*
X59352332Y-25381880D01*
X59348478Y-25375652D01*
X59270127Y-25297437D01*
X59261537Y-25288862D01*
X59227458Y-25226579D01*
X59232461Y-25155759D01*
X59261382Y-25110671D01*
X59343739Y-25028171D01*
X59352751Y-25016760D01*
X59437816Y-24878757D01*
X59443963Y-24865576D01*
X59495138Y-24711290D01*
X59498005Y-24697914D01*
X59507672Y-24603562D01*
X59508000Y-24597146D01*
X59508000Y-24559615D01*
X59503525Y-24544376D01*
X59502135Y-24543171D01*
X59494452Y-24541500D01*
X57110116Y-24541500D01*
X57094877Y-24545975D01*
X57093672Y-24547365D01*
X57092001Y-24555048D01*
X57092001Y-24597095D01*
X57092338Y-24603614D01*
X57102257Y-24699206D01*
X57105149Y-24712600D01*
X57156588Y-24866784D01*
X57162761Y-24879962D01*
X57248063Y-25017807D01*
X57257099Y-25029208D01*
X57338462Y-25110430D01*
X57372541Y-25172713D01*
X57367538Y-25243533D01*
X57338617Y-25288620D01*
X57255870Y-25371512D01*
X57255866Y-25371517D01*
X57250695Y-25376697D01*
X57246855Y-25382927D01*
X57246854Y-25382928D01*
X57182445Y-25487419D01*
X57157885Y-25527262D01*
X57145772Y-25563782D01*
X57104981Y-25686765D01*
X57102203Y-25695139D01*
X57101503Y-25701975D01*
X57101502Y-25701978D01*
X57099530Y-25721230D01*
X57091500Y-25799600D01*
X57091500Y-26425400D01*
X57091837Y-26428646D01*
X57091837Y-26428650D01*
X57101412Y-26520928D01*
X57102474Y-26531166D01*
X57158450Y-26698946D01*
X57251522Y-26849348D01*
X57256704Y-26854521D01*
X57318451Y-26916161D01*
X57376697Y-26974305D01*
X57382927Y-26978145D01*
X57382928Y-26978146D01*
X57520090Y-27062694D01*
X57527262Y-27067115D01*
X57605168Y-27092955D01*
X57688611Y-27120632D01*
X57688613Y-27120632D01*
X57695139Y-27122797D01*
X57701975Y-27123497D01*
X57701978Y-27123498D01*
X57745031Y-27127909D01*
X57799600Y-27133500D01*
X58800400Y-27133500D01*
X58803646Y-27133163D01*
X58803650Y-27133163D01*
X58899308Y-27123238D01*
X58899312Y-27123237D01*
X58906166Y-27122526D01*
X58912702Y-27120345D01*
X58912704Y-27120345D01*
X59044806Y-27076272D01*
X59073946Y-27066550D01*
X59224348Y-26973478D01*
X59349305Y-26848303D01*
X59390863Y-26780884D01*
X59443636Y-26733390D01*
X59498123Y-26721000D01*
X61701895Y-26721000D01*
X61770016Y-26741002D01*
X61809039Y-26780697D01*
X61851522Y-26849348D01*
X61856704Y-26854521D01*
X61918451Y-26916161D01*
X61976697Y-26974305D01*
X61982927Y-26978145D01*
X61982928Y-26978146D01*
X62120090Y-27062694D01*
X62127262Y-27067115D01*
X62184949Y-27086249D01*
X62205167Y-27092955D01*
X62263527Y-27133386D01*
X62290764Y-27198950D01*
X62291500Y-27212548D01*
X62291500Y-27651864D01*
X62290422Y-27668307D01*
X62286250Y-27700000D01*
X62291500Y-27739880D01*
X62291500Y-27739885D01*
X62301309Y-27814392D01*
X62307162Y-27858851D01*
X62368476Y-28006876D01*
X62373503Y-28013427D01*
X62373504Y-28013429D01*
X62441520Y-28102069D01*
X62441526Y-28102075D01*
X62466013Y-28133987D01*
X62472568Y-28139017D01*
X62491379Y-28153452D01*
X62503770Y-28164319D01*
X64816153Y-30476702D01*
X64850179Y-30539014D01*
X64845114Y-30609829D01*
X64802567Y-30666665D01*
X64793089Y-30673109D01*
X64676968Y-30744547D01*
X64674629Y-30746838D01*
X64610020Y-30772467D01*
X64598440Y-30773000D01*
X57484500Y-30773000D01*
X57416379Y-30752998D01*
X57369886Y-30699342D01*
X57358500Y-30647000D01*
X57358500Y-29251866D01*
X57351745Y-29189684D01*
X57300615Y-29053295D01*
X57213261Y-28936739D01*
X57096705Y-28849385D01*
X56960316Y-28798255D01*
X56898134Y-28791500D01*
X54801866Y-28791500D01*
X54739684Y-28798255D01*
X54603295Y-28849385D01*
X54486739Y-28936739D01*
X54399385Y-29053295D01*
X54348255Y-29189684D01*
X54341500Y-29251866D01*
X54341500Y-30497000D01*
X54321498Y-30565121D01*
X54267842Y-30611614D01*
X54215500Y-30623000D01*
X51184500Y-30623000D01*
X51116379Y-30602998D01*
X51069886Y-30549342D01*
X51058500Y-30497000D01*
X51058500Y-30401866D01*
X51051745Y-30339684D01*
X51000615Y-30203295D01*
X50942047Y-30125148D01*
X50917199Y-30058642D01*
X50932252Y-29989259D01*
X50942047Y-29974018D01*
X50994786Y-29903648D01*
X51003324Y-29888054D01*
X51048478Y-29767606D01*
X51052105Y-29752351D01*
X51057631Y-29701486D01*
X51058000Y-29694672D01*
X51058000Y-29172115D01*
X51053525Y-29156876D01*
X51052135Y-29155671D01*
X51044452Y-29154000D01*
X48060116Y-29154000D01*
X48044877Y-29158475D01*
X48043672Y-29159865D01*
X48042001Y-29167548D01*
X48042001Y-29694669D01*
X48042371Y-29701490D01*
X48047895Y-29752352D01*
X48051521Y-29767604D01*
X48096676Y-29888054D01*
X48105214Y-29903648D01*
X48157953Y-29974018D01*
X48182801Y-30040524D01*
X48167748Y-30109907D01*
X48157953Y-30125148D01*
X48099385Y-30203295D01*
X48048255Y-30339684D01*
X48041500Y-30401866D01*
X48041500Y-31998134D01*
X48048255Y-32060316D01*
X48099385Y-32196705D01*
X48104770Y-32203890D01*
X48104771Y-32203892D01*
X48157640Y-32274435D01*
X48182488Y-32340942D01*
X48167435Y-32410324D01*
X48157640Y-32425565D01*
X48130112Y-32462296D01*
X48099385Y-32503295D01*
X48048255Y-32639684D01*
X48041500Y-32701866D01*
X48041500Y-32797000D01*
X48021498Y-32865121D01*
X47967842Y-32911614D01*
X47915500Y-32923000D01*
X46891193Y-32923000D01*
X46823072Y-32902998D01*
X46802098Y-32886096D01*
X46213905Y-32297904D01*
X46179880Y-32235591D01*
X46177000Y-32208808D01*
X46177000Y-28627885D01*
X48042000Y-28627885D01*
X48046475Y-28643124D01*
X48047865Y-28644329D01*
X48055548Y-28646000D01*
X49277885Y-28646000D01*
X49293124Y-28641525D01*
X49294329Y-28640135D01*
X49296000Y-28632452D01*
X49296000Y-28627885D01*
X49804000Y-28627885D01*
X49808475Y-28643124D01*
X49809865Y-28644329D01*
X49817548Y-28646000D01*
X51039884Y-28646000D01*
X51055123Y-28641525D01*
X51056328Y-28640135D01*
X51057999Y-28632452D01*
X51057999Y-28105331D01*
X51057629Y-28098510D01*
X51052105Y-28047648D01*
X51048479Y-28032396D01*
X51003324Y-27911946D01*
X50994786Y-27896351D01*
X50918285Y-27794276D01*
X50905724Y-27781715D01*
X50803649Y-27705214D01*
X50788054Y-27696676D01*
X50667606Y-27651522D01*
X50652351Y-27647895D01*
X50601486Y-27642369D01*
X50594672Y-27642000D01*
X49822115Y-27642000D01*
X49806876Y-27646475D01*
X49805671Y-27647865D01*
X49804000Y-27655548D01*
X49804000Y-28627885D01*
X49296000Y-28627885D01*
X49296000Y-27660116D01*
X49291525Y-27644877D01*
X49290135Y-27643672D01*
X49282452Y-27642001D01*
X48505331Y-27642001D01*
X48498510Y-27642371D01*
X48447648Y-27647895D01*
X48432396Y-27651521D01*
X48311946Y-27696676D01*
X48296351Y-27705214D01*
X48194276Y-27781715D01*
X48181715Y-27794276D01*
X48105214Y-27896351D01*
X48096676Y-27911946D01*
X48051522Y-28032394D01*
X48047895Y-28047649D01*
X48042369Y-28098514D01*
X48042000Y-28105328D01*
X48042000Y-28627885D01*
X46177000Y-28627885D01*
X46177000Y-25991191D01*
X46197002Y-25923070D01*
X46213905Y-25902096D01*
X48100616Y-24015385D01*
X57092000Y-24015385D01*
X57096475Y-24030624D01*
X57097865Y-24031829D01*
X57105548Y-24033500D01*
X58027885Y-24033500D01*
X58043124Y-24029025D01*
X58044329Y-24027635D01*
X58046000Y-24019952D01*
X58046000Y-24015385D01*
X58554000Y-24015385D01*
X58558475Y-24030624D01*
X58559865Y-24031829D01*
X58567548Y-24033500D01*
X59489884Y-24033500D01*
X59505123Y-24029025D01*
X59506328Y-24027635D01*
X59507999Y-24019952D01*
X59507999Y-23977905D01*
X59507662Y-23971386D01*
X59497743Y-23875794D01*
X59494851Y-23862400D01*
X59443412Y-23708216D01*
X59437239Y-23695038D01*
X59351937Y-23557193D01*
X59342901Y-23545792D01*
X59228171Y-23431261D01*
X59216760Y-23422249D01*
X59078757Y-23337184D01*
X59065576Y-23331037D01*
X58911290Y-23279862D01*
X58897914Y-23276995D01*
X58803562Y-23267328D01*
X58797145Y-23267000D01*
X58572115Y-23267000D01*
X58556876Y-23271475D01*
X58555671Y-23272865D01*
X58554000Y-23280548D01*
X58554000Y-24015385D01*
X58046000Y-24015385D01*
X58046000Y-23285116D01*
X58041525Y-23269877D01*
X58040135Y-23268672D01*
X58032452Y-23267001D01*
X57802905Y-23267001D01*
X57796386Y-23267338D01*
X57700794Y-23277257D01*
X57687400Y-23280149D01*
X57533216Y-23331588D01*
X57520038Y-23337761D01*
X57382193Y-23423063D01*
X57370792Y-23432099D01*
X57256261Y-23546829D01*
X57247249Y-23558240D01*
X57162184Y-23696243D01*
X57156037Y-23709424D01*
X57104862Y-23863710D01*
X57101995Y-23877086D01*
X57092328Y-23971438D01*
X57092000Y-23977855D01*
X57092000Y-24015385D01*
X48100616Y-24015385D01*
X49502096Y-22613905D01*
X49564408Y-22579879D01*
X49591191Y-22577000D01*
X61108809Y-22577000D01*
X61176930Y-22597002D01*
G37*
%TD.AperFunction*%
%TD*%
M02*
