%TF.GenerationSoftware,KiCad,Pcbnew,6.0.11-3.fc37*%
%TF.CreationDate,2023-03-10T11:04:47-06:00*%
%TF.ProjectId,ESP32,45535033-322e-46b6-9963-61645f706362,rev?*%
%TF.SameCoordinates,Original*%
%TF.FileFunction,Legend,Bot*%
%TF.FilePolarity,Positive*%
%FSLAX46Y46*%
G04 Gerber Fmt 4.6, Leading zero omitted, Abs format (unit mm)*
G04 Created by KiCad (PCBNEW 6.0.11-3.fc37) date 2023-03-10 11:04:47*
%MOMM*%
%LPD*%
G01*
G04 APERTURE LIST*
%ADD10C,0.150000*%
%ADD11C,0.120000*%
G04 APERTURE END LIST*
D10*
%TO.C,JP1*%
X89233333Y-64652380D02*
X89233333Y-65366666D01*
X89280952Y-65509523D01*
X89376190Y-65604761D01*
X89519047Y-65652380D01*
X89614285Y-65652380D01*
X88757142Y-65652380D02*
X88757142Y-64652380D01*
X88376190Y-64652380D01*
X88280952Y-64700000D01*
X88233333Y-64747619D01*
X88185714Y-64842857D01*
X88185714Y-64985714D01*
X88233333Y-65080952D01*
X88280952Y-65128571D01*
X88376190Y-65176190D01*
X88757142Y-65176190D01*
X87233333Y-65652380D02*
X87804761Y-65652380D01*
X87519047Y-65652380D02*
X87519047Y-64652380D01*
X87614285Y-64795238D01*
X87709523Y-64890476D01*
X87804761Y-64938095D01*
%TO.C,C16*%
X70342857Y-60507142D02*
X70390476Y-60554761D01*
X70533333Y-60602380D01*
X70628571Y-60602380D01*
X70771428Y-60554761D01*
X70866666Y-60459523D01*
X70914285Y-60364285D01*
X70961904Y-60173809D01*
X70961904Y-60030952D01*
X70914285Y-59840476D01*
X70866666Y-59745238D01*
X70771428Y-59650000D01*
X70628571Y-59602380D01*
X70533333Y-59602380D01*
X70390476Y-59650000D01*
X70342857Y-59697619D01*
X69390476Y-60602380D02*
X69961904Y-60602380D01*
X69676190Y-60602380D02*
X69676190Y-59602380D01*
X69771428Y-59745238D01*
X69866666Y-59840476D01*
X69961904Y-59888095D01*
X68533333Y-59602380D02*
X68723809Y-59602380D01*
X68819047Y-59650000D01*
X68866666Y-59697619D01*
X68961904Y-59840476D01*
X69009523Y-60030952D01*
X69009523Y-60411904D01*
X68961904Y-60507142D01*
X68914285Y-60554761D01*
X68819047Y-60602380D01*
X68628571Y-60602380D01*
X68533333Y-60554761D01*
X68485714Y-60507142D01*
X68438095Y-60411904D01*
X68438095Y-60173809D01*
X68485714Y-60078571D01*
X68533333Y-60030952D01*
X68628571Y-59983333D01*
X68819047Y-59983333D01*
X68914285Y-60030952D01*
X68961904Y-60078571D01*
X69009523Y-60173809D01*
%TO.C,C14*%
X76742857Y-74237142D02*
X76790476Y-74284761D01*
X76933333Y-74332380D01*
X77028571Y-74332380D01*
X77171428Y-74284761D01*
X77266666Y-74189523D01*
X77314285Y-74094285D01*
X77361904Y-73903809D01*
X77361904Y-73760952D01*
X77314285Y-73570476D01*
X77266666Y-73475238D01*
X77171428Y-73380000D01*
X77028571Y-73332380D01*
X76933333Y-73332380D01*
X76790476Y-73380000D01*
X76742857Y-73427619D01*
X75790476Y-74332380D02*
X76361904Y-74332380D01*
X76076190Y-74332380D02*
X76076190Y-73332380D01*
X76171428Y-73475238D01*
X76266666Y-73570476D01*
X76361904Y-73618095D01*
X74933333Y-73665714D02*
X74933333Y-74332380D01*
X75171428Y-73284761D02*
X75409523Y-73999047D01*
X74790476Y-73999047D01*
%TO.C,C7*%
X66737142Y-62833333D02*
X66784761Y-62785714D01*
X66832380Y-62642857D01*
X66832380Y-62547619D01*
X66784761Y-62404761D01*
X66689523Y-62309523D01*
X66594285Y-62261904D01*
X66403809Y-62214285D01*
X66260952Y-62214285D01*
X66070476Y-62261904D01*
X65975238Y-62309523D01*
X65880000Y-62404761D01*
X65832380Y-62547619D01*
X65832380Y-62642857D01*
X65880000Y-62785714D01*
X65927619Y-62833333D01*
X65832380Y-63166666D02*
X65832380Y-63833333D01*
X66832380Y-63404761D01*
%TO.C,J2*%
X70333333Y-25352380D02*
X70333333Y-26066666D01*
X70380952Y-26209523D01*
X70476190Y-26304761D01*
X70619047Y-26352380D01*
X70714285Y-26352380D01*
X69904761Y-25447619D02*
X69857142Y-25400000D01*
X69761904Y-25352380D01*
X69523809Y-25352380D01*
X69428571Y-25400000D01*
X69380952Y-25447619D01*
X69333333Y-25542857D01*
X69333333Y-25638095D01*
X69380952Y-25780952D01*
X69952380Y-26352380D01*
X69333333Y-26352380D01*
%TO.C,C2*%
X81966666Y-65857142D02*
X82014285Y-65904761D01*
X82157142Y-65952380D01*
X82252380Y-65952380D01*
X82395238Y-65904761D01*
X82490476Y-65809523D01*
X82538095Y-65714285D01*
X82585714Y-65523809D01*
X82585714Y-65380952D01*
X82538095Y-65190476D01*
X82490476Y-65095238D01*
X82395238Y-65000000D01*
X82252380Y-64952380D01*
X82157142Y-64952380D01*
X82014285Y-65000000D01*
X81966666Y-65047619D01*
X81585714Y-65047619D02*
X81538095Y-65000000D01*
X81442857Y-64952380D01*
X81204761Y-64952380D01*
X81109523Y-65000000D01*
X81061904Y-65047619D01*
X81014285Y-65142857D01*
X81014285Y-65238095D01*
X81061904Y-65380952D01*
X81633333Y-65952380D01*
X81014285Y-65952380D01*
%TO.C,C4*%
X63639602Y-69477142D02*
X63687221Y-69524761D01*
X63830078Y-69572380D01*
X63925316Y-69572380D01*
X64068174Y-69524761D01*
X64163412Y-69429523D01*
X64211031Y-69334285D01*
X64258650Y-69143809D01*
X64258650Y-69000952D01*
X64211031Y-68810476D01*
X64163412Y-68715238D01*
X64068174Y-68620000D01*
X63925316Y-68572380D01*
X63830078Y-68572380D01*
X63687221Y-68620000D01*
X63639602Y-68667619D01*
X62782459Y-68905714D02*
X62782459Y-69572380D01*
X63020555Y-68524761D02*
X63258650Y-69239047D01*
X62639602Y-69239047D01*
%TO.C,C6*%
X79166666Y-72237142D02*
X79214285Y-72284761D01*
X79357142Y-72332380D01*
X79452380Y-72332380D01*
X79595238Y-72284761D01*
X79690476Y-72189523D01*
X79738095Y-72094285D01*
X79785714Y-71903809D01*
X79785714Y-71760952D01*
X79738095Y-71570476D01*
X79690476Y-71475238D01*
X79595238Y-71380000D01*
X79452380Y-71332380D01*
X79357142Y-71332380D01*
X79214285Y-71380000D01*
X79166666Y-71427619D01*
X78309523Y-71332380D02*
X78500000Y-71332380D01*
X78595238Y-71380000D01*
X78642857Y-71427619D01*
X78738095Y-71570476D01*
X78785714Y-71760952D01*
X78785714Y-72141904D01*
X78738095Y-72237142D01*
X78690476Y-72284761D01*
X78595238Y-72332380D01*
X78404761Y-72332380D01*
X78309523Y-72284761D01*
X78261904Y-72237142D01*
X78214285Y-72141904D01*
X78214285Y-71903809D01*
X78261904Y-71808571D01*
X78309523Y-71760952D01*
X78404761Y-71713333D01*
X78595238Y-71713333D01*
X78690476Y-71760952D01*
X78738095Y-71808571D01*
X78785714Y-71903809D01*
%TO.C,C13*%
X63177142Y-77157142D02*
X63224761Y-77109523D01*
X63272380Y-76966666D01*
X63272380Y-76871428D01*
X63224761Y-76728571D01*
X63129523Y-76633333D01*
X63034285Y-76585714D01*
X62843809Y-76538095D01*
X62700952Y-76538095D01*
X62510476Y-76585714D01*
X62415238Y-76633333D01*
X62320000Y-76728571D01*
X62272380Y-76871428D01*
X62272380Y-76966666D01*
X62320000Y-77109523D01*
X62367619Y-77157142D01*
X63272380Y-78109523D02*
X63272380Y-77538095D01*
X63272380Y-77823809D02*
X62272380Y-77823809D01*
X62415238Y-77728571D01*
X62510476Y-77633333D01*
X62558095Y-77538095D01*
X62272380Y-78442857D02*
X62272380Y-79061904D01*
X62653333Y-78728571D01*
X62653333Y-78871428D01*
X62700952Y-78966666D01*
X62748571Y-79014285D01*
X62843809Y-79061904D01*
X63081904Y-79061904D01*
X63177142Y-79014285D01*
X63224761Y-78966666D01*
X63272380Y-78871428D01*
X63272380Y-78585714D01*
X63224761Y-78490476D01*
X63177142Y-78442857D01*
%TO.C,C1*%
X81766666Y-68257142D02*
X81814285Y-68304761D01*
X81957142Y-68352380D01*
X82052380Y-68352380D01*
X82195238Y-68304761D01*
X82290476Y-68209523D01*
X82338095Y-68114285D01*
X82385714Y-67923809D01*
X82385714Y-67780952D01*
X82338095Y-67590476D01*
X82290476Y-67495238D01*
X82195238Y-67400000D01*
X82052380Y-67352380D01*
X81957142Y-67352380D01*
X81814285Y-67400000D01*
X81766666Y-67447619D01*
X80814285Y-68352380D02*
X81385714Y-68352380D01*
X81100000Y-68352380D02*
X81100000Y-67352380D01*
X81195238Y-67495238D01*
X81290476Y-67590476D01*
X81385714Y-67638095D01*
D11*
%TO.C,JP1*%
X87000000Y-63100000D02*
X87000000Y-63700000D01*
X89800000Y-63700000D02*
X89800000Y-63100000D01*
X89100000Y-62400000D02*
X87700000Y-62400000D01*
X87700000Y-64400000D02*
X89100000Y-64400000D01*
X87000000Y-63700000D02*
G75*
G03*
X87700000Y-64400000I699999J-1D01*
G01*
X89100000Y-64400000D02*
G75*
G03*
X89800000Y-63700000I0J700000D01*
G01*
X87700000Y-62400000D02*
G75*
G03*
X87000000Y-63100000I-1J-699999D01*
G01*
X89800000Y-63100000D02*
G75*
G03*
X89100000Y-62400000I-700000J0D01*
G01*
%TO.C,C16*%
X70411252Y-61090000D02*
X68988748Y-61090000D01*
X70411252Y-62910000D02*
X68988748Y-62910000D01*
%TO.C,C14*%
X75838748Y-72935000D02*
X76361252Y-72935000D01*
X75838748Y-71465000D02*
X76361252Y-71465000D01*
%TO.C,C7*%
X63965000Y-63261252D02*
X63965000Y-62738748D01*
X65435000Y-63261252D02*
X65435000Y-62738748D01*
%TO.C,J2*%
X68240000Y-25010000D02*
X68690000Y-25010000D01*
X73810000Y-22580000D02*
X73810000Y-24310000D01*
X73810000Y-20010000D02*
X73810000Y-20220000D01*
X73810000Y-24310000D02*
X73160000Y-24310000D01*
X66190000Y-24310000D02*
X66850000Y-24310000D01*
X66190000Y-20010000D02*
X66190000Y-20220000D01*
X66190000Y-22580000D02*
X66190000Y-24310000D01*
X68240000Y-25010000D02*
X68240000Y-24620000D01*
%TO.C,C2*%
X78738748Y-64865000D02*
X79261252Y-64865000D01*
X78738748Y-66335000D02*
X79261252Y-66335000D01*
%TO.C,C4*%
X63734188Y-71535000D02*
X63211684Y-71535000D01*
X63734188Y-70065000D02*
X63211684Y-70065000D01*
%TO.C,C6*%
X78738748Y-70935000D02*
X79261252Y-70935000D01*
X78738748Y-69465000D02*
X79261252Y-69465000D01*
%TO.C,C13*%
X63765000Y-77538748D02*
X63765000Y-78061252D01*
X65235000Y-77538748D02*
X65235000Y-78061252D01*
%TO.C,C1*%
X78738748Y-67165000D02*
X79261252Y-67165000D01*
X78738748Y-68635000D02*
X79261252Y-68635000D01*
%TD*%
M02*
