M48
; DRILL file {KiCad 6.0.11-3.fc37} date Fri Mar 10 11:04:45 2023
; FORMAT={-:-/ absolute / inch / decimal}
; #@! TF.CreationDate,2023-03-10T11:04:45-06:00
; #@! TF.GenerationSoftware,Kicad,Pcbnew,6.0.11-3.fc37
; #@! TF.FileFunction,Plated,1,4,PTH
FMAT,2
INCH
; #@! TA.AperFunction,Plated,PTH,ViaDrill
T1C0.0098
; #@! TA.AperFunction,Plated,PTH,ViaDrill
T2C0.0157
; #@! TA.AperFunction,Plated,PTH,ComponentDrill
T3C0.0177
; #@! TA.AperFunction,Plated,PTH,ComponentDrill
T4C0.0394
%
G90
G05
T1
X1.2913Y-2.6969
X2.189Y-2.6614
X2.3189Y-2.5157
X2.3425Y-2.7441
X2.4213Y-2.4449
X2.4331Y-2.7244
X2.5Y-2.7165
X2.5384Y-2.9301
X2.5394Y-3.1811
X2.565Y-1.2343
X2.6004Y-2.3563
X2.6024Y-2.6614
X2.6024Y-2.8661
X2.6102Y-3.0787
X2.622Y-2.4409
X2.6378Y-2.3504
X2.6378Y-2.5945
X2.6772Y-1.0197
X2.6929Y-2.3465
X2.7087Y-2.9016
X2.7165Y-2.5079
X2.7205Y-2.2874
X2.7283Y-1.1142
X2.7598Y-2.5315
X2.7598Y-2.7559
X2.7717Y-2.5827
X2.7756Y-2.9173
X2.7795Y-2.5512
X2.815Y-1.1063
X2.8268Y-2.5236
X2.8425Y-2.9134
X2.8701Y-2.4409
X2.8976Y-1.2165
X2.8976Y-1.2992
X2.9252Y-2.7441
X2.9528Y-2.3307
X2.9567Y-2.6535
X3.0157Y-1.9646
X3.0945Y-2.4055
X3.1063Y-2.8346
X3.1102Y-1.6929
X3.1614Y-1.9567
X3.1693Y-1.6929
X3.1929Y-2.5
X3.2047Y-2.752
X3.2756Y-2.4134
X3.2795Y-1.8898
X3.311Y-1.2047
X3.3386Y-1.3228
X3.4134Y-2.8543
X3.4291Y-2.1142
X3.4764Y-2.0512
X3.5Y-2.7756
X3.5079Y-1.9724
X3.5866Y-2.4961
X3.6181Y-2.6693
X4.0039Y-1.5709
T2
X2.122Y-0.9528
X2.7402Y-1.0472
X2.7783Y-1.0377
T4
X0.8819Y-1.6929
X0.8819Y-1.7929
X0.8819Y-1.8929
X0.8819Y-1.9929
X0.8819Y-2.0929
X0.8819Y-2.1929
X0.8819Y-2.2929
X0.8819Y-2.3929
X0.8819Y-2.4929
X0.8819Y-2.5929
X0.8819Y-2.6929
X0.8819Y-2.7929
X0.8819Y-2.8929
X0.8819Y-2.9929
X0.8819Y-3.0929
X0.8819Y-3.1929
X0.8819Y-3.2929
X0.8819Y-3.3929
X0.8819Y-3.4929
X0.8819Y-3.5929
X0.9819Y-1.6929
X0.9819Y-1.7929
X0.9819Y-1.8929
X0.9819Y-1.9929
X0.9819Y-2.0929
X0.9819Y-2.1929
X0.9819Y-2.2929
X0.9819Y-2.3929
X0.9819Y-2.4929
X0.9819Y-2.5929
X0.9819Y-2.6929
X0.9819Y-2.7929
X0.9819Y-2.8929
X0.9819Y-2.9929
X0.9819Y-3.0929
X0.9819Y-3.1929
X0.9819Y-3.2929
X0.9819Y-3.3929
X0.9819Y-3.4929
X0.9819Y-3.5929
T3
G00X2.6152Y-0.8583
M15
G01X2.6152Y-0.8268
M16
G05
G00X2.8967Y-0.8268
M15
G01X2.8967Y-0.8583
M16
G05
T0
M30
