M48
; DRILL file {KiCad (6.0.0)} date Fri Apr 21 15:57:34 2023
; FORMAT={-:-/ absolute / metric / decimal}
; #@! TF.CreationDate,2023-04-21T15:57:34-05:00
; #@! TF.GenerationSoftware,Kicad,Pcbnew,(6.0.0)
; #@! TF.FileFunction,Plated,1,2,PTH
FMAT,2
METRIC
; #@! TA.AperFunction,Plated,PTH,ViaDrill
T1C0.300
%
G90
G05
T1
X141.31Y-61.86
X141.38Y-61.09
X141.52Y-74.11
X141.52Y-75.2
X141.535Y-59.215
X141.54Y-65.65
X141.56Y-60.2
X141.56Y-64.82
X141.58Y-70.88
X141.58Y-71.61
X141.58Y-73.06
X141.59Y-70.17
X141.59Y-72.33
X141.6Y-67.53
X141.6Y-68.31
X142.01Y-61.47
X142.04Y-62.21
X142.47Y-72.86
X142.505Y-71.415
X142.53Y-70.765
X142.6Y-61.84
X142.63Y-70.065
X142.68Y-72.115
X142.74Y-73.64
X143.19Y-72.86
X143.43Y-63.765
X143.505Y-64.615
X143.52Y-75.2
X143.53Y-62.79
X143.53Y-65.465
X143.55Y-59.23
X143.55Y-60.2
X143.55Y-74.2
X143.58Y-67.26
X143.59Y-67.92
X143.59Y-68.6
X143.755Y-71.365
X145.03Y-62.33
X145.35Y-64.47
X145.5Y-74.2
X145.52Y-75.2
X145.83Y-67.12
X146.09Y-66.36
X146.28Y-70.5
X146.28Y-71.43
X146.3Y-61.23
X146.51Y-73.94
X146.53Y-65.665
X146.76Y-63.0
X147.11Y-61.74
X147.13Y-67.815
X147.13Y-68.515
X147.13Y-69.215
X147.33Y-65.5
X147.33Y-71.65
X147.46Y-63.04
X147.52Y-74.2
X147.52Y-75.2
X147.54Y-59.22
X147.54Y-60.15
X147.88Y-67.815
X147.88Y-68.515
X147.88Y-69.215
X148.13Y-71.57
X148.18Y-63.05
X148.63Y-67.815
X148.63Y-68.515
X148.63Y-69.215
X148.69Y-61.4
X148.73Y-64.77
X148.88Y-65.57
X149.38Y-70.465
X149.52Y-74.2
X149.52Y-75.2
X149.53Y-66.165
X149.73Y-66.965
X149.98Y-71.92
X150.51Y-73.85
X150.67Y-71.98
X150.7Y-66.86
X151.02Y-65.5
X151.33Y-68.19
X151.37Y-71.82
X151.52Y-75.2
X151.525Y-59.205
X151.53Y-60.41
X151.53Y-74.2
X151.78Y-69.51
X151.87Y-70.23
X152.02Y-71.72
X152.03Y-70.96
X152.48Y-69.08
X152.59Y-67.86
X152.82Y-72.69
X152.91Y-70.11
X153.01Y-67.05
X153.14Y-63.44
X153.27Y-68.42
X153.39Y-69.33
X153.44Y-71.39
X153.51Y-60.16
X153.6Y-70.38
X153.69Y-60.92
X153.72Y-65.66
X153.75Y-61.74
X153.77Y-63.86
X153.77Y-64.71
X153.86Y-66.55
X154.37Y-73.69
X154.42Y-64.48
X154.43Y-65.36
X154.5Y-67.19
X154.59Y-61.73
X154.61Y-66.21
X154.81Y-70.25
X154.81Y-71.0
X154.84Y-71.78
X154.85Y-69.49
X154.86Y-67.88
X154.87Y-68.68
X154.93Y-73.19
X154.96Y-72.51
X155.09Y-64.22
X155.1Y-65.07
X155.22Y-66.93
X155.26Y-65.94
X155.48Y-74.04
X155.52Y-59.2
X155.52Y-75.2
X155.64Y-70.23
X155.64Y-71.77
X155.65Y-69.42
X155.65Y-70.98
X155.67Y-67.73
X155.67Y-68.56
X155.73Y-72.45
X155.74Y-73.26
X155.87Y-63.94
X155.87Y-64.86
X155.88Y-66.67
X155.9Y-65.77
T0
M30
