%FSLAX45Y45*%
G04 Gerber Fmt 4.5, Leading zero omitted, Abs format (unit mm)*
G04 Created by KiCad (PCBNEW (6.0.0)) date 2023-04-21 15:57:33*
%MOMM*%
%LPD*%
G01*
G04 APERTURE LIST*
%TA.AperFunction,Profile*%
%ADD10C,0.100000*%
%TD*%
%ADD11C,0.200000*%
%ADD12C,0.030000*%
G04 APERTURE END LIST*
D10*
X15677000Y-5795000D02*
X15677000Y-7646000D01*
X14027000Y-5795000D02*
X14027000Y-7646000D01*
X14027000Y-5795000D02*
X15677000Y-5795000D01*
X14027000Y-7646000D02*
X15677000Y-7646000D01*
D11*
D12*
X14116000Y-6171000D02*
X14146000Y-6201000D01*
X14146000Y-6171000D02*
X14116000Y-6201000D01*
X14123000Y-6094000D02*
X14153000Y-6124000D01*
X14153000Y-6094000D02*
X14123000Y-6124000D01*
X14137000Y-7396000D02*
X14167000Y-7426000D01*
X14167000Y-7396000D02*
X14137000Y-7426000D01*
X14137000Y-7505000D02*
X14167000Y-7535000D01*
X14167000Y-7505000D02*
X14137000Y-7535000D01*
X14138500Y-5906500D02*
X14168500Y-5936500D01*
X14168500Y-5906500D02*
X14138500Y-5936500D01*
X14139000Y-6550000D02*
X14169000Y-6580000D01*
X14169000Y-6550000D02*
X14139000Y-6580000D01*
X14141000Y-6005000D02*
X14171000Y-6035000D01*
X14171000Y-6005000D02*
X14141000Y-6035000D01*
X14141000Y-6467000D02*
X14171000Y-6497000D01*
X14171000Y-6467000D02*
X14141000Y-6497000D01*
X14143000Y-7073000D02*
X14173000Y-7103000D01*
X14173000Y-7073000D02*
X14143000Y-7103000D01*
X14143000Y-7146000D02*
X14173000Y-7176000D01*
X14173000Y-7146000D02*
X14143000Y-7176000D01*
X14143000Y-7291000D02*
X14173000Y-7321000D01*
X14173000Y-7291000D02*
X14143000Y-7321000D01*
X14144000Y-7002000D02*
X14174000Y-7032000D01*
X14174000Y-7002000D02*
X14144000Y-7032000D01*
X14144000Y-7218000D02*
X14174000Y-7248000D01*
X14174000Y-7218000D02*
X14144000Y-7248000D01*
X14145000Y-6738000D02*
X14175000Y-6768000D01*
X14175000Y-6738000D02*
X14145000Y-6768000D01*
X14145000Y-6816000D02*
X14175000Y-6846000D01*
X14175000Y-6816000D02*
X14145000Y-6846000D01*
X14186000Y-6132000D02*
X14216000Y-6162000D01*
X14216000Y-6132000D02*
X14186000Y-6162000D01*
X14189000Y-6206000D02*
X14219000Y-6236000D01*
X14219000Y-6206000D02*
X14189000Y-6236000D01*
X14232000Y-7271000D02*
X14262000Y-7301000D01*
X14262000Y-7271000D02*
X14232000Y-7301000D01*
X14235500Y-7126500D02*
X14265500Y-7156500D01*
X14265500Y-7126500D02*
X14235500Y-7156500D01*
X14238000Y-7061500D02*
X14268000Y-7091500D01*
X14268000Y-7061500D02*
X14238000Y-7091500D01*
X14245000Y-6169000D02*
X14275000Y-6199000D01*
X14275000Y-6169000D02*
X14245000Y-6199000D01*
X14248000Y-6991500D02*
X14278000Y-7021500D01*
X14278000Y-6991500D02*
X14248000Y-7021500D01*
X14253000Y-7196500D02*
X14283000Y-7226500D01*
X14283000Y-7196500D02*
X14253000Y-7226500D01*
X14259000Y-7349000D02*
X14289000Y-7379000D01*
X14289000Y-7349000D02*
X14259000Y-7379000D01*
X14304000Y-7271000D02*
X14334000Y-7301000D01*
X14334000Y-7271000D02*
X14304000Y-7301000D01*
X14328000Y-6361500D02*
X14358000Y-6391500D01*
X14358000Y-6361500D02*
X14328000Y-6391500D01*
X14335500Y-6446500D02*
X14365500Y-6476500D01*
X14365500Y-6446500D02*
X14335500Y-6476500D01*
X14337000Y-7505000D02*
X14367000Y-7535000D01*
X14367000Y-7505000D02*
X14337000Y-7535000D01*
X14338000Y-6264000D02*
X14368000Y-6294000D01*
X14368000Y-6264000D02*
X14338000Y-6294000D01*
X14338000Y-6531500D02*
X14368000Y-6561500D01*
X14368000Y-6531500D02*
X14338000Y-6561500D01*
X14340000Y-5908000D02*
X14370000Y-5938000D01*
X14370000Y-5908000D02*
X14340000Y-5938000D01*
X14340000Y-6005000D02*
X14370000Y-6035000D01*
X14370000Y-6005000D02*
X14340000Y-6035000D01*
X14340000Y-7405000D02*
X14370000Y-7435000D01*
X14370000Y-7405000D02*
X14340000Y-7435000D01*
X14343000Y-6711000D02*
X14373000Y-6741000D01*
X14373000Y-6711000D02*
X14343000Y-6741000D01*
X14344000Y-6777000D02*
X14374000Y-6807000D01*
X14374000Y-6777000D02*
X14344000Y-6807000D01*
X14344000Y-6845000D02*
X14374000Y-6875000D01*
X14374000Y-6845000D02*
X14344000Y-6875000D01*
X14360500Y-7121500D02*
X14390500Y-7151500D01*
X14390500Y-7121500D02*
X14360500Y-7151500D01*
X14488000Y-6218000D02*
X14518000Y-6248000D01*
X14518000Y-6218000D02*
X14488000Y-6248000D01*
X14520000Y-6432000D02*
X14550000Y-6462000D01*
X14550000Y-6432000D02*
X14520000Y-6462000D01*
X14535000Y-7405000D02*
X14565000Y-7435000D01*
X14565000Y-7405000D02*
X14535000Y-7435000D01*
X14537000Y-7505000D02*
X14567000Y-7535000D01*
X14567000Y-7505000D02*
X14537000Y-7535000D01*
X14568000Y-6697000D02*
X14598000Y-6727000D01*
X14598000Y-6697000D02*
X14568000Y-6727000D01*
X14594000Y-6621000D02*
X14624000Y-6651000D01*
X14624000Y-6621000D02*
X14594000Y-6651000D01*
X14613000Y-7035000D02*
X14643000Y-7065000D01*
X14643000Y-7035000D02*
X14613000Y-7065000D01*
X14613000Y-7128000D02*
X14643000Y-7158000D01*
X14643000Y-7128000D02*
X14613000Y-7158000D01*
X14615000Y-6108000D02*
X14645000Y-6138000D01*
X14645000Y-6108000D02*
X14615000Y-6138000D01*
X14636000Y-7379000D02*
X14666000Y-7409000D01*
X14666000Y-7379000D02*
X14636000Y-7409000D01*
X14638000Y-6551500D02*
X14668000Y-6581500D01*
X14668000Y-6551500D02*
X14638000Y-6581500D01*
X14661000Y-6285000D02*
X14691000Y-6315000D01*
X14691000Y-6285000D02*
X14661000Y-6315000D01*
X14696000Y-6159000D02*
X14726000Y-6189000D01*
X14726000Y-6159000D02*
X14696000Y-6189000D01*
X14698000Y-6766500D02*
X14728000Y-6796500D01*
X14728000Y-6766500D02*
X14698000Y-6796500D01*
X14698000Y-6836500D02*
X14728000Y-6866500D01*
X14728000Y-6836500D02*
X14698000Y-6866500D01*
X14698000Y-6906500D02*
X14728000Y-6936500D01*
X14728000Y-6906500D02*
X14698000Y-6936500D01*
X14718000Y-6535000D02*
X14748000Y-6565000D01*
X14748000Y-6535000D02*
X14718000Y-6565000D01*
X14718000Y-7150000D02*
X14748000Y-7180000D01*
X14748000Y-7150000D02*
X14718000Y-7180000D01*
X14731000Y-6289000D02*
X14761000Y-6319000D01*
X14761000Y-6289000D02*
X14731000Y-6319000D01*
X14737000Y-7405000D02*
X14767000Y-7435000D01*
X14767000Y-7405000D02*
X14737000Y-7435000D01*
X14737000Y-7505000D02*
X14767000Y-7535000D01*
X14767000Y-7505000D02*
X14737000Y-7535000D01*
X14739000Y-5907000D02*
X14769000Y-5937000D01*
X14769000Y-5907000D02*
X14739000Y-5937000D01*
X14739000Y-6000000D02*
X14769000Y-6030000D01*
X14769000Y-6000000D02*
X14739000Y-6030000D01*
X14773000Y-6766500D02*
X14803000Y-6796500D01*
X14803000Y-6766500D02*
X14773000Y-6796500D01*
X14773000Y-6836500D02*
X14803000Y-6866500D01*
X14803000Y-6836500D02*
X14773000Y-6866500D01*
X14773000Y-6906500D02*
X14803000Y-6936500D01*
X14803000Y-6906500D02*
X14773000Y-6936500D01*
X14798000Y-7142000D02*
X14828000Y-7172000D01*
X14828000Y-7142000D02*
X14798000Y-7172000D01*
X14803000Y-6290000D02*
X14833000Y-6320000D01*
X14833000Y-6290000D02*
X14803000Y-6320000D01*
X14848000Y-6766500D02*
X14878000Y-6796500D01*
X14878000Y-6766500D02*
X14848000Y-6796500D01*
X14848000Y-6836500D02*
X14878000Y-6866500D01*
X14878000Y-6836500D02*
X14848000Y-6866500D01*
X14848000Y-6906500D02*
X14878000Y-6936500D01*
X14878000Y-6906500D02*
X14848000Y-6936500D01*
X14854000Y-6125000D02*
X14884000Y-6155000D01*
X14884000Y-6125000D02*
X14854000Y-6155000D01*
X14858000Y-6462000D02*
X14888000Y-6492000D01*
X14888000Y-6462000D02*
X14858000Y-6492000D01*
X14873000Y-6542000D02*
X14903000Y-6572000D01*
X14903000Y-6542000D02*
X14873000Y-6572000D01*
X14923000Y-7031500D02*
X14953000Y-7061500D01*
X14953000Y-7031500D02*
X14923000Y-7061500D01*
X14937000Y-7405000D02*
X14967000Y-7435000D01*
X14967000Y-7405000D02*
X14937000Y-7435000D01*
X14937000Y-7505000D02*
X14967000Y-7535000D01*
X14967000Y-7505000D02*
X14937000Y-7535000D01*
X14938000Y-6601500D02*
X14968000Y-6631500D01*
X14968000Y-6601500D02*
X14938000Y-6631500D01*
X14958000Y-6681500D02*
X14988000Y-6711500D01*
X14988000Y-6681500D02*
X14958000Y-6711500D01*
X14983000Y-7177000D02*
X15013000Y-7207000D01*
X15013000Y-7177000D02*
X14983000Y-7207000D01*
X15036000Y-7370000D02*
X15066000Y-7400000D01*
X15066000Y-7370000D02*
X15036000Y-7400000D01*
X15052000Y-7183000D02*
X15082000Y-7213000D01*
X15082000Y-7183000D02*
X15052000Y-7213000D01*
X15055000Y-6671000D02*
X15085000Y-6701000D01*
X15085000Y-6671000D02*
X15055000Y-6701000D01*
X15087000Y-6535000D02*
X15117000Y-6565000D01*
X15117000Y-6535000D02*
X15087000Y-6565000D01*
X15118000Y-6804000D02*
X15148000Y-6834000D01*
X15148000Y-6804000D02*
X15118000Y-6834000D01*
X15122000Y-7167000D02*
X15152000Y-7197000D01*
X15152000Y-7167000D02*
X15122000Y-7197000D01*
X15137000Y-7505000D02*
X15167000Y-7535000D01*
X15167000Y-7505000D02*
X15137000Y-7535000D01*
X15137500Y-5905500D02*
X15167500Y-5935500D01*
X15167500Y-5905500D02*
X15137500Y-5935500D01*
X15138000Y-6026000D02*
X15168000Y-6056000D01*
X15168000Y-6026000D02*
X15138000Y-6056000D01*
X15138000Y-7405000D02*
X15168000Y-7435000D01*
X15168000Y-7405000D02*
X15138000Y-7435000D01*
X15163000Y-6936000D02*
X15193000Y-6966000D01*
X15193000Y-6936000D02*
X15163000Y-6966000D01*
X15172000Y-7008000D02*
X15202000Y-7038000D01*
X15202000Y-7008000D02*
X15172000Y-7038000D01*
X15187000Y-7157000D02*
X15217000Y-7187000D01*
X15217000Y-7157000D02*
X15187000Y-7187000D01*
X15188000Y-7081000D02*
X15218000Y-7111000D01*
X15218000Y-7081000D02*
X15188000Y-7111000D01*
X15233000Y-6893000D02*
X15263000Y-6923000D01*
X15263000Y-6893000D02*
X15233000Y-6923000D01*
X15244000Y-6771000D02*
X15274000Y-6801000D01*
X15274000Y-6771000D02*
X15244000Y-6801000D01*
X15267000Y-7254000D02*
X15297000Y-7284000D01*
X15297000Y-7254000D02*
X15267000Y-7284000D01*
X15276000Y-6996000D02*
X15306000Y-7026000D01*
X15306000Y-6996000D02*
X15276000Y-7026000D01*
X15286000Y-6690000D02*
X15316000Y-6720000D01*
X15316000Y-6690000D02*
X15286000Y-6720000D01*
X15299000Y-6329000D02*
X15329000Y-6359000D01*
X15329000Y-6329000D02*
X15299000Y-6359000D01*
X15312000Y-6827000D02*
X15342000Y-6857000D01*
X15342000Y-6827000D02*
X15312000Y-6857000D01*
X15324000Y-6918000D02*
X15354000Y-6948000D01*
X15354000Y-6918000D02*
X15324000Y-6948000D01*
X15329000Y-7124000D02*
X15359000Y-7154000D01*
X15359000Y-7124000D02*
X15329000Y-7154000D01*
X15336000Y-6001000D02*
X15366000Y-6031000D01*
X15366000Y-6001000D02*
X15336000Y-6031000D01*
X15345000Y-7023000D02*
X15375000Y-7053000D01*
X15375000Y-7023000D02*
X15345000Y-7053000D01*
X15354000Y-6077000D02*
X15384000Y-6107000D01*
X15384000Y-6077000D02*
X15354000Y-6107000D01*
X15357000Y-6551000D02*
X15387000Y-6581000D01*
X15387000Y-6551000D02*
X15357000Y-6581000D01*
X15360000Y-6159000D02*
X15390000Y-6189000D01*
X15390000Y-6159000D02*
X15360000Y-6189000D01*
X15362000Y-6371000D02*
X15392000Y-6401000D01*
X15392000Y-6371000D02*
X15362000Y-6401000D01*
X15362000Y-6456000D02*
X15392000Y-6486000D01*
X15392000Y-6456000D02*
X15362000Y-6486000D01*
X15371000Y-6640000D02*
X15401000Y-6670000D01*
X15401000Y-6640000D02*
X15371000Y-6670000D01*
X15422000Y-7354000D02*
X15452000Y-7384000D01*
X15452000Y-7354000D02*
X15422000Y-7384000D01*
X15427000Y-6433000D02*
X15457000Y-6463000D01*
X15457000Y-6433000D02*
X15427000Y-6463000D01*
X15428000Y-6521000D02*
X15458000Y-6551000D01*
X15458000Y-6521000D02*
X15428000Y-6551000D01*
X15435000Y-6704000D02*
X15465000Y-6734000D01*
X15465000Y-6704000D02*
X15435000Y-6734000D01*
X15444000Y-6158000D02*
X15474000Y-6188000D01*
X15474000Y-6158000D02*
X15444000Y-6188000D01*
X15446000Y-6606000D02*
X15476000Y-6636000D01*
X15476000Y-6606000D02*
X15446000Y-6636000D01*
X15466000Y-7010000D02*
X15496000Y-7040000D01*
X15496000Y-7010000D02*
X15466000Y-7040000D01*
X15466000Y-7085000D02*
X15496000Y-7115000D01*
X15496000Y-7085000D02*
X15466000Y-7115000D01*
X15469000Y-7163000D02*
X15499000Y-7193000D01*
X15499000Y-7163000D02*
X15469000Y-7193000D01*
X15470000Y-6934000D02*
X15500000Y-6964000D01*
X15500000Y-6934000D02*
X15470000Y-6964000D01*
X15471000Y-6773000D02*
X15501000Y-6803000D01*
X15501000Y-6773000D02*
X15471000Y-6803000D01*
X15472000Y-6853000D02*
X15502000Y-6883000D01*
X15502000Y-6853000D02*
X15472000Y-6883000D01*
X15478000Y-7304000D02*
X15508000Y-7334000D01*
X15508000Y-7304000D02*
X15478000Y-7334000D01*
X15481000Y-7236000D02*
X15511000Y-7266000D01*
X15511000Y-7236000D02*
X15481000Y-7266000D01*
X15494000Y-6407000D02*
X15524000Y-6437000D01*
X15524000Y-6407000D02*
X15494000Y-6437000D01*
X15495000Y-6492000D02*
X15525000Y-6522000D01*
X15525000Y-6492000D02*
X15495000Y-6522000D01*
X15507000Y-6678000D02*
X15537000Y-6708000D01*
X15537000Y-6678000D02*
X15507000Y-6708000D01*
X15511000Y-6579000D02*
X15541000Y-6609000D01*
X15541000Y-6579000D02*
X15511000Y-6609000D01*
X15533000Y-7389000D02*
X15563000Y-7419000D01*
X15563000Y-7389000D02*
X15533000Y-7419000D01*
X15537000Y-5905000D02*
X15567000Y-5935000D01*
X15567000Y-5905000D02*
X15537000Y-5935000D01*
X15537000Y-7505000D02*
X15567000Y-7535000D01*
X15567000Y-7505000D02*
X15537000Y-7535000D01*
X15549000Y-7008000D02*
X15579000Y-7038000D01*
X15579000Y-7008000D02*
X15549000Y-7038000D01*
X15549000Y-7162000D02*
X15579000Y-7192000D01*
X15579000Y-7162000D02*
X15549000Y-7192000D01*
X15550000Y-6927000D02*
X15580000Y-6957000D01*
X15580000Y-6927000D02*
X15550000Y-6957000D01*
X15550000Y-7083000D02*
X15580000Y-7113000D01*
X15580000Y-7083000D02*
X15550000Y-7113000D01*
X15552000Y-6758000D02*
X15582000Y-6788000D01*
X15582000Y-6758000D02*
X15552000Y-6788000D01*
X15552000Y-6841000D02*
X15582000Y-6871000D01*
X15582000Y-6841000D02*
X15552000Y-6871000D01*
X15558000Y-7230000D02*
X15588000Y-7260000D01*
X15588000Y-7230000D02*
X15558000Y-7260000D01*
X15559000Y-7311000D02*
X15589000Y-7341000D01*
X15589000Y-7311000D02*
X15559000Y-7341000D01*
X15572000Y-6379000D02*
X15602000Y-6409000D01*
X15602000Y-6379000D02*
X15572000Y-6409000D01*
X15572000Y-6471000D02*
X15602000Y-6501000D01*
X15602000Y-6471000D02*
X15572000Y-6501000D01*
X15573000Y-6652000D02*
X15603000Y-6682000D01*
X15603000Y-6652000D02*
X15573000Y-6682000D01*
X15575000Y-6562000D02*
X15605000Y-6592000D01*
X15605000Y-6562000D02*
X15575000Y-6592000D01*
D11*
X14279619Y-7961476D02*
X14279619Y-7761476D01*
X14327238Y-7761476D01*
X14355809Y-7771000D01*
X14374857Y-7790048D01*
X14384381Y-7809095D01*
X14393905Y-7847190D01*
X14393905Y-7875762D01*
X14384381Y-7913857D01*
X14374857Y-7932905D01*
X14355809Y-7951952D01*
X14327238Y-7961476D01*
X14279619Y-7961476D01*
X14479619Y-7961476D02*
X14479619Y-7828143D01*
X14479619Y-7866238D02*
X14489143Y-7847190D01*
X14498667Y-7837667D01*
X14517714Y-7828143D01*
X14536762Y-7828143D01*
X14603428Y-7961476D02*
X14603428Y-7828143D01*
X14603428Y-7761476D02*
X14593905Y-7771000D01*
X14603428Y-7780524D01*
X14612952Y-7771000D01*
X14603428Y-7761476D01*
X14603428Y-7780524D01*
X14727238Y-7961476D02*
X14708190Y-7951952D01*
X14698667Y-7932905D01*
X14698667Y-7761476D01*
X14832000Y-7961476D02*
X14812952Y-7951952D01*
X14803428Y-7932905D01*
X14803428Y-7761476D01*
X15060571Y-7961476D02*
X15060571Y-7761476D01*
X15127238Y-7904333D01*
X15193905Y-7761476D01*
X15193905Y-7961476D01*
X15374857Y-7961476D02*
X15374857Y-7856714D01*
X15365333Y-7837667D01*
X15346286Y-7828143D01*
X15308190Y-7828143D01*
X15289143Y-7837667D01*
X15374857Y-7951952D02*
X15355809Y-7961476D01*
X15308190Y-7961476D01*
X15289143Y-7951952D01*
X15279619Y-7932905D01*
X15279619Y-7913857D01*
X15289143Y-7894809D01*
X15308190Y-7885286D01*
X15355809Y-7885286D01*
X15374857Y-7875762D01*
X15470095Y-7828143D02*
X15470095Y-8028143D01*
X15470095Y-7837667D02*
X15489143Y-7828143D01*
X15527238Y-7828143D01*
X15546286Y-7837667D01*
X15555809Y-7847190D01*
X15565333Y-7866238D01*
X15565333Y-7923381D01*
X15555809Y-7942428D01*
X15546286Y-7951952D01*
X15527238Y-7961476D01*
X15489143Y-7961476D01*
X15470095Y-7951952D01*
X15651048Y-7942428D02*
X15660571Y-7951952D01*
X15651048Y-7961476D01*
X15641524Y-7951952D01*
X15651048Y-7942428D01*
X15651048Y-7961476D01*
X15651048Y-7837667D02*
X15660571Y-7847190D01*
X15651048Y-7856714D01*
X15641524Y-7847190D01*
X15651048Y-7837667D01*
X15651048Y-7856714D01*
D12*
X13992000Y-8276000D02*
X14022000Y-8306000D01*
X14022000Y-8276000D02*
X13992000Y-8306000D01*
D11*
X14317714Y-8181476D02*
X14336762Y-8181476D01*
X14355809Y-8191000D01*
X14365333Y-8200524D01*
X14374857Y-8219571D01*
X14384381Y-8257667D01*
X14384381Y-8305286D01*
X14374857Y-8343381D01*
X14365333Y-8362428D01*
X14355809Y-8371952D01*
X14336762Y-8381476D01*
X14317714Y-8381476D01*
X14298667Y-8371952D01*
X14289143Y-8362428D01*
X14279619Y-8343381D01*
X14270095Y-8305286D01*
X14270095Y-8257667D01*
X14279619Y-8219571D01*
X14289143Y-8200524D01*
X14298667Y-8191000D01*
X14317714Y-8181476D01*
X14470095Y-8362428D02*
X14479619Y-8371952D01*
X14470095Y-8381476D01*
X14460571Y-8371952D01*
X14470095Y-8362428D01*
X14470095Y-8381476D01*
X14546286Y-8181476D02*
X14670095Y-8181476D01*
X14603428Y-8257667D01*
X14632000Y-8257667D01*
X14651048Y-8267190D01*
X14660571Y-8276714D01*
X14670095Y-8295762D01*
X14670095Y-8343381D01*
X14660571Y-8362428D01*
X14651048Y-8371952D01*
X14632000Y-8381476D01*
X14574857Y-8381476D01*
X14555809Y-8371952D01*
X14546286Y-8362428D01*
X14793905Y-8181476D02*
X14812952Y-8181476D01*
X14832000Y-8191000D01*
X14841524Y-8200524D01*
X14851048Y-8219571D01*
X14860571Y-8257667D01*
X14860571Y-8305286D01*
X14851048Y-8343381D01*
X14841524Y-8362428D01*
X14832000Y-8371952D01*
X14812952Y-8381476D01*
X14793905Y-8381476D01*
X14774857Y-8371952D01*
X14765333Y-8362428D01*
X14755809Y-8343381D01*
X14746286Y-8305286D01*
X14746286Y-8257667D01*
X14755809Y-8219571D01*
X14765333Y-8200524D01*
X14774857Y-8191000D01*
X14793905Y-8181476D01*
X14984381Y-8181476D02*
X15003428Y-8181476D01*
X15022476Y-8191000D01*
X15032000Y-8200524D01*
X15041524Y-8219571D01*
X15051048Y-8257667D01*
X15051048Y-8305286D01*
X15041524Y-8343381D01*
X15032000Y-8362428D01*
X15022476Y-8371952D01*
X15003428Y-8381476D01*
X14984381Y-8381476D01*
X14965333Y-8371952D01*
X14955809Y-8362428D01*
X14946286Y-8343381D01*
X14936762Y-8305286D01*
X14936762Y-8257667D01*
X14946286Y-8219571D01*
X14955809Y-8200524D01*
X14965333Y-8191000D01*
X14984381Y-8181476D01*
X15136762Y-8381476D02*
X15136762Y-8248143D01*
X15136762Y-8267190D02*
X15146286Y-8257667D01*
X15165333Y-8248143D01*
X15193905Y-8248143D01*
X15212952Y-8257667D01*
X15222476Y-8276714D01*
X15222476Y-8381476D01*
X15222476Y-8276714D02*
X15232000Y-8257667D01*
X15251048Y-8248143D01*
X15279619Y-8248143D01*
X15298667Y-8257667D01*
X15308190Y-8276714D01*
X15308190Y-8381476D01*
X15403428Y-8381476D02*
X15403428Y-8248143D01*
X15403428Y-8267190D02*
X15412952Y-8257667D01*
X15432000Y-8248143D01*
X15460571Y-8248143D01*
X15479619Y-8257667D01*
X15489143Y-8276714D01*
X15489143Y-8381476D01*
X15489143Y-8276714D02*
X15498667Y-8257667D01*
X15517714Y-8248143D01*
X15546286Y-8248143D01*
X15565333Y-8257667D01*
X15574857Y-8276714D01*
X15574857Y-8381476D01*
X15965333Y-8171952D02*
X15793905Y-8429095D01*
X16222476Y-8181476D02*
X16241524Y-8181476D01*
X16260571Y-8191000D01*
X16270095Y-8200524D01*
X16279619Y-8219571D01*
X16289143Y-8257667D01*
X16289143Y-8305286D01*
X16279619Y-8343381D01*
X16270095Y-8362428D01*
X16260571Y-8371952D01*
X16241524Y-8381476D01*
X16222476Y-8381476D01*
X16203428Y-8371952D01*
X16193905Y-8362428D01*
X16184381Y-8343381D01*
X16174857Y-8305286D01*
X16174857Y-8257667D01*
X16184381Y-8219571D01*
X16193905Y-8200524D01*
X16203428Y-8191000D01*
X16222476Y-8181476D01*
X16374857Y-8362428D02*
X16384381Y-8371952D01*
X16374857Y-8381476D01*
X16365333Y-8371952D01*
X16374857Y-8362428D01*
X16374857Y-8381476D01*
X16508190Y-8181476D02*
X16527238Y-8181476D01*
X16546286Y-8191000D01*
X16555809Y-8200524D01*
X16565333Y-8219571D01*
X16574857Y-8257667D01*
X16574857Y-8305286D01*
X16565333Y-8343381D01*
X16555809Y-8362428D01*
X16546286Y-8371952D01*
X16527238Y-8381476D01*
X16508190Y-8381476D01*
X16489143Y-8371952D01*
X16479619Y-8362428D01*
X16470095Y-8343381D01*
X16460571Y-8305286D01*
X16460571Y-8257667D01*
X16470095Y-8219571D01*
X16479619Y-8200524D01*
X16489143Y-8191000D01*
X16508190Y-8181476D01*
X16765333Y-8381476D02*
X16651048Y-8381476D01*
X16708190Y-8381476D02*
X16708190Y-8181476D01*
X16689143Y-8210048D01*
X16670095Y-8229095D01*
X16651048Y-8238619D01*
X16955810Y-8381476D02*
X16841524Y-8381476D01*
X16898667Y-8381476D02*
X16898667Y-8181476D01*
X16879619Y-8210048D01*
X16860571Y-8229095D01*
X16841524Y-8238619D01*
X17070095Y-8267190D02*
X17051048Y-8257667D01*
X17041524Y-8248143D01*
X17032000Y-8229095D01*
X17032000Y-8219571D01*
X17041524Y-8200524D01*
X17051048Y-8191000D01*
X17070095Y-8181476D01*
X17108190Y-8181476D01*
X17127238Y-8191000D01*
X17136762Y-8200524D01*
X17146286Y-8219571D01*
X17146286Y-8229095D01*
X17136762Y-8248143D01*
X17127238Y-8257667D01*
X17108190Y-8267190D01*
X17070095Y-8267190D01*
X17051048Y-8276714D01*
X17041524Y-8286238D01*
X17032000Y-8305286D01*
X17032000Y-8343381D01*
X17041524Y-8362428D01*
X17051048Y-8371952D01*
X17070095Y-8381476D01*
X17108190Y-8381476D01*
X17127238Y-8371952D01*
X17136762Y-8362428D01*
X17146286Y-8343381D01*
X17146286Y-8305286D01*
X17136762Y-8286238D01*
X17127238Y-8276714D01*
X17108190Y-8267190D01*
X17222476Y-8181476D02*
X17222476Y-8219571D01*
X17298667Y-8181476D02*
X17298667Y-8219571D01*
X17593905Y-8457667D02*
X17584381Y-8448143D01*
X17565333Y-8419571D01*
X17555810Y-8400524D01*
X17546286Y-8371952D01*
X17536762Y-8324333D01*
X17536762Y-8286238D01*
X17546286Y-8238619D01*
X17555810Y-8210048D01*
X17565333Y-8191000D01*
X17584381Y-8162428D01*
X17593905Y-8152905D01*
X17774857Y-8381476D02*
X17660571Y-8381476D01*
X17717714Y-8381476D02*
X17717714Y-8181476D01*
X17698667Y-8210048D01*
X17679619Y-8229095D01*
X17660571Y-8238619D01*
X17946286Y-8248143D02*
X17946286Y-8381476D01*
X17898667Y-8171952D02*
X17851048Y-8314809D01*
X17974857Y-8314809D01*
X18155810Y-8381476D02*
X18041524Y-8381476D01*
X18098667Y-8381476D02*
X18098667Y-8181476D01*
X18079619Y-8210048D01*
X18060571Y-8229095D01*
X18041524Y-8238619D01*
X18393905Y-8381476D02*
X18393905Y-8181476D01*
X18479619Y-8381476D02*
X18479619Y-8276714D01*
X18470095Y-8257667D01*
X18451048Y-8248143D01*
X18422476Y-8248143D01*
X18403429Y-8257667D01*
X18393905Y-8267190D01*
X18603429Y-8381476D02*
X18584381Y-8371952D01*
X18574857Y-8362428D01*
X18565333Y-8343381D01*
X18565333Y-8286238D01*
X18574857Y-8267190D01*
X18584381Y-8257667D01*
X18603429Y-8248143D01*
X18632000Y-8248143D01*
X18651048Y-8257667D01*
X18660571Y-8267190D01*
X18670095Y-8286238D01*
X18670095Y-8343381D01*
X18660571Y-8362428D01*
X18651048Y-8371952D01*
X18632000Y-8381476D01*
X18603429Y-8381476D01*
X18784381Y-8381476D02*
X18765333Y-8371952D01*
X18755810Y-8352905D01*
X18755810Y-8181476D01*
X18936762Y-8371952D02*
X18917714Y-8381476D01*
X18879619Y-8381476D01*
X18860571Y-8371952D01*
X18851048Y-8352905D01*
X18851048Y-8276714D01*
X18860571Y-8257667D01*
X18879619Y-8248143D01*
X18917714Y-8248143D01*
X18936762Y-8257667D01*
X18946286Y-8276714D01*
X18946286Y-8295762D01*
X18851048Y-8314809D01*
X19022476Y-8371952D02*
X19041524Y-8381476D01*
X19079619Y-8381476D01*
X19098667Y-8371952D01*
X19108190Y-8352905D01*
X19108190Y-8343381D01*
X19098667Y-8324333D01*
X19079619Y-8314809D01*
X19051048Y-8314809D01*
X19032000Y-8305286D01*
X19022476Y-8286238D01*
X19022476Y-8276714D01*
X19032000Y-8257667D01*
X19051048Y-8248143D01*
X19079619Y-8248143D01*
X19098667Y-8257667D01*
X19174857Y-8457667D02*
X19184381Y-8448143D01*
X19203429Y-8419571D01*
X19212952Y-8400524D01*
X19222476Y-8371952D01*
X19232000Y-8324333D01*
X19232000Y-8286238D01*
X19222476Y-8238619D01*
X19212952Y-8210048D01*
X19203429Y-8191000D01*
X19184381Y-8162428D01*
X19174857Y-8152905D01*
M02*
