%TF.GenerationSoftware,KiCad,Pcbnew,(6.0.0)*%
%TF.CreationDate,2023-04-21T15:57:25-05:00*%
%TF.ProjectId,SX1262,53583132-3632-42e6-9b69-6361645f7063,rev?*%
%TF.SameCoordinates,Original*%
%TF.FileFunction,Copper,L2,Bot*%
%TF.FilePolarity,Positive*%
%FSLAX46Y46*%
G04 Gerber Fmt 4.6, Leading zero omitted, Abs format (unit mm)*
G04 Created by KiCad (PCBNEW (6.0.0)) date 2023-04-21 15:57:25*
%MOMM*%
%LPD*%
G01*
G04 APERTURE LIST*
%TA.AperFunction,SMDPad,CuDef*%
%ADD10R,1.000000X2.000000*%
%TD*%
%TA.AperFunction,ViaPad*%
%ADD11C,0.600000*%
%TD*%
%TA.AperFunction,Conductor*%
%ADD12C,0.200000*%
%TD*%
%TA.AperFunction,Conductor*%
%ADD13C,0.250000*%
%TD*%
G04 APERTURE END LIST*
D10*
%TO.P,U104,1,GND*%
%TO.N,/SX1262_DIO2*%
X141520000Y-59200000D03*
%TO.P,U104,2,MISO*%
%TO.N,/SX1262_DIO1*%
X143520000Y-59200000D03*
%TO.P,U104,3,MOSI*%
%TO.N,unconnected-(U104-Pad3)*%
X145520000Y-59200000D03*
%TO.P,U104,4,SCK*%
%TO.N,/VDD_RADIO*%
X147520000Y-59200000D03*
%TO.P,U104,5,NSS*%
%TO.N,unconnected-(U104-Pad5)*%
X149520000Y-59200000D03*
%TO.P,U104,6,RESET*%
%TO.N,/SX1262_DIO3*%
X151520000Y-59200000D03*
%TO.P,U104,7,DIO5*%
%TO.N,GND*%
X153520000Y-59200000D03*
%TO.P,U104,8,GND*%
%TO.N,/PLZ*%
X155520000Y-59200000D03*
%TO.P,U104,9,ANT*%
%TO.N,GND*%
X155520000Y-75200000D03*
%TO.P,U104,10,GND*%
%TO.N,unconnected-(U104-Pad10)*%
X153520000Y-75200000D03*
%TO.P,U104,11,DIO3*%
%TO.N,/SX1262_RESET*%
X151520000Y-75200000D03*
%TO.P,U104,12,DIO4*%
%TO.N,/SX1262_NSS*%
X149520000Y-75200000D03*
%TO.P,U104,13,3.3V*%
%TO.N,/SX1262_SCK*%
X147520000Y-75200000D03*
%TO.P,U104,14,DIO0*%
%TO.N,/SX1262_MOSI*%
X145520000Y-75200000D03*
%TO.P,U104,15,DIO1*%
%TO.N,/SX1262_MISO*%
X143520000Y-75200000D03*
%TO.P,U104,16,DIO2*%
%TO.N,GND*%
X141520000Y-75200000D03*
%TD*%
D11*
%TO.N,GND*%
X141520000Y-74110000D03*
X154850000Y-69490000D03*
X154590000Y-61730000D03*
X150670000Y-71980000D03*
X155670000Y-67730000D03*
X141600000Y-68310000D03*
X152020000Y-71720000D03*
X155520000Y-75200000D03*
X147130000Y-67815000D03*
X143530000Y-65465000D03*
X143190000Y-72860000D03*
X153770000Y-64710000D03*
X155100000Y-65070000D03*
X147880000Y-69215000D03*
X151370000Y-71820000D03*
X142505000Y-71415000D03*
X141520000Y-75200000D03*
X155740000Y-73260000D03*
X153390000Y-69330000D03*
X147880000Y-68515000D03*
X141310000Y-61860000D03*
X150510000Y-73850000D03*
X154420000Y-64480000D03*
X142530000Y-70765000D03*
X147110000Y-61740000D03*
X155870000Y-63940000D03*
X153770000Y-63860000D03*
X155090000Y-64220000D03*
X154840000Y-71780000D03*
X143430000Y-63765000D03*
X154810000Y-71000000D03*
X155870000Y-64860000D03*
X141600000Y-67530000D03*
X155670000Y-68560000D03*
X153860000Y-66550000D03*
X145030000Y-62330000D03*
X155640000Y-70230000D03*
X143590000Y-67920000D03*
X142010000Y-61470000D03*
X147130000Y-68515000D03*
X141560000Y-64820000D03*
X155480000Y-74040000D03*
X142740000Y-73640000D03*
X155220000Y-66930000D03*
X151870000Y-70230000D03*
X148630000Y-68515000D03*
X153510000Y-60160000D03*
X155730000Y-72450000D03*
X143590000Y-68600000D03*
X143755000Y-71365000D03*
X154500000Y-67190000D03*
X155880000Y-66670000D03*
X143580000Y-67260000D03*
X155650000Y-70980000D03*
X154870000Y-68680000D03*
X142600000Y-61840000D03*
X141540000Y-65650000D03*
X142470000Y-72860000D03*
X155260000Y-65940000D03*
X147880000Y-67815000D03*
X141580000Y-73060000D03*
X152480000Y-69080000D03*
X143530000Y-62790000D03*
X155650000Y-69420000D03*
X153270000Y-68420000D03*
X149980000Y-71920000D03*
X146280000Y-71430000D03*
X142630000Y-70065000D03*
X142680000Y-72115000D03*
X148630000Y-67815000D03*
X146510000Y-73940000D03*
X148630000Y-69215000D03*
X150700000Y-66860000D03*
X155640000Y-71770000D03*
X147460000Y-63040000D03*
X141380000Y-61090000D03*
X145350000Y-64470000D03*
X142040000Y-62210000D03*
X141590000Y-72330000D03*
X151780000Y-69510000D03*
X152910000Y-70110000D03*
X152590000Y-67860000D03*
X141580000Y-70880000D03*
X153750000Y-61740000D03*
X154430000Y-65360000D03*
X146760000Y-63000000D03*
X154370000Y-73690000D03*
X154960000Y-72510000D03*
X155900000Y-65770000D03*
X154610000Y-66210000D03*
X147130000Y-69215000D03*
X148180000Y-63050000D03*
X141590000Y-70170000D03*
X143505000Y-64615000D03*
X154810000Y-70250000D03*
X154860000Y-67880000D03*
X153600000Y-70380000D03*
X141580000Y-71610000D03*
X154930000Y-73190000D03*
X153140000Y-63440000D03*
X152030000Y-70960000D03*
X153690000Y-60920000D03*
X146300000Y-61230000D03*
X153720000Y-65660000D03*
%TO.N,/VDD_RADIO*%
X151330000Y-68190000D03*
X147540000Y-60150000D03*
X146280000Y-70500000D03*
X147540000Y-59220000D03*
%TO.N,Net-(U101-Pad3)*%
X147330000Y-71650000D03*
X152820000Y-72690000D03*
%TO.N,Net-(U101-Pad4)*%
X153440000Y-71390000D03*
X148130000Y-71570000D03*
%TO.N,/SX1262_DIO3*%
X151525000Y-59205000D03*
X149380000Y-70465000D03*
X151530000Y-60410000D03*
%TO.N,/SX1262_DIO2*%
X141535000Y-59215000D03*
X148730000Y-64770000D03*
X149730000Y-66965000D03*
X141560000Y-60200000D03*
%TO.N,/SX1262_DIO1*%
X143550000Y-60200000D03*
X143550000Y-59230000D03*
X149530000Y-66165000D03*
%TO.N,/SX1262_RESET*%
X151020000Y-65500000D03*
X151530000Y-74200000D03*
X151520000Y-75200000D03*
X148880000Y-65570000D03*
X153010000Y-67050000D03*
%TO.N,/SX1262_MISO*%
X143520000Y-75200000D03*
X147330000Y-65500000D03*
X143550000Y-74200000D03*
%TO.N,/SX1262_MOSI*%
X145500000Y-74200000D03*
X145520000Y-75200000D03*
X146530000Y-65665000D03*
%TO.N,/SX1262_SCK*%
X147520000Y-75200000D03*
X147520000Y-74200000D03*
X146090000Y-66360000D03*
%TO.N,/SX1262_NSS*%
X149520000Y-74200000D03*
X145830000Y-67120000D03*
X149520000Y-75200000D03*
%TO.N,/ANT_SW*%
X148690000Y-61400000D03*
%TO.N,/PLZ*%
X155520000Y-59200000D03*
%TD*%
D12*
%TO.N,/SX1262_MISO*%
X143550001Y-73764214D02*
G75*
G02*
X143842894Y-73057108I999993J3D01*
G01*
%TO.N,/SX1262_MOSI*%
X145152893Y-73612893D02*
G75*
G02*
X144860000Y-72905786I707106J707106D01*
G01*
%TO.N,/VDD_RADIO*%
X146280000Y-70110000D02*
X146100000Y-69930000D01*
X146280000Y-70500000D02*
X146280000Y-70110000D01*
%TO.N,/SX1262_RESET*%
X152030000Y-73700000D02*
X151530000Y-74200000D01*
X154200000Y-68240000D02*
X154200000Y-72210000D01*
X152710000Y-73700000D02*
X152030000Y-73700000D01*
X153010000Y-67050000D02*
X154200000Y-68240000D01*
X154200000Y-72210000D02*
X152710000Y-73700000D01*
%TO.N,/SX1262_NSS*%
X147950000Y-73630000D02*
X148950000Y-73630000D01*
X146270000Y-72280000D02*
X146600000Y-72280000D01*
X145680000Y-71690000D02*
X146270000Y-72280000D01*
X145830000Y-67570000D02*
X145680000Y-67720000D01*
X145680000Y-67720000D02*
X145680000Y-71690000D01*
X146600000Y-72280000D02*
X147950000Y-73630000D01*
X148950000Y-73630000D02*
X149520000Y-74200000D01*
X145830000Y-67120000D02*
X145830000Y-67570000D01*
%TO.N,/SX1262_DIO1*%
X151595000Y-66165000D02*
X149530000Y-66165000D01*
X151910000Y-65850000D02*
X151595000Y-66165000D01*
X151910000Y-65540000D02*
X151910000Y-65850000D01*
X146930000Y-60560000D02*
X151910000Y-65540000D01*
X143910000Y-60560000D02*
X146930000Y-60560000D01*
X143550000Y-60200000D02*
X143910000Y-60560000D01*
%TO.N,GND*%
X143755000Y-71365000D02*
X142555000Y-71365000D01*
D13*
X141750000Y-68310000D02*
X141600000Y-68310000D01*
X142800000Y-67260000D02*
X141750000Y-68310000D01*
X145280000Y-64400000D02*
X144570000Y-64400000D01*
X141540000Y-65650000D02*
X141720000Y-65470000D01*
X144355000Y-64615000D02*
X143505000Y-64615000D01*
X141720000Y-65470000D02*
X143525000Y-65470000D01*
X143580000Y-67260000D02*
X142800000Y-67260000D01*
X144570000Y-64400000D02*
X144355000Y-64615000D01*
D12*
X142555000Y-71365000D02*
X142505000Y-71415000D01*
D13*
X143525000Y-65470000D02*
X143530000Y-65465000D01*
X145350000Y-64470000D02*
X145280000Y-64400000D01*
D12*
%TO.N,/VDD_RADIO*%
X151330000Y-67190000D02*
X151330000Y-68190000D01*
X146280000Y-70500000D02*
X146480000Y-70300000D01*
X148935000Y-60770000D02*
X152640000Y-64475000D01*
X146480000Y-67510000D02*
X146800000Y-67190000D01*
X152640000Y-65880000D02*
X151330000Y-67190000D01*
X150040000Y-68200000D02*
X151320000Y-68200000D01*
X149030000Y-67190000D02*
X150040000Y-68200000D01*
X146800000Y-67190000D02*
X149030000Y-67190000D01*
X152640000Y-64475000D02*
X152640000Y-65880000D01*
X146480000Y-70300000D02*
X146480000Y-67510000D01*
X148160000Y-60770000D02*
X148935000Y-60770000D01*
X147540000Y-60150000D02*
X148160000Y-60770000D01*
X151320000Y-68200000D02*
X151330000Y-68190000D01*
%TO.N,Net-(U101-Pad3)*%
X147330000Y-72190000D02*
X148140000Y-73000000D01*
X152510000Y-73000000D02*
X152820000Y-72690000D01*
X148140000Y-73000000D02*
X152510000Y-73000000D01*
X147330000Y-71650000D02*
X147330000Y-72190000D01*
%TO.N,Net-(U101-Pad4)*%
X152000000Y-72600000D02*
X153210000Y-71390000D01*
X149710000Y-72600000D02*
X152000000Y-72600000D01*
X148130000Y-71570000D02*
X148680000Y-71570000D01*
X153210000Y-71390000D02*
X153440000Y-71390000D01*
X148680000Y-71570000D02*
X149710000Y-72600000D01*
%TO.N,/SX1262_DIO3*%
X150810000Y-61130000D02*
X151530000Y-60410000D01*
X150810000Y-62000000D02*
X150810000Y-61130000D01*
X149965000Y-70465000D02*
X149965000Y-70425000D01*
X153100000Y-64290000D02*
X150810000Y-62000000D01*
X149965000Y-70425000D02*
X151930000Y-68460000D01*
X149380000Y-70465000D02*
X149965000Y-70465000D01*
X151930000Y-68460000D02*
X151930000Y-67270000D01*
X153100000Y-66100000D02*
X153100000Y-64290000D01*
X151930000Y-67270000D02*
X153100000Y-66100000D01*
%TO.N,/SX1262_DIO2*%
X148000000Y-65540000D02*
X149425000Y-66965000D01*
X148370000Y-64420000D02*
X148000000Y-64790000D01*
X148000000Y-64790000D02*
X148000000Y-65540000D01*
D13*
X148730000Y-64770000D02*
X148380000Y-64420000D01*
X146190000Y-64420000D02*
X148380000Y-64420000D01*
X141560000Y-60200000D02*
X142180000Y-60820000D01*
X142180000Y-60820000D02*
X142590000Y-60820000D01*
X142590000Y-60820000D02*
X146190000Y-64420000D01*
D12*
X149425000Y-66965000D02*
X149730000Y-66965000D01*
X148380000Y-64420000D02*
X148370000Y-64420000D01*
%TO.N,/SX1262_RESET*%
X151010000Y-65490000D02*
X148960000Y-65490000D01*
X148960000Y-65490000D02*
X148880000Y-65570000D01*
X151020000Y-65500000D02*
X151010000Y-65490000D01*
%TO.N,/SX1262_MISO*%
X143550000Y-74010000D02*
X143550000Y-74200000D01*
X144450000Y-68340000D02*
X144450000Y-72450000D01*
X144210000Y-68100000D02*
X144450000Y-68340000D01*
X144450000Y-72450000D02*
X143842893Y-73057107D01*
X147330000Y-65500000D02*
X146890000Y-65060000D01*
X144210000Y-66410000D02*
X144210000Y-68100000D01*
X146890000Y-65060000D02*
X145560000Y-65060000D01*
X145560000Y-65060000D02*
X144210000Y-66410000D01*
X143550000Y-73764214D02*
X143550000Y-74010000D01*
%TO.N,/SX1262_MOSI*%
X145510000Y-73970000D02*
X145510000Y-74190000D01*
X144860000Y-67920000D02*
X144860000Y-72905786D01*
X145152893Y-73612893D02*
X145510000Y-73970000D01*
X144610000Y-66730000D02*
X144610000Y-67670000D01*
X145510000Y-74190000D02*
X145500000Y-74200000D01*
X145675000Y-65665000D02*
X144610000Y-66730000D01*
X146530000Y-65665000D02*
X145675000Y-65665000D01*
X144610000Y-67670000D02*
X144860000Y-67920000D01*
%TO.N,/SX1262_SCK*%
X145270000Y-67440000D02*
X145270000Y-72360000D01*
X145270000Y-72360000D02*
X146040000Y-73130000D01*
X145610000Y-66360000D02*
X145020000Y-66950000D01*
X145020000Y-66950000D02*
X145020000Y-67190000D01*
X146040000Y-73130000D02*
X146650000Y-73130000D01*
X147520000Y-74000000D02*
X147520000Y-74200000D01*
X146090000Y-66360000D02*
X145610000Y-66360000D01*
X145020000Y-67190000D02*
X145270000Y-67440000D01*
X146650000Y-73130000D02*
X147520000Y-74000000D01*
%TD*%
%TA.AperFunction,Conductor*%
%TO.N,GND*%
G36*
X140927610Y-60742168D02*
G01*
X140957648Y-60751928D01*
X140984315Y-60768851D01*
X140990252Y-60774085D01*
X141025322Y-60807017D01*
X141035363Y-60816446D01*
X141098022Y-60864700D01*
X141100631Y-60866330D01*
X141100632Y-60866331D01*
X141162484Y-60904981D01*
X141162490Y-60904985D01*
X141165090Y-60906609D01*
X141215369Y-60931568D01*
X141230855Y-60939255D01*
X141235927Y-60941773D01*
X141238804Y-60942866D01*
X141238809Y-60942868D01*
X141290660Y-60962563D01*
X141309858Y-60969856D01*
X141312836Y-60970665D01*
X141383209Y-60989786D01*
X141383217Y-60989788D01*
X141386177Y-60990592D01*
X141428991Y-60997833D01*
X141459219Y-61006960D01*
X141486235Y-61023321D01*
X141497066Y-61032971D01*
X141714143Y-61250047D01*
X141719852Y-61256148D01*
X141726669Y-61263935D01*
X141729270Y-61266310D01*
X141740241Y-61276328D01*
X141742140Y-61278143D01*
X141742155Y-61278127D01*
X141743406Y-61279310D01*
X141744671Y-61280575D01*
X141751687Y-61286848D01*
X141754793Y-61289626D01*
X141755767Y-61290506D01*
X141778979Y-61311701D01*
X141781668Y-61313655D01*
X141784149Y-61315873D01*
X141787020Y-61317913D01*
X141809750Y-61334066D01*
X141810711Y-61334756D01*
X141836287Y-61353338D01*
X141839187Y-61354985D01*
X141841891Y-61356907D01*
X141844970Y-61358614D01*
X141844980Y-61358620D01*
X141869358Y-61372133D01*
X141870510Y-61372779D01*
X141894818Y-61386588D01*
X141894825Y-61386591D01*
X141897880Y-61388327D01*
X141900935Y-61389636D01*
X141903846Y-61391250D01*
X141931843Y-61402904D01*
X141932878Y-61403335D01*
X141934068Y-61403837D01*
X141962989Y-61416233D01*
X141966170Y-61417193D01*
X141969244Y-61418473D01*
X141972621Y-61419454D01*
X141999495Y-61427262D01*
X142000757Y-61427636D01*
X142027449Y-61435695D01*
X142027459Y-61435697D01*
X142030803Y-61436707D01*
X142034070Y-61437307D01*
X142037269Y-61438236D01*
X142040740Y-61438836D01*
X142040742Y-61438836D01*
X142068196Y-61443578D01*
X142069493Y-61443809D01*
X142097013Y-61448860D01*
X142097024Y-61448861D01*
X142100476Y-61449495D01*
X142103796Y-61449727D01*
X142107072Y-61450293D01*
X142138461Y-61452157D01*
X142139647Y-61452233D01*
X142157755Y-61453500D01*
X142159949Y-61453500D01*
X142161092Y-61453540D01*
X142164166Y-61453685D01*
X142168200Y-61453925D01*
X142177785Y-61454494D01*
X142181296Y-61454310D01*
X142181301Y-61454310D01*
X142193449Y-61453673D01*
X142200044Y-61453500D01*
X142275405Y-61453500D01*
X142306740Y-61457459D01*
X142336106Y-61469085D01*
X142361658Y-61487650D01*
X142364500Y-61490405D01*
X145236427Y-64362332D01*
X145255785Y-64387288D01*
X145268329Y-64416274D01*
X145273270Y-64447469D01*
X145270298Y-64478913D01*
X145259599Y-64508630D01*
X145241846Y-64534752D01*
X145219159Y-64554684D01*
X145219176Y-64554707D01*
X145219175Y-64554707D01*
X145199314Y-64569810D01*
X145196705Y-64571740D01*
X145179336Y-64584243D01*
X145179323Y-64584254D01*
X145176433Y-64586334D01*
X145173792Y-64588733D01*
X145171009Y-64590987D01*
X145168886Y-64592752D01*
X145168893Y-64592760D01*
X145166571Y-64594709D01*
X145164165Y-64596538D01*
X145147613Y-64611838D01*
X145142398Y-64617053D01*
X145138041Y-64621207D01*
X145125278Y-64632800D01*
X145122926Y-64635482D01*
X145122925Y-64635483D01*
X145118199Y-64640872D01*
X145112562Y-64646889D01*
X143787986Y-65971465D01*
X143785224Y-65974145D01*
X143767889Y-65990452D01*
X143751733Y-66009536D01*
X143749617Y-66011968D01*
X143733005Y-66030581D01*
X143730943Y-66033499D01*
X143728717Y-66036297D01*
X143728716Y-66036296D01*
X143727700Y-66037610D01*
X143725551Y-66040462D01*
X143723236Y-66043197D01*
X143709353Y-66063975D01*
X143707503Y-66066666D01*
X143695188Y-66084090D01*
X143695183Y-66084098D01*
X143693120Y-66087017D01*
X143691397Y-66090157D01*
X143689509Y-66093179D01*
X143689507Y-66093178D01*
X143688642Y-66094604D01*
X143688643Y-66094604D01*
X143686828Y-66097685D01*
X143684842Y-66100658D01*
X143683205Y-66103837D01*
X143683203Y-66103840D01*
X143673419Y-66122839D01*
X143671886Y-66125722D01*
X143659880Y-66147606D01*
X143658529Y-66150908D01*
X143656989Y-66154136D01*
X143656289Y-66155654D01*
X143654832Y-66158926D01*
X143653200Y-66162096D01*
X143645106Y-66183462D01*
X143644368Y-66185409D01*
X143643159Y-66188477D01*
X143641881Y-66191601D01*
X143633712Y-66211568D01*
X143632740Y-66215014D01*
X143631578Y-66218389D01*
X143631577Y-66218389D01*
X143631055Y-66219971D01*
X143631056Y-66219971D01*
X143629981Y-66223380D01*
X143628715Y-66226722D01*
X143627835Y-66230186D01*
X143627835Y-66230187D01*
X143622580Y-66250880D01*
X143621724Y-66254073D01*
X143615926Y-66274630D01*
X143614953Y-66278081D01*
X143614378Y-66281613D01*
X143613605Y-66285099D01*
X143613604Y-66285099D01*
X143613264Y-66286731D01*
X143613266Y-66286731D01*
X143612585Y-66290234D01*
X143611704Y-66293703D01*
X143611221Y-66297250D01*
X143611221Y-66297251D01*
X143608340Y-66318419D01*
X143607857Y-66321649D01*
X143603845Y-66346290D01*
X143603674Y-66349859D01*
X143603300Y-66353416D01*
X143603299Y-66353416D01*
X143603046Y-66356165D01*
X143603057Y-66356166D01*
X143602793Y-66359181D01*
X143602385Y-66362180D01*
X143601500Y-66384703D01*
X143601500Y-66392078D01*
X143601355Y-66398124D01*
X143600529Y-66415319D01*
X143600763Y-66418885D01*
X143601230Y-66426014D01*
X143601500Y-66434255D01*
X143601500Y-68088350D01*
X143601441Y-68092199D01*
X143601007Y-68106414D01*
X143600715Y-68115954D01*
X143602784Y-68140858D01*
X143603005Y-68144008D01*
X143604424Y-68168997D01*
X143605031Y-68172533D01*
X143605434Y-68176069D01*
X143605433Y-68176069D01*
X143605649Y-68177771D01*
X143606142Y-68181278D01*
X143606437Y-68184825D01*
X143607132Y-68188321D01*
X143607133Y-68188325D01*
X143611310Y-68209325D01*
X143611911Y-68212567D01*
X143616127Y-68237106D01*
X143617128Y-68240539D01*
X143617933Y-68244028D01*
X143617932Y-68244028D01*
X143618325Y-68245636D01*
X143618326Y-68245636D01*
X143619223Y-68249104D01*
X143619919Y-68252605D01*
X143621007Y-68256002D01*
X143621009Y-68256012D01*
X143627526Y-68276371D01*
X143628489Y-68279521D01*
X143634464Y-68300017D01*
X143635466Y-68303453D01*
X143636848Y-68306750D01*
X143638037Y-68310107D01*
X143638643Y-68311749D01*
X143639900Y-68315023D01*
X143640988Y-68318422D01*
X143642451Y-68321671D01*
X143642453Y-68321675D01*
X143651240Y-68341183D01*
X143652546Y-68344186D01*
X143662190Y-68367185D01*
X143663941Y-68370311D01*
X143665499Y-68373506D01*
X143666255Y-68375007D01*
X143667907Y-68378180D01*
X143669372Y-68381433D01*
X143671196Y-68384499D01*
X143671197Y-68384501D01*
X143682126Y-68402872D01*
X143683773Y-68405725D01*
X143695958Y-68427481D01*
X143698046Y-68430382D01*
X143699967Y-68433397D01*
X143699966Y-68433398D01*
X143700877Y-68434787D01*
X143700878Y-68434787D01*
X143702876Y-68437749D01*
X143704706Y-68440825D01*
X143719828Y-68460711D01*
X143721758Y-68463320D01*
X143734245Y-68480667D01*
X143734257Y-68480682D01*
X143736334Y-68483567D01*
X143738728Y-68486202D01*
X143740986Y-68488991D01*
X143742752Y-68491115D01*
X143742760Y-68491108D01*
X143744702Y-68493422D01*
X143746537Y-68495835D01*
X143748597Y-68498063D01*
X143760999Y-68511480D01*
X143761013Y-68511495D01*
X143761838Y-68512387D01*
X143767053Y-68517602D01*
X143771207Y-68521959D01*
X143782800Y-68534722D01*
X143785482Y-68537074D01*
X143785483Y-68537075D01*
X143790872Y-68541801D01*
X143796889Y-68547438D01*
X143804595Y-68555144D01*
X143823953Y-68580100D01*
X143836497Y-68609086D01*
X143841438Y-68640281D01*
X143841500Y-68644239D01*
X143841500Y-72145761D01*
X143837541Y-72177096D01*
X143825915Y-72206462D01*
X143807350Y-72232014D01*
X143804595Y-72234856D01*
X143434466Y-72604985D01*
X143426699Y-72612128D01*
X143424142Y-72614289D01*
X143422575Y-72615813D01*
X143422567Y-72615820D01*
X143417141Y-72621097D01*
X143411941Y-72626153D01*
X143410478Y-72627789D01*
X143410466Y-72627802D01*
X143410042Y-72628276D01*
X143408088Y-72630411D01*
X143341422Y-72701589D01*
X143340019Y-72703087D01*
X143273208Y-72784496D01*
X143211865Y-72870100D01*
X143156252Y-72959533D01*
X143106607Y-73052412D01*
X143063144Y-73148338D01*
X143026047Y-73246902D01*
X142995476Y-73347681D01*
X142971562Y-73450244D01*
X142971228Y-73452270D01*
X142959074Y-73525885D01*
X142954407Y-73554151D01*
X142954206Y-73556190D01*
X142954205Y-73556199D01*
X142949038Y-73608662D01*
X142942027Y-73639458D01*
X142927578Y-73667543D01*
X142906598Y-73691153D01*
X142880406Y-73708803D01*
X142858802Y-73717308D01*
X142847411Y-73720617D01*
X142843785Y-73722186D01*
X142843777Y-73722189D01*
X142809182Y-73737160D01*
X142788690Y-73746028D01*
X142733616Y-73778598D01*
X142683058Y-73817815D01*
X142637815Y-73863058D01*
X142619560Y-73886593D01*
X142619244Y-73887000D01*
X142596911Y-73909333D01*
X142569725Y-73925411D01*
X142539395Y-73934223D01*
X142507827Y-73935215D01*
X142477003Y-73928325D01*
X142448862Y-73913986D01*
X142425170Y-73893100D01*
X142420125Y-73887001D01*
X142404241Y-73866523D01*
X142399004Y-73860584D01*
X142359416Y-73820996D01*
X142353479Y-73815762D01*
X142309228Y-73781437D01*
X142302698Y-73776999D01*
X142254496Y-73748493D01*
X142247441Y-73744898D01*
X142196053Y-73722660D01*
X142188622Y-73719985D01*
X142134839Y-73704359D01*
X142127124Y-73702634D01*
X142071319Y-73693796D01*
X142064443Y-73693092D01*
X142042778Y-73692070D01*
X142039803Y-73692000D01*
X141781927Y-73692000D01*
X141774841Y-73692895D01*
X141774000Y-73697301D01*
X141774000Y-75328000D01*
X141770041Y-75359335D01*
X141758415Y-75388701D01*
X141739850Y-75414253D01*
X141715514Y-75434385D01*
X141686936Y-75447833D01*
X141655912Y-75453751D01*
X141648000Y-75454000D01*
X141392000Y-75454000D01*
X141360665Y-75450041D01*
X141331299Y-75438415D01*
X141305747Y-75419850D01*
X141285615Y-75395514D01*
X141272167Y-75366936D01*
X141266249Y-75335912D01*
X141266000Y-75328000D01*
X141266000Y-73699927D01*
X141265105Y-73692841D01*
X141260699Y-73692000D01*
X141000197Y-73692000D01*
X140997222Y-73692070D01*
X140975557Y-73693092D01*
X140968684Y-73693796D01*
X140923711Y-73700919D01*
X140892143Y-73701911D01*
X140861319Y-73695021D01*
X140833178Y-73680682D01*
X140809486Y-73659795D01*
X140791733Y-73633673D01*
X140781035Y-73603956D01*
X140778000Y-73576470D01*
X140778000Y-60865936D01*
X140781959Y-60834601D01*
X140793585Y-60805235D01*
X140812150Y-60779683D01*
X140836486Y-60759551D01*
X140865064Y-60746103D01*
X140896088Y-60740185D01*
X140927610Y-60742168D01*
G37*
%TD.AperFunction*%
%TA.AperFunction,Conductor*%
G36*
X153679335Y-58949959D02*
G01*
X153708701Y-58961585D01*
X153734253Y-58980150D01*
X153754385Y-59004486D01*
X153767833Y-59033064D01*
X153773751Y-59064088D01*
X153774000Y-59072000D01*
X153774000Y-60700073D01*
X153774895Y-60707159D01*
X153779301Y-60708000D01*
X154039803Y-60708000D01*
X154042778Y-60707930D01*
X154064443Y-60706908D01*
X154071319Y-60706204D01*
X154127124Y-60697366D01*
X154134839Y-60695641D01*
X154188622Y-60680015D01*
X154196053Y-60677340D01*
X154247441Y-60655102D01*
X154254496Y-60651507D01*
X154302698Y-60623001D01*
X154309228Y-60618563D01*
X154353479Y-60584238D01*
X154359416Y-60579004D01*
X154399004Y-60539416D01*
X154404241Y-60533477D01*
X154420125Y-60512999D01*
X154442458Y-60490666D01*
X154469644Y-60474589D01*
X154499974Y-60465777D01*
X154531542Y-60464785D01*
X154562366Y-60471675D01*
X154590507Y-60486014D01*
X154614198Y-60506901D01*
X154619237Y-60512992D01*
X154637815Y-60536942D01*
X154683058Y-60582185D01*
X154733616Y-60621402D01*
X154788690Y-60653972D01*
X154796963Y-60657552D01*
X154843777Y-60677811D01*
X154843785Y-60677814D01*
X154847411Y-60679383D01*
X154851207Y-60680486D01*
X154851213Y-60680488D01*
X154884473Y-60690150D01*
X154908855Y-60697234D01*
X154955100Y-60704559D01*
X154968641Y-60706704D01*
X154968643Y-60706704D01*
X154972051Y-60707244D01*
X154975503Y-60707407D01*
X154975505Y-60707407D01*
X154997198Y-60708430D01*
X154997207Y-60708430D01*
X154998687Y-60708500D01*
X155519125Y-60708500D01*
X156041312Y-60708499D01*
X156067949Y-60707244D01*
X156071379Y-60706701D01*
X156071386Y-60706700D01*
X156116287Y-60699588D01*
X156147855Y-60698595D01*
X156178679Y-60705484D01*
X156206821Y-60719823D01*
X156230513Y-60740709D01*
X156248266Y-60766831D01*
X156258965Y-60796548D01*
X156262000Y-60824036D01*
X156262000Y-73576470D01*
X156258041Y-73607805D01*
X156246415Y-73637171D01*
X156227850Y-73662723D01*
X156203514Y-73682855D01*
X156174936Y-73696303D01*
X156143912Y-73702221D01*
X156116289Y-73700919D01*
X156071316Y-73693796D01*
X156064443Y-73693092D01*
X156042778Y-73692070D01*
X156039803Y-73692000D01*
X155781927Y-73692000D01*
X155774841Y-73692895D01*
X155774000Y-73697301D01*
X155774000Y-75328000D01*
X155770041Y-75359335D01*
X155758415Y-75388701D01*
X155739850Y-75414253D01*
X155715514Y-75434385D01*
X155686936Y-75447833D01*
X155655912Y-75453751D01*
X155648000Y-75454000D01*
X155392000Y-75454000D01*
X155360665Y-75450041D01*
X155331299Y-75438415D01*
X155305747Y-75419850D01*
X155285615Y-75395514D01*
X155272167Y-75366936D01*
X155266249Y-75335912D01*
X155266000Y-75328000D01*
X155266000Y-73699927D01*
X155265105Y-73692841D01*
X155260699Y-73692000D01*
X155000197Y-73692000D01*
X154997222Y-73692070D01*
X154975557Y-73693092D01*
X154968681Y-73693796D01*
X154912876Y-73702634D01*
X154905161Y-73704359D01*
X154851378Y-73719985D01*
X154843947Y-73722660D01*
X154792559Y-73744898D01*
X154785504Y-73748493D01*
X154737302Y-73776999D01*
X154730772Y-73781437D01*
X154686521Y-73815762D01*
X154680584Y-73820996D01*
X154640996Y-73860584D01*
X154635759Y-73866523D01*
X154619875Y-73887001D01*
X154597542Y-73909334D01*
X154570356Y-73925411D01*
X154540026Y-73934223D01*
X154508458Y-73935215D01*
X154477634Y-73928325D01*
X154449493Y-73913986D01*
X154425802Y-73893099D01*
X154420756Y-73887000D01*
X154420441Y-73886593D01*
X154402185Y-73863058D01*
X154356942Y-73817815D01*
X154306384Y-73778598D01*
X154251310Y-73746028D01*
X154230818Y-73737160D01*
X154196223Y-73722189D01*
X154196215Y-73722186D01*
X154192589Y-73720617D01*
X154188793Y-73719514D01*
X154188787Y-73719512D01*
X154152279Y-73708906D01*
X154131145Y-73702766D01*
X154074515Y-73693796D01*
X154071359Y-73693296D01*
X154071357Y-73693296D01*
X154067949Y-73692756D01*
X154064497Y-73692593D01*
X154064495Y-73692593D01*
X154042802Y-73691570D01*
X154042793Y-73691570D01*
X154041313Y-73691500D01*
X153883239Y-73691500D01*
X153851904Y-73687541D01*
X153822538Y-73675915D01*
X153796986Y-73657350D01*
X153776854Y-73633014D01*
X153763406Y-73604436D01*
X153757488Y-73573412D01*
X153759471Y-73541890D01*
X153769231Y-73511852D01*
X153786154Y-73485185D01*
X153794144Y-73476405D01*
X154622014Y-72648535D01*
X154624776Y-72645855D01*
X154642111Y-72629548D01*
X154658267Y-72610464D01*
X154660387Y-72608027D01*
X154674614Y-72592087D01*
X154674616Y-72592085D01*
X154676995Y-72589419D01*
X154679057Y-72586501D01*
X154681283Y-72583703D01*
X154681284Y-72583704D01*
X154682300Y-72582390D01*
X154684449Y-72579538D01*
X154686764Y-72576803D01*
X154700647Y-72556025D01*
X154702497Y-72553334D01*
X154714812Y-72535910D01*
X154714817Y-72535902D01*
X154716880Y-72532983D01*
X154718603Y-72529843D01*
X154720491Y-72526821D01*
X154720493Y-72526822D01*
X154721358Y-72525396D01*
X154721357Y-72525396D01*
X154723172Y-72522315D01*
X154725158Y-72519342D01*
X154736596Y-72497132D01*
X154738114Y-72494278D01*
X154750120Y-72472394D01*
X154751471Y-72469092D01*
X154753011Y-72465864D01*
X154753722Y-72464320D01*
X154755165Y-72461079D01*
X154756800Y-72457904D01*
X154765639Y-72434572D01*
X154766841Y-72431523D01*
X154774933Y-72411743D01*
X154776288Y-72408432D01*
X154777260Y-72404986D01*
X154778422Y-72401612D01*
X154778423Y-72401612D01*
X154778944Y-72400031D01*
X154780021Y-72396615D01*
X154781285Y-72393278D01*
X154787422Y-72369112D01*
X154788274Y-72365933D01*
X154794079Y-72345350D01*
X154794081Y-72345340D01*
X154795046Y-72341919D01*
X154795618Y-72338405D01*
X154796394Y-72334906D01*
X154796395Y-72334906D01*
X154796734Y-72333275D01*
X154796733Y-72333275D01*
X154797414Y-72329770D01*
X154798296Y-72326297D01*
X154801668Y-72301519D01*
X154802144Y-72298332D01*
X154805580Y-72277239D01*
X154806155Y-72273710D01*
X154806327Y-72270135D01*
X154806700Y-72266582D01*
X154806702Y-72266582D01*
X154806954Y-72263835D01*
X154806943Y-72263834D01*
X154807207Y-72260819D01*
X154807615Y-72257820D01*
X154808500Y-72235297D01*
X154808500Y-72227922D01*
X154808645Y-72221876D01*
X154809300Y-72208248D01*
X154809300Y-72208242D01*
X154809471Y-72204681D01*
X154808770Y-72193986D01*
X154808500Y-72185745D01*
X154808500Y-68251650D01*
X154808559Y-68247801D01*
X154809176Y-68227625D01*
X154809176Y-68227618D01*
X154809285Y-68224045D01*
X154807216Y-68199141D01*
X154806989Y-68195892D01*
X154805576Y-68171003D01*
X154804969Y-68167467D01*
X154804566Y-68163931D01*
X154804567Y-68163931D01*
X154804351Y-68162229D01*
X154803858Y-68158722D01*
X154803563Y-68155175D01*
X154800706Y-68140812D01*
X154798690Y-68130675D01*
X154798089Y-68127432D01*
X154793873Y-68102894D01*
X154792872Y-68099461D01*
X154792067Y-68095972D01*
X154792068Y-68095972D01*
X154791676Y-68094368D01*
X154791675Y-68094368D01*
X154790779Y-68090904D01*
X154790081Y-68087395D01*
X154782466Y-68063607D01*
X154781523Y-68060524D01*
X154774534Y-68036547D01*
X154773152Y-68033250D01*
X154771960Y-68029884D01*
X154771961Y-68029884D01*
X154771383Y-68028317D01*
X154771382Y-68028317D01*
X154770105Y-68024990D01*
X154769012Y-68021577D01*
X154758761Y-67998819D01*
X154757464Y-67995836D01*
X154749194Y-67976113D01*
X154749187Y-67976098D01*
X154747810Y-67972815D01*
X154746068Y-67969705D01*
X154744495Y-67966480D01*
X154744496Y-67966479D01*
X154743751Y-67965001D01*
X154743750Y-67965001D01*
X154742091Y-67961814D01*
X154740628Y-67958566D01*
X154738806Y-67955504D01*
X154738800Y-67955492D01*
X154727874Y-67937128D01*
X154726224Y-67934271D01*
X154715788Y-67915637D01*
X154714042Y-67912519D01*
X154711955Y-67909621D01*
X154710029Y-67906597D01*
X154709124Y-67905215D01*
X154709123Y-67905216D01*
X154707122Y-67902249D01*
X154705293Y-67899175D01*
X154690190Y-67879314D01*
X154688260Y-67876705D01*
X154675757Y-67859336D01*
X154675746Y-67859323D01*
X154673666Y-67856433D01*
X154671267Y-67853792D01*
X154669013Y-67851009D01*
X154667248Y-67848886D01*
X154667240Y-67848893D01*
X154665291Y-67846571D01*
X154663462Y-67844165D01*
X154648162Y-67827613D01*
X154642947Y-67822398D01*
X154638793Y-67818041D01*
X154627200Y-67805278D01*
X154619128Y-67798199D01*
X154613111Y-67792562D01*
X153849245Y-67028696D01*
X153829887Y-67003740D01*
X153817343Y-66974754D01*
X153813692Y-66958007D01*
X153804510Y-66895824D01*
X153804509Y-66895818D01*
X153804059Y-66892772D01*
X153803316Y-66889792D01*
X153803314Y-66889782D01*
X153785673Y-66819032D01*
X153784926Y-66816036D01*
X153782984Y-66810581D01*
X153759429Y-66744430D01*
X153759426Y-66744422D01*
X153758397Y-66741533D01*
X153724724Y-66669975D01*
X153684229Y-66602043D01*
X153637427Y-66538563D01*
X153622018Y-66510993D01*
X153613950Y-66480457D01*
X153613729Y-66448874D01*
X153621370Y-66418228D01*
X153626818Y-66406119D01*
X153636614Y-66387097D01*
X153638114Y-66384278D01*
X153650120Y-66362394D01*
X153651474Y-66359084D01*
X153653015Y-66355854D01*
X153653016Y-66355854D01*
X153653708Y-66354352D01*
X153653707Y-66354351D01*
X153655158Y-66351092D01*
X153656800Y-66347904D01*
X153665646Y-66324556D01*
X153666822Y-66321573D01*
X153676289Y-66298432D01*
X153677261Y-66294986D01*
X153678424Y-66291607D01*
X153678425Y-66291607D01*
X153678944Y-66290031D01*
X153678943Y-66290031D01*
X153680018Y-66286622D01*
X153681285Y-66283278D01*
X153687423Y-66259108D01*
X153688258Y-66255990D01*
X153695047Y-66231918D01*
X153695622Y-66228387D01*
X153696395Y-66224901D01*
X153696734Y-66223271D01*
X153697415Y-66219765D01*
X153698296Y-66216297D01*
X153701657Y-66191601D01*
X153702144Y-66188341D01*
X153705582Y-66167228D01*
X153706155Y-66163710D01*
X153706326Y-66160152D01*
X153706701Y-66156587D01*
X153706954Y-66153829D01*
X153706944Y-66153828D01*
X153707208Y-66150812D01*
X153707615Y-66147820D01*
X153708500Y-66125297D01*
X153708500Y-66117922D01*
X153708645Y-66111876D01*
X153709300Y-66098248D01*
X153709300Y-66098242D01*
X153709471Y-66094681D01*
X153708770Y-66083986D01*
X153708500Y-66075745D01*
X153708500Y-64301650D01*
X153708559Y-64297801D01*
X153709176Y-64277626D01*
X153709176Y-64277619D01*
X153709285Y-64274046D01*
X153707216Y-64249142D01*
X153706995Y-64245992D01*
X153705576Y-64221003D01*
X153704969Y-64217467D01*
X153704566Y-64213931D01*
X153704567Y-64213931D01*
X153704351Y-64212229D01*
X153703858Y-64208722D01*
X153703563Y-64205175D01*
X153702045Y-64197543D01*
X153698690Y-64180675D01*
X153698089Y-64177432D01*
X153693873Y-64152894D01*
X153692872Y-64149461D01*
X153692067Y-64145972D01*
X153692068Y-64145972D01*
X153691675Y-64144364D01*
X153691674Y-64144364D01*
X153690777Y-64140896D01*
X153690081Y-64137395D01*
X153688993Y-64133998D01*
X153688991Y-64133988D01*
X153682474Y-64113629D01*
X153681511Y-64110479D01*
X153675536Y-64089983D01*
X153675534Y-64089976D01*
X153674534Y-64086547D01*
X153673152Y-64083250D01*
X153671963Y-64079893D01*
X153671357Y-64078251D01*
X153670100Y-64074977D01*
X153669012Y-64071578D01*
X153662872Y-64057946D01*
X153658760Y-64048817D01*
X153657446Y-64045795D01*
X153649193Y-64026114D01*
X153647810Y-64022815D01*
X153646061Y-64019692D01*
X153644494Y-64016479D01*
X153643745Y-64014993D01*
X153642093Y-64011820D01*
X153640628Y-64008567D01*
X153627874Y-63987128D01*
X153626227Y-63984275D01*
X153615793Y-63965645D01*
X153615791Y-63965642D01*
X153614042Y-63962519D01*
X153611954Y-63959618D01*
X153610033Y-63956603D01*
X153610034Y-63956602D01*
X153609121Y-63955211D01*
X153607121Y-63952246D01*
X153605294Y-63949175D01*
X153590158Y-63929271D01*
X153588225Y-63926658D01*
X153586403Y-63924127D01*
X153573666Y-63906433D01*
X153571258Y-63903782D01*
X153569014Y-63901010D01*
X153567241Y-63898879D01*
X153567234Y-63898885D01*
X153565288Y-63896566D01*
X153563462Y-63894165D01*
X153558448Y-63888740D01*
X153549020Y-63878541D01*
X153549015Y-63878536D01*
X153548162Y-63877613D01*
X153542947Y-63872398D01*
X153538793Y-63868041D01*
X153527200Y-63855278D01*
X153519128Y-63848199D01*
X153513111Y-63842562D01*
X151455405Y-61784856D01*
X151436047Y-61759900D01*
X151423503Y-61730914D01*
X151418562Y-61699719D01*
X151418500Y-61695761D01*
X151418500Y-61434239D01*
X151422459Y-61402904D01*
X151434085Y-61373538D01*
X151452650Y-61347986D01*
X151455405Y-61345144D01*
X151551706Y-61248843D01*
X151576662Y-61229485D01*
X151605648Y-61216941D01*
X151625009Y-61212932D01*
X151638916Y-61211175D01*
X151670564Y-61207177D01*
X151673568Y-61206495D01*
X151673571Y-61206494D01*
X151744688Y-61190337D01*
X151744694Y-61190335D01*
X151747684Y-61189656D01*
X151764431Y-61184085D01*
X151819802Y-61165666D01*
X151819808Y-61165664D01*
X151822726Y-61164693D01*
X151825536Y-61163442D01*
X151892174Y-61133773D01*
X151892180Y-61133770D01*
X151894974Y-61132526D01*
X151963738Y-61093462D01*
X152028363Y-61047875D01*
X152088230Y-60996199D01*
X152110779Y-60972521D01*
X152140653Y-60941150D01*
X152142769Y-60938928D01*
X152148520Y-60931568D01*
X152189565Y-60879031D01*
X152191458Y-60876608D01*
X152233834Y-60809834D01*
X152240546Y-60796548D01*
X152268104Y-60741991D01*
X152268105Y-60741989D01*
X152269492Y-60739243D01*
X152277025Y-60719823D01*
X152296975Y-60668387D01*
X152298091Y-60665510D01*
X152300313Y-60657552D01*
X152312553Y-60628436D01*
X152331650Y-60603279D01*
X152344443Y-60591881D01*
X152353806Y-60584618D01*
X152353811Y-60584614D01*
X152356942Y-60582185D01*
X152402185Y-60536942D01*
X152420758Y-60512998D01*
X152443089Y-60490667D01*
X152470275Y-60474589D01*
X152500605Y-60465777D01*
X152532173Y-60464785D01*
X152562997Y-60471675D01*
X152591138Y-60486014D01*
X152614830Y-60506900D01*
X152619875Y-60512999D01*
X152635759Y-60533477D01*
X152640996Y-60539416D01*
X152680584Y-60579004D01*
X152686521Y-60584238D01*
X152730772Y-60618563D01*
X152737302Y-60623001D01*
X152785504Y-60651507D01*
X152792559Y-60655102D01*
X152843947Y-60677340D01*
X152851378Y-60680015D01*
X152905161Y-60695641D01*
X152912876Y-60697366D01*
X152968681Y-60706204D01*
X152975557Y-60706908D01*
X152997222Y-60707930D01*
X153000197Y-60708000D01*
X153258073Y-60708000D01*
X153265159Y-60707105D01*
X153266000Y-60702699D01*
X153266000Y-59072000D01*
X153269959Y-59040665D01*
X153281585Y-59011299D01*
X153300150Y-58985747D01*
X153324486Y-58965615D01*
X153353064Y-58952167D01*
X153384088Y-58946249D01*
X153392000Y-58946000D01*
X153648000Y-58946000D01*
X153679335Y-58949959D01*
G37*
%TD.AperFunction*%
%TA.AperFunction,Conductor*%
G36*
X150619518Y-73612459D02*
G01*
X150648884Y-73624085D01*
X150674436Y-73642650D01*
X150694568Y-73666986D01*
X150708016Y-73695564D01*
X150713934Y-73726588D01*
X150711951Y-73758110D01*
X150702191Y-73788148D01*
X150685268Y-73814815D01*
X150677278Y-73823595D01*
X150637815Y-73863058D01*
X150635390Y-73866185D01*
X150635385Y-73866190D01*
X150619559Y-73886593D01*
X150597225Y-73908926D01*
X150570039Y-73925004D01*
X150539709Y-73933815D01*
X150508141Y-73934807D01*
X150477318Y-73927917D01*
X150449176Y-73913577D01*
X150425485Y-73892690D01*
X150420441Y-73886593D01*
X150404615Y-73866190D01*
X150404610Y-73866185D01*
X150402185Y-73863058D01*
X150362722Y-73823595D01*
X150343364Y-73798639D01*
X150330820Y-73769653D01*
X150325879Y-73738458D01*
X150328851Y-73707014D01*
X150339550Y-73677297D01*
X150357303Y-73651175D01*
X150380994Y-73630288D01*
X150409136Y-73615949D01*
X150439959Y-73609059D01*
X150451817Y-73608500D01*
X150588183Y-73608500D01*
X150619518Y-73612459D01*
G37*
%TD.AperFunction*%
%TA.AperFunction,Conductor*%
G36*
X152688110Y-67794649D02*
G01*
X152709236Y-67800627D01*
X152728428Y-67807917D01*
X152756972Y-67818760D01*
X152756977Y-67818762D01*
X152759858Y-67819856D01*
X152762836Y-67820665D01*
X152833209Y-67839786D01*
X152833217Y-67839788D01*
X152836177Y-67840592D01*
X152914155Y-67853781D01*
X152915637Y-67853885D01*
X152945679Y-67861376D01*
X152973461Y-67876400D01*
X152989203Y-67889752D01*
X153554595Y-68455144D01*
X153573953Y-68480100D01*
X153586497Y-68509086D01*
X153591438Y-68540281D01*
X153591500Y-68544239D01*
X153591500Y-70455457D01*
X153587541Y-70486792D01*
X153575915Y-70516158D01*
X153557350Y-70541710D01*
X153533014Y-70561842D01*
X153504436Y-70575290D01*
X153473412Y-70581208D01*
X153458472Y-70581261D01*
X153448725Y-70580716D01*
X153448708Y-70580716D01*
X153445651Y-70580545D01*
X153366635Y-70583856D01*
X153363610Y-70584281D01*
X153363601Y-70584282D01*
X153318180Y-70590666D01*
X153288320Y-70594863D01*
X153285324Y-70595588D01*
X153285323Y-70595588D01*
X153214448Y-70612734D01*
X153214444Y-70612735D01*
X153211452Y-70613459D01*
X153136765Y-70639468D01*
X153133971Y-70640759D01*
X153133966Y-70640761D01*
X153088854Y-70661606D01*
X153064973Y-70672640D01*
X153062332Y-70674189D01*
X153062331Y-70674190D01*
X152999404Y-70711109D01*
X152999399Y-70711112D01*
X152996761Y-70712660D01*
X152994282Y-70714461D01*
X152994276Y-70714465D01*
X152935261Y-70757342D01*
X152935255Y-70757347D01*
X152932780Y-70759145D01*
X152930494Y-70761174D01*
X152930491Y-70761177D01*
X152925700Y-70765431D01*
X152873640Y-70811652D01*
X152871561Y-70813898D01*
X152871554Y-70813904D01*
X152821992Y-70867426D01*
X152819906Y-70869679D01*
X152772091Y-70932673D01*
X152730652Y-71000032D01*
X152729299Y-71002806D01*
X152728972Y-71003401D01*
X152710409Y-71028955D01*
X152707648Y-71031803D01*
X151784856Y-71954595D01*
X151759900Y-71973953D01*
X151730914Y-71986497D01*
X151699719Y-71991438D01*
X151695761Y-71991500D01*
X150014239Y-71991500D01*
X149982904Y-71987541D01*
X149953538Y-71975915D01*
X149927986Y-71957350D01*
X149925144Y-71954595D01*
X149446876Y-71476327D01*
X149427518Y-71451371D01*
X149414974Y-71422385D01*
X149410033Y-71391190D01*
X149413005Y-71359746D01*
X149423704Y-71330029D01*
X149441457Y-71303907D01*
X149465148Y-71283020D01*
X149493290Y-71268681D01*
X149514564Y-71263563D01*
X149514482Y-71263096D01*
X149517500Y-71262564D01*
X149520564Y-71262177D01*
X149523568Y-71261495D01*
X149523571Y-71261494D01*
X149594688Y-71245337D01*
X149594694Y-71245335D01*
X149597684Y-71244656D01*
X149600603Y-71243685D01*
X149669802Y-71220666D01*
X149669808Y-71220664D01*
X149672726Y-71219693D01*
X149675536Y-71218442D01*
X149742174Y-71188773D01*
X149742180Y-71188770D01*
X149744974Y-71187526D01*
X149813738Y-71148462D01*
X149878363Y-71102875D01*
X149880692Y-71100865D01*
X149881105Y-71100542D01*
X149908235Y-71084370D01*
X149938534Y-71075453D01*
X149963624Y-71073929D01*
X149964470Y-71073962D01*
X149972067Y-71074261D01*
X149972072Y-71074261D01*
X149975637Y-71074401D01*
X149983340Y-71073829D01*
X150003748Y-71072313D01*
X150005936Y-71072170D01*
X150015698Y-71071615D01*
X150033997Y-71070576D01*
X150037520Y-71069971D01*
X150039231Y-71069776D01*
X150040977Y-71069546D01*
X150044555Y-71069280D01*
X150072226Y-71064026D01*
X150074367Y-71063639D01*
X150098576Y-71059480D01*
X150098584Y-71059478D01*
X150102106Y-71058873D01*
X150105542Y-71057871D01*
X150107201Y-71057488D01*
X150107242Y-71057477D01*
X150108919Y-71057059D01*
X150112450Y-71056389D01*
X150139364Y-71048032D01*
X150141407Y-71047418D01*
X150165013Y-71040537D01*
X150165017Y-71040536D01*
X150168453Y-71039534D01*
X150171758Y-71038148D01*
X150173389Y-71037570D01*
X150175021Y-71036960D01*
X150178449Y-71035896D01*
X150204239Y-71024548D01*
X150206198Y-71023707D01*
X150228882Y-71014195D01*
X150232185Y-71012810D01*
X150235306Y-71011062D01*
X150236846Y-71010311D01*
X150236867Y-71010300D01*
X150238429Y-71009504D01*
X150241704Y-71008063D01*
X150266019Y-70993883D01*
X150267859Y-70992832D01*
X150289351Y-70980796D01*
X150289366Y-70980787D01*
X150292481Y-70979042D01*
X150295387Y-70976950D01*
X150296828Y-70976032D01*
X150298309Y-70975052D01*
X150301402Y-70973248D01*
X150304258Y-70971115D01*
X150304263Y-70971112D01*
X150323913Y-70956438D01*
X150325689Y-70955136D01*
X150345654Y-70940763D01*
X150348567Y-70938666D01*
X150351217Y-70936259D01*
X150352551Y-70935179D01*
X150352558Y-70935173D01*
X150353911Y-70934038D01*
X150356775Y-70931899D01*
X150377287Y-70912604D01*
X150378896Y-70911117D01*
X150391318Y-70899834D01*
X150399722Y-70892200D01*
X150402078Y-70889513D01*
X150403295Y-70888275D01*
X150404511Y-70886994D01*
X150407111Y-70884548D01*
X150409416Y-70881825D01*
X150409421Y-70881820D01*
X150425275Y-70863092D01*
X150426710Y-70861426D01*
X150429867Y-70857826D01*
X150445288Y-70840242D01*
X150447332Y-70837295D01*
X150448420Y-70835903D01*
X150448434Y-70835886D01*
X150449458Y-70834527D01*
X150451764Y-70831803D01*
X150465229Y-70811652D01*
X150467411Y-70808387D01*
X150468644Y-70806576D01*
X150482641Y-70786398D01*
X150482642Y-70786396D01*
X150484679Y-70783460D01*
X150486367Y-70780319D01*
X150487291Y-70778811D01*
X150488176Y-70777309D01*
X150490158Y-70774342D01*
X150494747Y-70765431D01*
X150495966Y-70763065D01*
X150513832Y-70737020D01*
X150518887Y-70731662D01*
X152352014Y-68898535D01*
X152354776Y-68895855D01*
X152355085Y-68895564D01*
X152372111Y-68879548D01*
X152388237Y-68860499D01*
X152390384Y-68858029D01*
X152404621Y-68842078D01*
X152404622Y-68842077D01*
X152406995Y-68839418D01*
X152409053Y-68836506D01*
X152411284Y-68833701D01*
X152411286Y-68833702D01*
X152412297Y-68832396D01*
X152412296Y-68832395D01*
X152414451Y-68829535D01*
X152416764Y-68826803D01*
X152430647Y-68806026D01*
X152432495Y-68803337D01*
X152438354Y-68795047D01*
X152446880Y-68782983D01*
X152448605Y-68779839D01*
X152450491Y-68776821D01*
X152450493Y-68776822D01*
X152451358Y-68775396D01*
X152451357Y-68775396D01*
X152453172Y-68772315D01*
X152455158Y-68769342D01*
X152466596Y-68747132D01*
X152468114Y-68744278D01*
X152480120Y-68722394D01*
X152481474Y-68719084D01*
X152483015Y-68715854D01*
X152483016Y-68715854D01*
X152483708Y-68714352D01*
X152483707Y-68714351D01*
X152485158Y-68711092D01*
X152486800Y-68707904D01*
X152495646Y-68684556D01*
X152496822Y-68681573D01*
X152506289Y-68658432D01*
X152507261Y-68654986D01*
X152508424Y-68651607D01*
X152508425Y-68651607D01*
X152508944Y-68650031D01*
X152508943Y-68650031D01*
X152510018Y-68646622D01*
X152511285Y-68643278D01*
X152517423Y-68619108D01*
X152518258Y-68615990D01*
X152525047Y-68591918D01*
X152525621Y-68588392D01*
X152526397Y-68584894D01*
X152526734Y-68583276D01*
X152526733Y-68583276D01*
X152527416Y-68579762D01*
X152528296Y-68576297D01*
X152531654Y-68551619D01*
X152532142Y-68548353D01*
X152535581Y-68527240D01*
X152535581Y-68527238D01*
X152536156Y-68523709D01*
X152536328Y-68520140D01*
X152536695Y-68516646D01*
X152536954Y-68513823D01*
X152536944Y-68513822D01*
X152537206Y-68510825D01*
X152537615Y-68507820D01*
X152538500Y-68485297D01*
X152538500Y-68477925D01*
X152538645Y-68471881D01*
X152539300Y-68458248D01*
X152539300Y-68458243D01*
X152539471Y-68454681D01*
X152538770Y-68443986D01*
X152538500Y-68435745D01*
X152538500Y-67918417D01*
X152542459Y-67887082D01*
X152554085Y-67857716D01*
X152572650Y-67832164D01*
X152596986Y-67812032D01*
X152625564Y-67798584D01*
X152656588Y-67792666D01*
X152688110Y-67794649D01*
G37*
%TD.AperFunction*%
%TA.AperFunction,Conductor*%
G36*
X148757096Y-67802459D02*
G01*
X148786462Y-67814085D01*
X148812014Y-67832650D01*
X148814856Y-67835405D01*
X149601462Y-68622011D01*
X149604142Y-68624773D01*
X149620452Y-68642111D01*
X149639501Y-68658237D01*
X149641962Y-68660376D01*
X149660582Y-68676995D01*
X149663494Y-68679053D01*
X149666299Y-68681284D01*
X149666298Y-68681286D01*
X149667604Y-68682297D01*
X149667605Y-68682296D01*
X149670465Y-68684451D01*
X149673197Y-68686764D01*
X149693974Y-68700647D01*
X149696663Y-68702495D01*
X149717017Y-68716880D01*
X149720161Y-68718605D01*
X149723179Y-68720491D01*
X149723178Y-68720493D01*
X149724604Y-68721358D01*
X149724604Y-68721357D01*
X149727685Y-68723172D01*
X149730658Y-68725158D01*
X149752868Y-68736596D01*
X149755722Y-68738114D01*
X149777606Y-68750120D01*
X149780916Y-68751474D01*
X149784146Y-68753015D01*
X149784146Y-68753016D01*
X149785648Y-68753708D01*
X149785649Y-68753707D01*
X149788908Y-68755158D01*
X149792096Y-68756800D01*
X149815444Y-68765646D01*
X149818427Y-68766822D01*
X149841568Y-68776289D01*
X149845014Y-68777261D01*
X149848393Y-68778424D01*
X149848393Y-68778425D01*
X149849969Y-68778944D01*
X149849969Y-68778943D01*
X149853378Y-68780018D01*
X149856722Y-68781285D01*
X149860190Y-68782166D01*
X149860191Y-68782166D01*
X149880892Y-68787423D01*
X149884010Y-68788258D01*
X149908082Y-68795047D01*
X149911613Y-68795622D01*
X149915099Y-68796395D01*
X149916748Y-68796738D01*
X149920243Y-68797417D01*
X149923703Y-68798296D01*
X149927238Y-68798777D01*
X149927243Y-68798778D01*
X149948410Y-68801658D01*
X149951677Y-68802146D01*
X149976291Y-68806155D01*
X149979873Y-68806327D01*
X149983421Y-68806700D01*
X149983421Y-68806701D01*
X149986169Y-68806954D01*
X149986170Y-68806944D01*
X149989192Y-68807208D01*
X149992180Y-68807615D01*
X150014703Y-68808500D01*
X150022078Y-68808500D01*
X150028124Y-68808645D01*
X150041752Y-68809300D01*
X150041758Y-68809300D01*
X150045319Y-68809471D01*
X150056014Y-68808770D01*
X150064255Y-68808500D01*
X150416761Y-68808500D01*
X150448096Y-68812459D01*
X150477462Y-68824085D01*
X150503014Y-68842650D01*
X150523146Y-68866986D01*
X150536594Y-68895564D01*
X150542512Y-68926588D01*
X150540529Y-68958110D01*
X150530769Y-68988148D01*
X150513846Y-69014815D01*
X150505856Y-69023595D01*
X149835807Y-69693644D01*
X149810851Y-69713002D01*
X149781865Y-69725546D01*
X149750670Y-69730487D01*
X149719226Y-69727515D01*
X149697889Y-69720706D01*
X149696465Y-69720107D01*
X149693684Y-69718775D01*
X149690788Y-69717721D01*
X149690781Y-69717718D01*
X149622261Y-69692779D01*
X149619368Y-69691726D01*
X149616385Y-69690960D01*
X149545760Y-69672826D01*
X149545755Y-69672825D01*
X149542768Y-69672058D01*
X149464613Y-69659959D01*
X149461538Y-69659787D01*
X149461537Y-69659787D01*
X149388718Y-69655716D01*
X149388709Y-69655716D01*
X149385651Y-69655545D01*
X149306635Y-69658856D01*
X149303610Y-69659281D01*
X149303601Y-69659282D01*
X149258180Y-69665666D01*
X149228320Y-69669863D01*
X149225324Y-69670588D01*
X149225323Y-69670588D01*
X149154448Y-69687734D01*
X149154444Y-69687735D01*
X149151452Y-69688459D01*
X149148544Y-69689472D01*
X149148543Y-69689472D01*
X149139047Y-69692779D01*
X149076765Y-69714468D01*
X149073971Y-69715759D01*
X149073966Y-69715761D01*
X149048528Y-69727515D01*
X149004973Y-69747640D01*
X149002332Y-69749189D01*
X149002331Y-69749190D01*
X148939404Y-69786109D01*
X148939399Y-69786112D01*
X148936761Y-69787660D01*
X148934282Y-69789461D01*
X148934276Y-69789465D01*
X148875261Y-69832342D01*
X148875255Y-69832347D01*
X148872780Y-69834145D01*
X148813640Y-69886652D01*
X148811561Y-69888898D01*
X148811554Y-69888904D01*
X148761992Y-69942426D01*
X148759906Y-69944679D01*
X148712091Y-70007673D01*
X148670652Y-70075032D01*
X148635983Y-70146114D01*
X148608416Y-70220239D01*
X148588214Y-70296701D01*
X148584777Y-70317922D01*
X148579935Y-70347820D01*
X148575570Y-70374769D01*
X148570604Y-70453698D01*
X148570712Y-70456787D01*
X148572942Y-70520642D01*
X148573364Y-70532735D01*
X148583823Y-70611126D01*
X148584525Y-70614118D01*
X148584525Y-70614119D01*
X148598222Y-70672514D01*
X148601523Y-70703925D01*
X148596910Y-70735170D01*
X148584671Y-70764286D01*
X148565575Y-70789444D01*
X148540823Y-70809062D01*
X148511970Y-70821909D01*
X148480828Y-70827176D01*
X148449355Y-70824534D01*
X148432457Y-70819688D01*
X148372268Y-70797781D01*
X148372258Y-70797778D01*
X148369368Y-70796726D01*
X148366385Y-70795960D01*
X148295760Y-70777826D01*
X148295755Y-70777825D01*
X148292768Y-70777058D01*
X148214613Y-70764959D01*
X148211538Y-70764787D01*
X148211537Y-70764787D01*
X148138718Y-70760716D01*
X148138709Y-70760716D01*
X148135651Y-70760545D01*
X148056635Y-70763856D01*
X148053610Y-70764281D01*
X148053601Y-70764282D01*
X148008180Y-70770666D01*
X147978320Y-70774863D01*
X147975324Y-70775588D01*
X147975323Y-70775588D01*
X147904448Y-70792734D01*
X147904444Y-70792735D01*
X147901452Y-70793459D01*
X147898544Y-70794472D01*
X147898543Y-70794472D01*
X147889041Y-70797781D01*
X147826765Y-70819468D01*
X147823971Y-70820759D01*
X147823966Y-70820761D01*
X147791196Y-70835903D01*
X147754973Y-70852640D01*
X147752327Y-70854192D01*
X147752322Y-70854195D01*
X147709715Y-70879192D01*
X147680685Y-70891634D01*
X147649473Y-70896466D01*
X147618040Y-70893384D01*
X147602861Y-70888916D01*
X147572268Y-70877781D01*
X147572258Y-70877778D01*
X147569368Y-70876726D01*
X147566385Y-70875960D01*
X147495760Y-70857826D01*
X147495755Y-70857825D01*
X147492768Y-70857058D01*
X147414613Y-70844959D01*
X147411538Y-70844787D01*
X147411537Y-70844787D01*
X147338718Y-70840716D01*
X147338709Y-70840716D01*
X147335651Y-70840545D01*
X147256635Y-70843856D01*
X147253610Y-70844281D01*
X147253601Y-70844282D01*
X147212565Y-70850050D01*
X147204574Y-70851173D01*
X147172994Y-70851614D01*
X147142296Y-70844187D01*
X147114408Y-70829360D01*
X147091085Y-70808063D01*
X147073790Y-70781635D01*
X147063612Y-70751736D01*
X147061188Y-70720245D01*
X147065678Y-70692521D01*
X147069359Y-70679338D01*
X147083092Y-70601454D01*
X147087689Y-70541710D01*
X147089009Y-70524556D01*
X147089009Y-70524545D01*
X147089159Y-70522602D01*
X147089475Y-70500000D01*
X147085612Y-70421009D01*
X147084290Y-70412055D01*
X147083628Y-70380485D01*
X147084577Y-70373396D01*
X147085579Y-70367247D01*
X147085579Y-70367243D01*
X147086155Y-70363709D01*
X147086327Y-70360130D01*
X147086700Y-70356579D01*
X147086701Y-70356579D01*
X147086954Y-70353831D01*
X147086944Y-70353830D01*
X147087208Y-70350808D01*
X147087615Y-70347820D01*
X147088500Y-70325297D01*
X147088500Y-70317922D01*
X147088645Y-70311876D01*
X147089300Y-70298248D01*
X147089300Y-70298242D01*
X147089471Y-70294681D01*
X147088770Y-70283986D01*
X147088500Y-70275745D01*
X147088500Y-67924500D01*
X147092459Y-67893165D01*
X147104085Y-67863799D01*
X147122650Y-67838247D01*
X147146986Y-67818115D01*
X147175564Y-67804667D01*
X147206588Y-67798749D01*
X147214500Y-67798500D01*
X148725761Y-67798500D01*
X148757096Y-67802459D01*
G37*
%TD.AperFunction*%
%TA.AperFunction,Conductor*%
G36*
X146657096Y-61172459D02*
G01*
X146686462Y-61184085D01*
X146712014Y-61202650D01*
X146714856Y-61205405D01*
X150175856Y-64666405D01*
X150195214Y-64691361D01*
X150207758Y-64720347D01*
X150212699Y-64751542D01*
X150209727Y-64782986D01*
X150199028Y-64812703D01*
X150181275Y-64838825D01*
X150157584Y-64859712D01*
X150129442Y-64874051D01*
X150098619Y-64880941D01*
X150086761Y-64881500D01*
X149664917Y-64881500D01*
X149633582Y-64877541D01*
X149604216Y-64865915D01*
X149578664Y-64847350D01*
X149558532Y-64823014D01*
X149545084Y-64794436D01*
X149539067Y-64761655D01*
X149538164Y-64743184D01*
X149535612Y-64691009D01*
X149527413Y-64635483D01*
X149524510Y-64615824D01*
X149524509Y-64615818D01*
X149524059Y-64612772D01*
X149523316Y-64609792D01*
X149523314Y-64609782D01*
X149505673Y-64539032D01*
X149504926Y-64536036D01*
X149496435Y-64512190D01*
X149479429Y-64464430D01*
X149479426Y-64464422D01*
X149478397Y-64461533D01*
X149444724Y-64389975D01*
X149443123Y-64387288D01*
X149405808Y-64324692D01*
X149404229Y-64322043D01*
X149357298Y-64258388D01*
X149347534Y-64247544D01*
X149306439Y-64201902D01*
X149306432Y-64201894D01*
X149304380Y-64199616D01*
X149256510Y-64155905D01*
X149248245Y-64148358D01*
X149248244Y-64148357D01*
X149245979Y-64146289D01*
X149182653Y-64098915D01*
X149115006Y-64057946D01*
X149043684Y-64023775D01*
X148993472Y-64005499D01*
X148972261Y-63997779D01*
X148969368Y-63996726D01*
X148966385Y-63995960D01*
X148895760Y-63977826D01*
X148895755Y-63977825D01*
X148892768Y-63977058D01*
X148860100Y-63972001D01*
X148829741Y-63963295D01*
X148802499Y-63947313D01*
X148794413Y-63940528D01*
X148783622Y-63930674D01*
X148783621Y-63930673D01*
X148781021Y-63928299D01*
X148778327Y-63926342D01*
X148775850Y-63924127D01*
X148772974Y-63922083D01*
X148750235Y-63905922D01*
X148749168Y-63905155D01*
X148726574Y-63888740D01*
X148726566Y-63888735D01*
X148723713Y-63886662D01*
X148720820Y-63885018D01*
X148718109Y-63883092D01*
X148690510Y-63867793D01*
X148689561Y-63867261D01*
X148662120Y-63851673D01*
X148659061Y-63850362D01*
X148656153Y-63848750D01*
X148652907Y-63847399D01*
X148652897Y-63847394D01*
X148627063Y-63836640D01*
X148625971Y-63836180D01*
X148597011Y-63823767D01*
X148593826Y-63822806D01*
X148590755Y-63821527D01*
X148587367Y-63820543D01*
X148587362Y-63820541D01*
X148560564Y-63812756D01*
X148559297Y-63812381D01*
X148557455Y-63811825D01*
X148529197Y-63803293D01*
X148525930Y-63802693D01*
X148522731Y-63801764D01*
X148519288Y-63801169D01*
X148519274Y-63801166D01*
X148491748Y-63796412D01*
X148490544Y-63796198D01*
X148459524Y-63790505D01*
X148456202Y-63790273D01*
X148452927Y-63789707D01*
X148449411Y-63789498D01*
X148449410Y-63789498D01*
X148438605Y-63788856D01*
X148421553Y-63787843D01*
X148420295Y-63787762D01*
X148402245Y-63786500D01*
X148400052Y-63786500D01*
X148398907Y-63786460D01*
X148395834Y-63786315D01*
X148391800Y-63786075D01*
X148382215Y-63785506D01*
X148378704Y-63785690D01*
X148378699Y-63785690D01*
X148366548Y-63786327D01*
X148359954Y-63786500D01*
X146504594Y-63786500D01*
X146473259Y-63782541D01*
X146443893Y-63770915D01*
X146418341Y-63752350D01*
X146415499Y-63749595D01*
X144049499Y-61383595D01*
X144030141Y-61358639D01*
X144017597Y-61329653D01*
X144012656Y-61298458D01*
X144015628Y-61267014D01*
X144026327Y-61237297D01*
X144044080Y-61211175D01*
X144067771Y-61190288D01*
X144095913Y-61175949D01*
X144126736Y-61169059D01*
X144138594Y-61168500D01*
X146625761Y-61168500D01*
X146657096Y-61172459D01*
G37*
%TD.AperFunction*%
%TD*%
M02*
